{
  "accessors": [
    {
      "bufferView": 2,
      "componentType": 5126,
      "count": 3337,
      "max": [
        0.05551227554678917,
        0.2513303756713867,
        0.17301024496555328
      ],
      "min": [
        -0.1067630723118782,
        -0.23409873247146606,
        -0.17301024496555328
      ],
      "type": "VEC3"
    },
    {
      "bufferView": 2,
      "byteOffset": 40044,
      "componentType": 5126,
      "count": 3337,
      "max": [
        0.9999969005584717,
        0.9858407378196716,
        0.9997686743736267
      ],
      "min": [
        -0.9999993443489075,
        -0.9999129772186279,
        -0.9997687935829163
      ],
      "type": "VEC3"
    },
    {
      "bufferView": 3,
      "componentType": 5126,
      "count": 3337,
      "max": [
        0.9999421834945679,
        0.9999992847442627,
        0.9999983906745911,
        1.0
      ],
      "min": [
        -0.9999129772186279,
        -0.9999969005584717,
        -0.9999984502792358,
        -1.0
      ],
      "type": "VEC4"
    },
    {
      "bufferView": 1,
      "componentType": 5126,
      "count": 3337,
      "max": [
        0.7686658501625061,
        0.9872236251831055
      ],
      "min": [
        0.0006794846267439425,
        0.0006794929504394531
      ],
      "type": "VEC2"
    },
    {
      "bufferView": 1,
      "byteOffset": 26696,
      "componentType": 5126,
      "count": 3337,
      "max": [
        0.7686658501625061,
        0.9872236251831055
      ],
      "min": [
        0.0006794846267439425,
        0.0006794929504394531
      ],
      "type": "VEC2"
    },
    {
      "bufferView": 0,
      "componentType": 5125,
      "count": 16446,
      "type": "SCALAR"
    }
  ],
  "asset": {
    "extras": {
      "author": "vicente betoret ferrero (https://sketchfab.com/deathcow)",
      "license": "CC-BY-4.0 (http://creativecommons.org/licenses/by/4.0/)",
      "source": "https://sketchfab.com/3d-models/packaged-meat-1ee98a9e9c144c49b0735ee948930dfa",
      "title": "packaged meat"
    },
    "generator": "Sketchfab-15.99.0",
    "version": "2.0"
  },
  "bufferViews": [
    {
      "buffer": 0,
      "byteLength": 65784,
      "name": "floatBufferViews",
      "target": 34963
    },
    {
      "buffer": 0,
      "byteLength": 53392,
      "byteOffset": 65784,
      "byteStride": 8,
      "name": "floatBufferViews",
      "target": 34962
    },
    {
      "buffer": 0,
      "byteLength": 80088,
      "byteOffset": 119176,
      "byteStride": 12,
      "name": "floatBufferViews",
      "target": 34962
    },
    {
      "buffer": 0,
      "byteLength": 53392,
      "byteOffset": 199264,
      "byteStride": 16,
      "name": "floatBufferViews",
      "target": 34962
    }
  ],
  "buffers": [
    {
      "byteLength": 252656,
      "uri": "scene.bin"
    }
  ],
  "images": [
    {
      "uri": "textures/base_material_baseColor.jpeg"
    },
    {
      "uri": "textures/base_material_metallicRoughness.png"
    },
    {
      "uri": "textures/base_material_normal.png"
    }
  ],
  "materials": [
    {
      "doubleSided": true,
      "name": "base_material",
      "normalTexture": {
        "index": 2
      },
      "occlusionTexture": {
        "index": 1
      },
      "pbrMetallicRoughness": {
        "baseColorTexture": {
          "index": 0
        },
        "metallicRoughnessTexture": {
          "index": 1
        }
      }
    }
  ],
  "meshes": [
    {
      "name": "mesh_base_material_0",
      "primitives": [
        {
          "attributes": {
            "NORMAL": 1,
            "POSITION": 0,
            "TANGENT": 2,
            "TEXCOORD_0": 3,
            "TEXCOORD_1": 4
          },
          "indices": 5,
          "material": 0,
          "mode": 4
        }
      ]
    }
  ],
  "nodes": [
    {
      "children": [
        1
      ],
      "matrix": [
        1.0,
        0.0,
        0.0,
        0.0,
        0.0,
        2.220446049250313e-16,
        -1.0,
        0.0,
        0.0,
        1.0,
        2.220446049250313e-16,
        0.0,
        0.0,
        0.0,
        0.0,
        1.0
      ],
      "name": "Sketchfab_model"
    },
    {
      "children": [
        2
      ],
      "matrix": [
        0.009999999776482582,
        0.0,
        0.0,
        0.0,
        0.0,
        0.0,
        0.009999999776482582,
        0.0,
        0.0,
        -0.009999999776482582,
        0.0,
        0.0,
        0.0,
        0.0,
        0.0,
        1.0
      ],
      "name": "carne.fbx"
    },
    {
      "children": [
        3
      ],
      "name": "RootNode"
    },
    {
      "children": [
        4
      ],
      "matrix": [
        204.92431640625,
        0.0,
        0.0,
        0.0,
        0.0,
        204.92434692382628,
        2.7533395094331026e-05,
        0.0,
        0.0,
        -2.7533395094331026e-05,
        204.92434692382628,
        0.0,
        0.0,
        0.0,
        0.0,
        1.0
      ],
      "name": "mesh"
    },
    {
      "mesh": 0,
      "name": "mesh_base_material_0"
    }
  ],
  "samplers": [
    {
      "magFilter": 9729,
      "minFilter": 9987,
      "wrapS": 10497,
      "wrapT": 10497
    }
  ],
  "scene": 0,
  "scenes": [
    {
      "name": "Sketchfab_Scene",
      "nodes": [
        0
      ]
    }
  ],
  "textures": [
    {
      "sampler": 0,
      "source": 0
    },
    {
      "sampler": 0,
      "source": 1
    },
    {
      "sampler": 0,
      "source": 2
    }
  ]
}
