{
  "accessors": [
    {
      "bufferView": 3,
      "componentType": 5126,
      "count": 618,
      "max": [
        18.589385986328125,
        11.93414306640625,
        23.49890899658203
      ],
      "min": [
        -11.369647026062012,
        -1.9814780950546265,
        -23.022384643554688
      ],
      "type": "VEC3"
    },
    {
      "bufferView": 3,
      "byteOffset": 7416,
      "componentType": 5126,
      "count": 618,
      "max": [
        0.9638939499855042,
        0.9977479577064514,
        0.9999226331710815
      ],
      "min": [
        -0.9979910254478455,
        -1.0,
        -0.9995388984680176
      ],
      "type": "VEC3"
    },
    {
      "bufferView": 2,
      "componentType": 5126,
      "count": 618,
      "max": [
        0.8988023400306702,
        0.9958614706993103
      ],
      "min": [
        0.003476496785879135,
        0.009231511503458023
      ],
      "type": "VEC2"
    },
    {
      "bufferView": 1,
      "componentType": 5125,
      "count": 2418,
      "type": "SCALAR"
    },
    {
      "bufferView": 3,
      "byteOffset": 14832,
      "componentType": 5126,
      "count": 646,
      "max": [
        18.320362091064453,
        85.92005157470703,
        33.253265380859375
      ],
      "min": [
        -23.345321655273438,
        6.18530797958374,
        -26.41437339782715
      ],
      "type": "VEC3"
    },
    {
      "bufferView": 3,
      "byteOffset": 22584,
      "componentType": 5126,
      "count": 646,
      "max": [
        0.9998493194580078,
        0.9990095496177673,
        0.9999195337295532
      ],
      "min": [
        -0.9997351169586182,
        -0.9999988079071045,
        -0.9999933242797852
      ],
      "type": "VEC3"
    },
    {
      "bufferView": 2,
      "byteOffset": 4944,
      "componentType": 5126,
      "count": 646,
      "max": [
        0.9332693815231323,
        0.9813059568405151
      ],
      "min": [
        0.007963575422763824,
        0.015749309211969376
      ],
      "type": "VEC2"
    },
    {
      "bufferView": 1,
      "byteOffset": 9672,
      "componentType": 5125,
      "count": 2922,
      "type": "SCALAR"
    },
    {
      "bufferView": 3,
      "byteOffset": 30336,
      "componentType": 5126,
      "count": 334,
      "max": [
        35.528438568115234,
        175.51092529296875,
        18.135725021362305
      ],
      "min": [
        -6.147431373596191,
        139.07415771484375,
        -17.4672794342041
      ],
      "type": "VEC3"
    },
    {
      "bufferView": 3,
      "byteOffset": 34344,
      "componentType": 5126,
      "count": 334,
      "max": [
        0.9992016553878784,
        0.9998849630355835,
        0.9967008829116821
      ],
      "min": [
        -0.9937934279441833,
        -0.9999281167984009,
        -0.9967008829116821
      ],
      "type": "VEC3"
    },
    {
      "bufferView": 2,
      "byteOffset": 10112,
      "componentType": 5126,
      "count": 334,
      "max": [
        0.8000120520591736,
        0.9998894929885864
      ],
      "min": [
        0.00011049587919842452,
        0.00011049587919842452
      ],
      "type": "VEC2"
    },
    {
      "bufferView": 1,
      "byteOffset": 21360,
      "componentType": 5125,
      "count": 1632,
      "type": "SCALAR"
    },
    {
      "bufferView": 3,
      "byteOffset": 38352,
      "componentType": 5126,
      "count": 905,
      "max": [
        18.61368751525879,
        143.42523193359375,
        110.92804718017578
      ],
      "min": [
        -21.621089935302734,
        83.4144287109375,
        -111.42430877685547
      ],
      "type": "VEC3"
    },
    {
      "bufferView": 3,
      "byteOffset": 49212,
      "componentType": 5126,
      "count": 905,
      "max": [
        0.9992557764053345,
        0.9983518123626709,
        0.9999433755874634
      ],
      "min": [
        -0.9997323751449585,
        -0.9994877576828003,
        -0.999343991279602
      ],
      "type": "VEC3"
    },
    {
      "bufferView": 2,
      "byteOffset": 12784,
      "componentType": 5126,
      "count": 905,
      "max": [
        0.893783688545227,
        0.9300815463066101
      ],
      "min": [
        0.04659917578101158,
        0.013338260352611542
      ],
      "type": "VEC2"
    },
    {
      "bufferView": 1,
      "byteOffset": 27888,
      "componentType": 5125,
      "count": 4620,
      "type": "SCALAR"
    },
    {
      "bufferView": 3,
      "byteOffset": 60072,
      "componentType": 5126,
      "count": 857,
      "max": [
        35.41489028930664,
        172.1252899169922,
        21.311264038085938
      ],
      "min": [
        -9.008927345275879,
        147.18939208984375,
        -19.935026168823242
      ],
      "type": "VEC3"
    },
    {
      "bufferView": 3,
      "byteOffset": 70356,
      "componentType": 5126,
      "count": 857,
      "max": [
        0.9841156005859375,
        0.9993302822113037,
        0.9971941113471985
      ],
      "min": [
        -0.999922513961792,
        -0.9847903847694397,
        -0.9928067326545715
      ],
      "type": "VEC3"
    },
    {
      "bufferView": 2,
      "byteOffset": 20024,
      "componentType": 5126,
      "count": 857,
      "max": [
        0.9998766779899597,
        0.6118563413619995
      ],
      "min": [
        0.00012325412535574287,
        0.00012325412535574287
      ],
      "type": "VEC2"
    },
    {
      "bufferView": 1,
      "byteOffset": 46368,
      "componentType": 5125,
      "count": 4272,
      "type": "SCALAR"
    },
    {
      "bufferView": 3,
      "byteOffset": 80640,
      "componentType": 5126,
      "count": 124,
      "max": [
        -15.127765655517578,
        93.120849609375,
        19.80686378479004
      ],
      "min": [
        -25.883525848388672,
        65.72899627685547,
        9.958260536193848
      ],
      "type": "VEC3"
    },
    {
      "bufferView": 3,
      "byteOffset": 82128,
      "componentType": 5126,
      "count": 124,
      "max": [
        0.9981626272201538,
        0.8648912906646729,
        0.9880266189575195
      ],
      "min": [
        -0.9865099191665649,
        -0.7897506952285767,
        -0.9990788698196411
      ],
      "type": "VEC3"
    },
    {
      "bufferView": 2,
      "byteOffset": 26880,
      "componentType": 5126,
      "count": 124,
      "max": [
        0.9972009658813477,
        0.8648491501808167
      ],
      "min": [
        0.003777334000915289,
        0.004736748524010181
      ],
      "type": "VEC2"
    },
    {
      "bufferView": 1,
      "byteOffset": 63456,
      "componentType": 5125,
      "count": 420,
      "type": "SCALAR"
    },
    {
      "bufferView": 5,
      "componentType": 5126,
      "count": 30,
      "max": [
        1.0,
        0.9966570734977722,
        0.9994258284568787,
        0.0,
        0.029636124148964882,
        1.0,
        0.9999998807907104,
        0.0,
        1.0,
        0.9995044469833374,
        1.0,
        0.0,
        72.90520477294922,
        62.59562683105469,
        148.15785217285156,
        1.0
      ],
      "min": [
        -1.0,
        -0.09188182651996613,
        -0.9957695603370667,
        0.0,
        -0.014825274236500263,
        -0.9999127388000488,
        -0.9453173875808716,
        0.0,
        -1.0,
        -0.9998344779014587,
        -0.9999129176139832,
        0.0,
        -78.7178726196289,
        -135.4523162841797,
        -153.5621337890625,
        1.0
      ],
      "type": "MAT4"
    },
    {
      "bufferView": 0,
      "componentType": 5123,
      "count": 618,
      "type": "VEC4"
    },
    {
      "bufferView": 4,
      "componentType": 5126,
      "count": 618,
      "max": [
        1.0,
        0.49809545278549194,
        0.0,
        0.0
      ],
      "min": [
        0.5019046068191528,
        0.0,
        0.0,
        0.0
      ],
      "type": "VEC4"
    },
    {
      "bufferView": 0,
      "byteOffset": 4944,
      "componentType": 5123,
      "count": 646,
      "type": "VEC4"
    },
    {
      "bufferView": 4,
      "byteOffset": 9888,
      "componentType": 5126,
      "count": 646,
      "max": [
        1.0,
        0.4870961308479309,
        0.2891344726085663,
        0.14983342587947845
      ],
      "min": [
        0.33669301867485046,
        0.0,
        0.0,
        0.0
      ],
      "type": "VEC4"
    },
    {
      "bufferView": 0,
      "byteOffset": 10112,
      "componentType": 5123,
      "count": 334,
      "type": "VEC4"
    },
    {
      "bufferView": 4,
      "byteOffset": 20224,
      "componentType": 5126,
      "count": 334,
      "max": [
        1.0,
        0.49417635798454285,
        0.2327956259250641,
        0.0
      ],
      "min": [
        0.3871273100376129,
        0.0,
        0.0,
        0.0
      ],
      "type": "VEC4"
    },
    {
      "bufferView": 0,
      "byteOffset": 12784,
      "componentType": 5123,
      "count": 905,
      "type": "VEC4"
    },
    {
      "bufferView": 4,
      "byteOffset": 25568,
      "componentType": 5126,
      "count": 905,
      "max": [
        1.0,
        0.49913355708122253,
        0.3231695592403412,
        0.06642107665538788
      ],
      "min": [
        0.353389710187912,
        0.0,
        0.0,
        0.0
      ],
      "type": "VEC4"
    },
    {
      "bufferView": 0,
      "byteOffset": 20024,
      "componentType": 5123,
      "count": 857,
      "type": "VEC4"
    },
    {
      "bufferView": 4,
      "byteOffset": 40048,
      "componentType": 5126,
      "count": 857,
      "max": [
        1.0,
        0.48158925771713257,
        0.0,
        0.0
      ],
      "min": [
        0.5184107422828674,
        0.0,
        0.0,
        0.0
      ],
      "type": "VEC4"
    },
    {
      "bufferView": 0,
      "byteOffset": 26880,
      "componentType": 5123,
      "count": 124,
      "type": "VEC4"
    },
    {
      "bufferView": 4,
      "byteOffset": 53760,
      "componentType": 5126,
      "count": 124,
      "max": [
        1.0,
        0.0,
        0.0,
        0.0
      ],
      "min": [
        1.0,
        0.0,
        0.0,
        0.0
      ],
      "type": "VEC4"
    },
    {
      "bufferView": 6,
      "componentType": 5126,
      "count": 534,
      "max": [
        12.5
      ],
      "min": [
        0.0
      ],
      "type": "SCALAR"
    },
    {
      "bufferView": 7,
      "componentType": 5126,
      "count": 534,
      "max": [
        -1.1920928955078125e-06,
        7.562204360961914,
        1.6689300537109375e-06
      ],
      "min": [
        -7.152557373046875e-06,
        7.5621867179870605,
        -3.814697265625e-06
      ],
      "type": "VEC3"
    },
    {
      "bufferView": 6,
      "byteOffset": 2136,
      "componentType": 5126,
      "count": 8,
      "max": [
        12.5
      ],
      "min": [
        0.0
      ],
      "type": "SCALAR"
    },
    {
      "bufferView": 7,
      "byteOffset": 6408,
      "componentType": 5126,
      "count": 8,
      "max": [
        1.0000001192092896,
        1.0000001192092896,
        1.0000001192092896
      ],
      "min": [
        1.0000001192092896,
        1.0,
        0.9999999403953552
      ],
      "type": "VEC3"
    },
    {
      "bufferView": 6,
      "byteOffset": 2168,
      "componentType": 5126,
      "count": 534,
      "max": [
        12.5
      ],
      "min": [
        0.0
      ],
      "type": "SCALAR"
    },
    {
      "bufferView": 8,
      "componentType": 5126,
      "count": 534,
      "max": [
        0.03838200867176056,
        0.007010919973254204,
        0.07672026008367538,
        0.999997615814209
      ],
      "min": [
        -0.8161681294441223,
        -0.2243664711713791,
        -0.09572885930538177,
        0.5302092432975769
      ],
      "type": "VEC4"
    },
    {
      "bufferView": 6,
      "byteOffset": 4304,
      "componentType": 5126,
      "count": 444,
      "max": [
        12.5
      ],
      "min": [
        0.0
      ],
      "type": "SCALAR"
    },
    {
      "bufferView": 7,
      "byteOffset": 6504,
      "componentType": 5126,
      "count": 444,
      "max": [
        1.4066696166992188e-05,
        15.701147079467773,
        5.7220458984375e-06
      ],
      "min": [
        -4.76837158203125e-07,
        15.701135635375977,
        -1.430511474609375e-06
      ],
      "type": "VEC3"
    },
    {
      "bufferView": 6,
      "byteOffset": 6080,
      "componentType": 5126,
      "count": 8,
      "max": [
        12.5
      ],
      "min": [
        0.0
      ],
      "type": "SCALAR"
    },
    {
      "bufferView": 7,
      "byteOffset": 11832,
      "componentType": 5126,
      "count": 8,
      "max": [
        0.9999999403953552,
        1.0,
        1.0
      ],
      "min": [
        0.9999999403953552,
        0.9999998807907104,
        0.9999999403953552
      ],
      "type": "VEC3"
    },
    {
      "bufferView": 6,
      "byteOffset": 6112,
      "componentType": 5126,
      "count": 444,
      "max": [
        12.5
      ],
      "min": [
        0.0
      ],
      "type": "SCALAR"
    },
    {
      "bufferView": 8,
      "byteOffset": 8544,
      "componentType": 5126,
      "count": 444,
      "max": [
        -0.013149591162800789,
        0.008273678831756115,
        0.046495918184518814,
        0.9995637536048889
      ],
      "min": [
        -0.7829331755638123,
        -0.21659459173679352,
        -0.017402682453393936,
        0.5831754207611084
      ],
      "type": "VEC4"
    },
    {
      "bufferView": 6,
      "byteOffset": 7888,
      "componentType": 5126,
      "count": 452,
      "max": [
        12.5
      ],
      "min": [
        0.0
      ],
      "type": "SCALAR"
    },
    {
      "bufferView": 7,
      "byteOffset": 11928,
      "componentType": 5126,
      "count": 452,
      "max": [
        1.0251998901367188e-05,
        27.669416427612305,
        4.76837158203125e-07
      ],
      "min": [
        9.5367431640625e-07,
        27.669376373291016,
        -7.62939453125e-06
      ],
      "type": "VEC3"
    },
    {
      "bufferView": 6,
      "byteOffset": 9696,
      "componentType": 5126,
      "count": 4,
      "max": [
        12.5
      ],
      "min": [
        0.0
      ],
      "type": "SCALAR"
    },
    {
      "bufferView": 7,
      "byteOffset": 17352,
      "componentType": 5126,
      "count": 4,
      "max": [
        1.0,
        0.9999998807907104,
        1.0
      ],
      "min": [
        1.0,
        0.9999998211860657,
        0.9999999403953552
      ],
      "type": "VEC3"
    },
    {
      "bufferView": 6,
      "byteOffset": 9712,
      "componentType": 5126,
      "count": 452,
      "max": [
        12.5
      ],
      "min": [
        0.0
      ],
      "type": "SCALAR"
    },
    {
      "bufferView": 8,
      "byteOffset": 15648,
      "componentType": 5126,
      "count": 452,
      "max": [
        0.8100425004959106,
        0.03645309433341026,
        0.06849824637174606,
        0.9999662041664124
      ],
      "min": [
        -0.10876154899597168,
        -0.060131896287202835,
        -0.12441276758909225,
        0.5840003490447998
      ],
      "type": "VEC4"
    },
    {
      "bufferView": 6,
      "byteOffset": 11520,
      "componentType": 5126,
      "count": 440,
      "max": [
        12.5
      ],
      "min": [
        0.0
      ],
      "type": "SCALAR"
    },
    {
      "bufferView": 7,
      "byteOffset": 17400,
      "componentType": 5126,
      "count": 440,
      "max": [
        6.67572021484375e-06,
        10.03398323059082,
        1.6689300537109375e-06
      ],
      "min": [
        -1.6689300537109375e-06,
        10.033973693847656,
        -7.152557373046875e-06
      ],
      "type": "VEC3"
    },
    {
      "bufferView": 6,
      "byteOffset": 13280,
      "componentType": 5126,
      "count": 440,
      "max": [
        12.5
      ],
      "min": [
        0.0
      ],
      "type": "SCALAR"
    },
    {
      "bufferView": 8,
      "byteOffset": 22880,
      "componentType": 5126,
      "count": 440,
      "max": [
        0.14732719957828522,
        0.04274585098028183,
        0.39137551188468933,
        0.9962223172187805
      ],
      "min": [
        -0.0840388834476471,
        -0.1366387903690338,
        0.06819896399974823,
        0.9197878241539001
      ],
      "type": "VEC4"
    },
    {
      "bufferView": 6,
      "byteOffset": 15040,
      "componentType": 5126,
      "count": 476,
      "max": [
        12.5
      ],
      "min": [
        0.0
      ],
      "type": "SCALAR"
    },
    {
      "bufferView": 7,
      "byteOffset": 22680,
      "componentType": 5126,
      "count": 476,
      "max": [
        1.0251998901367188e-05,
        27.669416427612305,
        4.76837158203125e-07
      ],
      "min": [
        9.5367431640625e-07,
        27.669376373291016,
        -7.62939453125e-06
      ],
      "type": "VEC3"
    },
    {
      "bufferView": 6,
      "byteOffset": 16944,
      "componentType": 5126,
      "count": 8,
      "max": [
        12.5
      ],
      "min": [
        0.0
      ],
      "type": "SCALAR"
    },
    {
      "bufferView": 7,
      "byteOffset": 28392,
      "componentType": 5126,
      "count": 8,
      "max": [
        1.0,
        1.0000001192092896,
        0.9999999403953552
      ],
      "min": [
        0.9999999403953552,
        0.9999999403953552,
        0.9999998807907104
      ],
      "type": "VEC3"
    },
    {
      "bufferView": 6,
      "byteOffset": 16976,
      "componentType": 5126,
      "count": 476,
      "max": [
        12.5
      ],
      "min": [
        0.0
      ],
      "type": "SCALAR"
    },
    {
      "bufferView": 8,
      "byteOffset": 29920,
      "componentType": 5126,
      "count": 476,
      "max": [
        0.562125027179718,
        0.14309252798557281,
        -0.18143534660339355,
        0.9656119346618652
      ],
      "min": [
        -0.20495150983333588,
        -0.14583106338977814,
        -0.5751447677612305,
        0.6218205094337463
      ],
      "type": "VEC4"
    },
    {
      "bufferView": 6,
      "byteOffset": 18880,
      "componentType": 5126,
      "count": 482,
      "max": [
        12.5
      ],
      "min": [
        0.0
      ],
      "type": "SCALAR"
    },
    {
      "bufferView": 7,
      "byteOffset": 28488,
      "componentType": 5126,
      "count": 482,
      "max": [
        5.7220458984375e-06,
        34.96879577636719,
        -2.86102294921875e-06
      ],
      "min": [
        -1.9073486328125e-06,
        34.96878433227539,
        -3.814697265625e-06
      ],
      "type": "VEC3"
    },
    {
      "bufferView": 6,
      "byteOffset": 20808,
      "componentType": 5126,
      "count": 9,
      "max": [
        12.5
      ],
      "min": [
        0.0
      ],
      "type": "SCALAR"
    },
    {
      "bufferView": 7,
      "byteOffset": 34272,
      "componentType": 5126,
      "count": 9,
      "max": [
        1.0000001192092896,
        1.0000001192092896,
        1.0000001192092896
      ],
      "min": [
        0.9999999403953552,
        0.9999999403953552,
        0.9999999403953552
      ],
      "type": "VEC3"
    },
    {
      "bufferView": 6,
      "byteOffset": 20844,
      "componentType": 5126,
      "count": 482,
      "max": [
        12.5
      ],
      "min": [
        0.0
      ],
      "type": "SCALAR"
    },
    {
      "bufferView": 8,
      "byteOffset": 37536,
      "componentType": 5126,
      "count": 482,
      "max": [
        0.1502254754304886,
        0.017215900123119354,
        -0.18217413127422333,
        0.9812548756599426
      ],
      "min": [
        -0.1819022297859192,
        -0.4062146544456482,
        -0.7269771695137024,
        0.6608280539512634
      ],
      "type": "VEC4"
    },
    {
      "bufferView": 6,
      "byteOffset": 22772,
      "componentType": 5126,
      "count": 541,
      "max": [
        12.5
      ],
      "min": [
        0.0
      ],
      "type": "SCALAR"
    },
    {
      "bufferView": 7,
      "byteOffset": 34380,
      "componentType": 5126,
      "count": 541,
      "max": [
        1.0818243026733398e-05,
        19.832233428955078,
        2.384185791015625e-05
      ],
      "min": [
        2.384185791015625e-06,
        19.832210540771484,
        8.58306884765625e-06
      ],
      "type": "VEC3"
    },
    {
      "bufferView": 6,
      "byteOffset": 24936,
      "componentType": 5126,
      "count": 12,
      "max": [
        12.5
      ],
      "min": [
        0.0
      ],
      "type": "SCALAR"
    },
    {
      "bufferView": 7,
      "byteOffset": 40872,
      "componentType": 5126,
      "count": 12,
      "max": [
        1.0,
        1.0,
        0.9999998807907104
      ],
      "min": [
        0.9999998807907104,
        0.9999998211860657,
        0.9999998807907104
      ],
      "type": "VEC3"
    },
    {
      "bufferView": 6,
      "byteOffset": 24984,
      "componentType": 5126,
      "count": 541,
      "max": [
        12.5
      ],
      "min": [
        0.0
      ],
      "type": "SCALAR"
    },
    {
      "bufferView": 8,
      "byteOffset": 45248,
      "componentType": 5126,
      "count": 541,
      "max": [
        0.23934249579906464,
        0.43731948733329773,
        0.36747121810913086,
        0.9733847379684448
      ],
      "min": [
        -0.3899172246456146,
        -0.2605811059474945,
        -0.5353876948356628,
        0.7788953185081482
      ],
      "type": "VEC4"
    },
    {
      "bufferView": 6,
      "byteOffset": 27148,
      "componentType": 5126,
      "count": 398,
      "max": [
        12.5
      ],
      "min": [
        0.0
      ],
      "type": "SCALAR"
    },
    {
      "bufferView": 7,
      "byteOffset": 41016,
      "componentType": 5126,
      "count": 398,
      "max": [
        4.470348358154297e-07,
        29.455297470092773,
        2.3068236259859987e-05
      ],
      "min": [
        -1.1920928955078125e-07,
        29.45527458190918,
        -3.337860107421875e-06
      ],
      "type": "VEC3"
    },
    {
      "bufferView": 6,
      "byteOffset": 28740,
      "componentType": 5126,
      "count": 8,
      "max": [
        12.5
      ],
      "min": [
        0.0
      ],
      "type": "SCALAR"
    },
    {
      "bufferView": 7,
      "byteOffset": 45792,
      "componentType": 5126,
      "count": 8,
      "max": [
        1.0000001192092896,
        1.0000001192092896,
        1.0000001192092896
      ],
      "min": [
        0.9999998807907104,
        1.0000001192092896,
        1.0000001192092896
      ],
      "type": "VEC3"
    },
    {
      "bufferView": 6,
      "byteOffset": 28772,
      "componentType": 5126,
      "count": 398,
      "max": [
        12.5
      ],
      "min": [
        0.0
      ],
      "type": "SCALAR"
    },
    {
      "bufferView": 8,
      "byteOffset": 53904,
      "componentType": 5126,
      "count": 398,
      "max": [
        0.6079804301261902,
        0.44012245535850525,
        0.6443361043930054,
        -0.3575124442577362
      ],
      "min": [
        0.5465771555900574,
        0.3185161352157593,
        0.5174930095672607,
        -0.489795982837677
      ],
      "type": "VEC4"
    },
    {
      "bufferView": 6,
      "byteOffset": 30364,
      "componentType": 5126,
      "count": 376,
      "max": [
        12.5
      ],
      "min": [
        0.0
      ],
      "type": "SCALAR"
    },
    {
      "bufferView": 7,
      "byteOffset": 45888,
      "componentType": 5126,
      "count": 376,
      "max": [
        1.3828277587890625e-05,
        6.600574493408203,
        2.86102294921875e-06
      ],
      "min": [
        9.059906005859375e-06,
        6.600571632385254,
        -5.9604644775390625e-06
      ],
      "type": "VEC3"
    },
    {
      "bufferView": 6,
      "byteOffset": 31868,
      "componentType": 5126,
      "count": 8,
      "max": [
        12.5
      ],
      "min": [
        0.0
      ],
      "type": "SCALAR"
    },
    {
      "bufferView": 7,
      "byteOffset": 50400,
      "componentType": 5126,
      "count": 8,
      "max": [
        0.9999998807907104,
        1.0000001192092896,
        1.0000003576278687
      ],
      "min": [
        0.9999998807907104,
        0.9999999403953552,
        1.000000238418579
      ],
      "type": "VEC3"
    },
    {
      "bufferView": 6,
      "byteOffset": 31900,
      "componentType": 5126,
      "count": 376,
      "max": [
        12.5
      ],
      "min": [
        0.0
      ],
      "type": "SCALAR"
    },
    {
      "bufferView": 8,
      "byteOffset": 60272,
      "componentType": 5126,
      "count": 376,
      "max": [
        -0.771032452583313,
        -0.05116666108369827,
        -0.15410152077674866,
        0.6157463788986206
      ],
      "min": [
        -0.771032452583313,
        -0.051166683435440063,
        -0.15410153567790985,
        0.6157463788986206
      ],
      "type": "VEC4"
    },
    {
      "bufferView": 6,
      "byteOffset": 33404,
      "componentType": 5126,
      "count": 376,
      "max": [
        12.5
      ],
      "min": [
        0.0
      ],
      "type": "SCALAR"
    },
    {
      "bufferView": 7,
      "byteOffset": 50496,
      "componentType": 5126,
      "count": 376,
      "max": [
        -1.9073486328125e-06,
        12.994239807128906,
        3.814697265625e-06
      ],
      "min": [
        -2.47955322265625e-05,
        12.994220733642578,
        4.76837158203125e-07
      ],
      "type": "VEC3"
    },
    {
      "bufferView": 6,
      "byteOffset": 34908,
      "componentType": 5126,
      "count": 8,
      "max": [
        12.5
      ],
      "min": [
        0.0
      ],
      "type": "SCALAR"
    },
    {
      "bufferView": 7,
      "byteOffset": 55008,
      "componentType": 5126,
      "count": 8,
      "max": [
        1.0000001192092896,
        1.0,
        0.9999999403953552
      ],
      "min": [
        0.9999999403953552,
        0.9999999403953552,
        0.9999999403953552
      ],
      "type": "VEC3"
    },
    {
      "bufferView": 6,
      "byteOffset": 34940,
      "componentType": 5126,
      "count": 376,
      "max": [
        12.5
      ],
      "min": [
        0.0
      ],
      "type": "SCALAR"
    },
    {
      "bufferView": 8,
      "byteOffset": 66288,
      "componentType": 5126,
      "count": 376,
      "max": [
        -0.7720720767974854,
        -0.04192763939499855,
        -0.13048282265663147,
        0.6205812096595764
      ],
      "min": [
        -0.7720721364021301,
        -0.04192765802145004,
        -0.13048282265663147,
        0.6205811500549316
      ],
      "type": "VEC4"
    },
    {
      "bufferView": 6,
      "byteOffset": 36444,
      "componentType": 5126,
      "count": 418,
      "max": [
        12.5
      ],
      "min": [
        0.0
      ],
      "type": "SCALAR"
    },
    {
      "bufferView": 7,
      "byteOffset": 55104,
      "componentType": 5126,
      "count": 418,
      "max": [
        8.58306884765625e-06,
        31.189504623413086,
        -4.76837158203125e-07
      ],
      "min": [
        -3.814697265625e-06,
        31.189502716064453,
        -1.52587890625e-05
      ],
      "type": "VEC3"
    },
    {
      "bufferView": 6,
      "byteOffset": 38116,
      "componentType": 5126,
      "count": 6,
      "max": [
        12.5
      ],
      "min": [
        0.0
      ],
      "type": "SCALAR"
    },
    {
      "bufferView": 7,
      "byteOffset": 60120,
      "componentType": 5126,
      "count": 6,
      "max": [
        1.0,
        1.0,
        1.0000001192092896
      ],
      "min": [
        1.0,
        1.0,
        0.9999999403953552
      ],
      "type": "VEC3"
    },
    {
      "bufferView": 6,
      "byteOffset": 38140,
      "componentType": 5126,
      "count": 418,
      "max": [
        12.5
      ],
      "min": [
        0.0
      ],
      "type": "SCALAR"
    },
    {
      "bufferView": 8,
      "byteOffset": 72304,
      "componentType": 5126,
      "count": 418,
      "max": [
        0.017144082114100456,
        0.5339248776435852,
        0.2112315595149994,
        0.9841690063476563
      ],
      "min": [
        -0.18347476422786713,
        0.022695399820804596,
        -0.1339118927717209,
        0.842044472694397
      ],
      "type": "VEC4"
    },
    {
      "bufferView": 6,
      "byteOffset": 39812,
      "componentType": 5126,
      "count": 376,
      "max": [
        12.5
      ],
      "min": [
        0.0
      ],
      "type": "SCALAR"
    },
    {
      "bufferView": 7,
      "byteOffset": 60192,
      "componentType": 5126,
      "count": 376,
      "max": [
        1.9073486328125e-06,
        8.129283905029297,
        -1.6689300537109375e-06
      ],
      "min": [
        -7.152557373046875e-07,
        8.129274368286133,
        -1.7195940017700195e-05
      ],
      "type": "VEC3"
    },
    {
      "bufferView": 6,
      "byteOffset": 41316,
      "componentType": 5126,
      "count": 4,
      "max": [
        12.5
      ],
      "min": [
        0.0
      ],
      "type": "SCALAR"
    },
    {
      "bufferView": 7,
      "byteOffset": 64704,
      "componentType": 5126,
      "count": 4,
      "max": [
        1.0000001192092896,
        1.0,
        1.0000001192092896
      ],
      "min": [
        1.0,
        1.0,
        1.0
      ],
      "type": "VEC3"
    },
    {
      "bufferView": 6,
      "byteOffset": 41332,
      "componentType": 5126,
      "count": 352,
      "max": [
        12.5
      ],
      "min": [
        0.0
      ],
      "type": "SCALAR"
    },
    {
      "bufferView": 8,
      "byteOffset": 78992,
      "componentType": 5126,
      "count": 352,
      "max": [
        -0.44001880288124084,
        -0.5502032041549683,
        0.23380227386951447,
        0.6700718998908997
      ],
      "min": [
        -0.44001883268356323,
        -0.5502032041549683,
        0.23380224406719208,
        0.6700718998908997
      ],
      "type": "VEC4"
    },
    {
      "bufferView": 6,
      "byteOffset": 42740,
      "componentType": 5126,
      "count": 388,
      "max": [
        12.5
      ],
      "min": [
        0.0
      ],
      "type": "SCALAR"
    },
    {
      "bufferView": 7,
      "byteOffset": 64752,
      "componentType": 5126,
      "count": 388,
      "max": [
        8.58306884765625e-06,
        31.189504623413086,
        -4.76837158203125e-07
      ],
      "min": [
        -3.814697265625e-06,
        31.189502716064453,
        -1.52587890625e-05
      ],
      "type": "VEC3"
    },
    {
      "bufferView": 6,
      "byteOffset": 44292,
      "componentType": 5126,
      "count": 6,
      "max": [
        12.5
      ],
      "min": [
        0.0
      ],
      "type": "SCALAR"
    },
    {
      "bufferView": 7,
      "byteOffset": 69408,
      "componentType": 5126,
      "count": 6,
      "max": [
        1.0,
        0.9999999403953552,
        1.0
      ],
      "min": [
        1.0,
        0.9999998211860657,
        1.0
      ],
      "type": "VEC3"
    },
    {
      "bufferView": 6,
      "byteOffset": 44316,
      "componentType": 5126,
      "count": 380,
      "max": [
        12.5
      ],
      "min": [
        0.0
      ],
      "type": "SCALAR"
    },
    {
      "bufferView": 8,
      "byteOffset": 84624,
      "componentType": 5126,
      "count": 380,
      "max": [
        0.16989868879318237,
        -0.31429222226142883,
        0.5575594902038574,
        0.9031384587287903
      ],
      "min": [
        -0.17218008637428284,
        -0.636082112789154,
        0.2381087690591812,
        0.5460593104362488
      ],
      "type": "VEC4"
    },
    {
      "bufferView": 6,
      "byteOffset": 45836,
      "componentType": 5126,
      "count": 475,
      "max": [
        12.5
      ],
      "min": [
        0.0
      ],
      "type": "SCALAR"
    },
    {
      "bufferView": 7,
      "byteOffset": 69480,
      "componentType": 5126,
      "count": 475,
      "max": [
        1.430511474609375e-06,
        33.2109375,
        -2.86102294921875e-06
      ],
      "min": [
        -1.33514404296875e-05,
        33.210914611816406,
        -1.1444091796875e-05
      ],
      "type": "VEC3"
    },
    {
      "bufferView": 6,
      "byteOffset": 47736,
      "componentType": 5126,
      "count": 4,
      "max": [
        12.5
      ],
      "min": [
        0.0
      ],
      "type": "SCALAR"
    },
    {
      "bufferView": 7,
      "byteOffset": 75180,
      "componentType": 5126,
      "count": 4,
      "max": [
        1.0000001192092896,
        1.000000238418579,
        1.0
      ],
      "min": [
        1.0000001192092896,
        1.0000001192092896,
        1.0
      ],
      "type": "VEC3"
    },
    {
      "bufferView": 6,
      "byteOffset": 47752,
      "componentType": 5126,
      "count": 475,
      "max": [
        12.5
      ],
      "min": [
        0.0
      ],
      "type": "SCALAR"
    },
    {
      "bufferView": 8,
      "byteOffset": 90704,
      "componentType": 5126,
      "count": 475,
      "max": [
        0.20868107676506042,
        0.1375315934419632,
        0.6338140368461609,
        0.9430627226829529
      ],
      "min": [
        -0.08249429613351822,
        -0.08898601680994034,
        0.31338071823120117,
        0.7319952249526978
      ],
      "type": "VEC4"
    },
    {
      "bufferView": 6,
      "byteOffset": 49652,
      "componentType": 5126,
      "count": 547,
      "max": [
        12.5
      ],
      "min": [
        0.0
      ],
      "type": "SCALAR"
    },
    {
      "bufferView": 7,
      "byteOffset": 75228,
      "componentType": 5126,
      "count": 547,
      "max": [
        3.159046173095703e-05,
        22.60257339477539,
        -9.5367431640625e-06
      ],
      "min": [
        3.337860107421875e-06,
        22.602571487426758,
        -3.886222839355469e-05
      ],
      "type": "VEC3"
    },
    {
      "bufferView": 6,
      "byteOffset": 51840,
      "componentType": 5126,
      "count": 5,
      "max": [
        12.5
      ],
      "min": [
        0.0
      ],
      "type": "SCALAR"
    },
    {
      "bufferView": 7,
      "byteOffset": 81792,
      "componentType": 5126,
      "count": 5,
      "max": [
        1.0,
        0.9999999403953552,
        1.0
      ],
      "min": [
        1.0,
        0.9999998807907104,
        0.9999999403953552
      ],
      "type": "VEC3"
    },
    {
      "bufferView": 6,
      "byteOffset": 51860,
      "componentType": 5126,
      "count": 547,
      "max": [
        12.5
      ],
      "min": [
        0.0
      ],
      "type": "SCALAR"
    },
    {
      "bufferView": 8,
      "byteOffset": 98304,
      "componentType": 5126,
      "count": 547,
      "max": [
        -0.16370955109596252,
        0.3528912365436554,
        0.4453708529472351,
        0.9754472374916077
      ],
      "min": [
        -0.40838882327079773,
        -0.44138404726982117,
        -0.3544105291366577,
        0.7452100515365601
      ],
      "type": "VEC4"
    },
    {
      "bufferView": 6,
      "byteOffset": 54048,
      "componentType": 5126,
      "count": 423,
      "max": [
        12.5
      ],
      "min": [
        0.0
      ],
      "type": "SCALAR"
    },
    {
      "bufferView": 7,
      "byteOffset": 81852,
      "componentType": 5126,
      "count": 423,
      "max": [
        4.470348358154297e-07,
        29.455297470092773,
        2.3068236259859987e-05
      ],
      "min": [
        -1.1920928955078125e-07,
        29.45527458190918,
        -3.337860107421875e-06
      ],
      "type": "VEC3"
    },
    {
      "bufferView": 6,
      "byteOffset": 55740,
      "componentType": 5126,
      "count": 8,
      "max": [
        12.5
      ],
      "min": [
        0.0
      ],
      "type": "SCALAR"
    },
    {
      "bufferView": 7,
      "byteOffset": 86928,
      "componentType": 5126,
      "count": 8,
      "max": [
        1.0,
        1.0,
        1.0
      ],
      "min": [
        0.9999998807907104,
        0.9999999403953552,
        0.9999998807907104
      ],
      "type": "VEC3"
    },
    {
      "bufferView": 6,
      "byteOffset": 55772,
      "componentType": 5126,
      "count": 423,
      "max": [
        12.5
      ],
      "min": [
        0.0
      ],
      "type": "SCALAR"
    },
    {
      "bufferView": 8,
      "byteOffset": 107056,
      "componentType": 5126,
      "count": 423,
      "max": [
        0.5509604811668396,
        0.4176905155181885,
        0.6385787129402161,
        0.4633791744709015
      ],
      "min": [
        -0.6055605411529541,
        -0.45613381266593933,
        -0.5506703853607178,
        -0.4944765567779541
      ],
      "type": "VEC4"
    },
    {
      "bufferView": 6,
      "byteOffset": 57464,
      "componentType": 5126,
      "count": 86,
      "max": [
        12.5
      ],
      "min": [
        0.0
      ],
      "type": "SCALAR"
    },
    {
      "bufferView": 7,
      "byteOffset": 87024,
      "componentType": 5126,
      "count": 86,
      "max": [
        0.15550576150417328,
        4.1887006759643555,
        -8.212913513183594
      ],
      "min": [
        0.1555054634809494,
        4.188697814941406,
        -8.212928771972656
      ],
      "type": "VEC3"
    },
    {
      "bufferView": 6,
      "byteOffset": 57808,
      "componentType": 5126,
      "count": 520,
      "max": [
        12.5
      ],
      "min": [
        0.0
      ],
      "type": "SCALAR"
    },
    {
      "bufferView": 8,
      "byteOffset": 113824,
      "componentType": 5126,
      "count": 520,
      "max": [
        0.3417041301727295,
        0.8512119650840759,
        0.7969143390655518,
        0.21608102321624756
      ],
      "min": [
        -0.2112693339586258,
        -0.7051792144775391,
        -0.7054358720779419,
        -0.20895081758499146
      ],
      "type": "VEC4"
    },
    {
      "bufferView": 6,
      "byteOffset": 59888,
      "componentType": 5126,
      "count": 507,
      "max": [
        12.5
      ],
      "min": [
        0.0
      ],
      "type": "SCALAR"
    },
    {
      "bufferView": 7,
      "byteOffset": 88056,
      "componentType": 5126,
      "count": 507,
      "max": [
        5.248002707958221e-07,
        14.728231430053711,
        5.31680416315794e-06
      ],
      "min": [
        -3.5762786865234375e-07,
        14.728192329406738,
        -2.440238677081652e-05
      ],
      "type": "VEC3"
    },
    {
      "bufferView": 6,
      "byteOffset": 61916,
      "componentType": 5126,
      "count": 8,
      "max": [
        12.5
      ],
      "min": [
        0.0
      ],
      "type": "SCALAR"
    },
    {
      "bufferView": 7,
      "byteOffset": 94140,
      "componentType": 5126,
      "count": 8,
      "max": [
        0.9999999403953552,
        1.0000001192092896,
        1.0
      ],
      "min": [
        0.9999999403953552,
        0.9999999403953552,
        0.9999999403953552
      ],
      "type": "VEC3"
    },
    {
      "bufferView": 6,
      "byteOffset": 61948,
      "componentType": 5126,
      "count": 507,
      "max": [
        12.5
      ],
      "min": [
        0.0
      ],
      "type": "SCALAR"
    },
    {
      "bufferView": 8,
      "byteOffset": 122144,
      "componentType": 5126,
      "count": 507,
      "max": [
        0.4776015877723694,
        0.0054371715523302555,
        0.01206750888377428,
        0.9829391837120056
      ],
      "min": [
        0.18356183171272278,
        0.0019981630612164736,
        0.009510183706879616,
        0.8784993290901184
      ],
      "type": "VEC4"
    },
    {
      "bufferView": 6,
      "byteOffset": 63976,
      "componentType": 5126,
      "count": 513,
      "max": [
        12.5
      ],
      "min": [
        0.0
      ],
      "type": "SCALAR"
    },
    {
      "bufferView": 7,
      "byteOffset": 94236,
      "componentType": 5126,
      "count": 513,
      "max": [
        -0.027243047952651978,
        31.79463005065918,
        0.07932299375534058
      ],
      "min": [
        -0.02724313735961914,
        31.79460334777832,
        0.07930803298950195
      ],
      "type": "VEC3"
    },
    {
      "bufferView": 6,
      "byteOffset": 66028,
      "componentType": 5126,
      "count": 13,
      "max": [
        12.5
      ],
      "min": [
        0.0
      ],
      "type": "SCALAR"
    },
    {
      "bufferView": 7,
      "byteOffset": 100392,
      "componentType": 5126,
      "count": 13,
      "max": [
        1.0,
        0.9999999403953552,
        1.0
      ],
      "min": [
        0.9999999403953552,
        0.9999997615814209,
        0.9999998807907104
      ],
      "type": "VEC3"
    },
    {
      "bufferView": 6,
      "byteOffset": 66080,
      "componentType": 5126,
      "count": 513,
      "max": [
        12.5
      ],
      "min": [
        0.0
      ],
      "type": "SCALAR"
    },
    {
      "bufferView": 8,
      "byteOffset": 130256,
      "componentType": 5126,
      "count": 513,
      "max": [
        0.08657671511173248,
        0.9894046783447266,
        0.4469662308692932,
        0.0008013345068320632
      ],
      "min": [
        -0.02063942328095436,
        0.8944346308708191,
        0.14414715766906738,
        -0.0783999115228653
      ],
      "type": "VEC4"
    },
    {
      "bufferView": 6,
      "byteOffset": 68132,
      "componentType": 5126,
      "count": 507,
      "max": [
        12.5
      ],
      "min": [
        0.0
      ],
      "type": "SCALAR"
    },
    {
      "bufferView": 7,
      "byteOffset": 100548,
      "componentType": 5126,
      "count": 507,
      "max": [
        6.847488407402125e-07,
        29.72701644897461,
        1.8477439880371094e-06
      ],
      "min": [
        -9.39919253539756e-11,
        29.727008819580078,
        -1.9077767774433596e-06
      ],
      "type": "VEC3"
    },
    {
      "bufferView": 6,
      "byteOffset": 70160,
      "componentType": 5126,
      "count": 9,
      "max": [
        12.5
      ],
      "min": [
        0.0
      ],
      "type": "SCALAR"
    },
    {
      "bufferView": 7,
      "byteOffset": 106632,
      "componentType": 5126,
      "count": 9,
      "max": [
        0.9999999403953552,
        1.0,
        1.0
      ],
      "min": [
        0.9999998807907104,
        0.9999998211860657,
        0.9999999403953552
      ],
      "type": "VEC3"
    },
    {
      "bufferView": 6,
      "byteOffset": 70196,
      "componentType": 5126,
      "count": 507,
      "max": [
        12.5
      ],
      "min": [
        0.0
      ],
      "type": "SCALAR"
    },
    {
      "bufferView": 8,
      "byteOffset": 138464,
      "componentType": 5126,
      "count": 507,
      "max": [
        0.2950291931629181,
        0.0017285116482526064,
        -0.0055597806349396706,
        0.9999830722808838
      ],
      "min": [
        -0.09002020210027695,
        -0.0024341470561921597,
        -0.012872579507529736,
        0.9554705023765564
      ],
      "type": "VEC4"
    },
    {
      "bufferView": 6,
      "byteOffset": 72224,
      "componentType": 5126,
      "count": 542,
      "max": [
        12.5
      ],
      "min": [
        0.0
      ],
      "type": "SCALAR"
    },
    {
      "bufferView": 7,
      "byteOffset": 106740,
      "componentType": 5126,
      "count": 542,
      "max": [
        7.152557373046875e-07,
        29.310976028442383,
        1.1920928955078125e-06
      ],
      "min": [
        -3.7535173760261387e-06,
        29.310964584350586,
        -4.0826789700076915e-06
      ],
      "type": "VEC3"
    },
    {
      "bufferView": 6,
      "byteOffset": 74392,
      "componentType": 5126,
      "count": 4,
      "max": [
        12.5
      ],
      "min": [
        0.0
      ],
      "type": "SCALAR"
    },
    {
      "bufferView": 7,
      "byteOffset": 113244,
      "componentType": 5126,
      "count": 4,
      "max": [
        1.0000001192092896,
        1.0000001192092896,
        1.0000001192092896
      ],
      "min": [
        1.0,
        1.0000001192092896,
        1.0
      ],
      "type": "VEC3"
    },
    {
      "bufferView": 6,
      "byteOffset": 74408,
      "componentType": 5126,
      "count": 542,
      "max": [
        12.5
      ],
      "min": [
        0.0
      ],
      "type": "SCALAR"
    },
    {
      "bufferView": 8,
      "byteOffset": 146576,
      "componentType": 5126,
      "count": 542,
      "max": [
        0.07673587650060654,
        0.8936284780502319,
        0.9553650617599487,
        0.0007944782846607268
      ],
      "min": [
        -0.0010148006258532405,
        -0.7052478790283203,
        -0.7063553929328918,
        -0.03580557182431221
      ],
      "type": "VEC4"
    },
    {
      "bufferView": 6,
      "byteOffset": 76576,
      "componentType": 5126,
      "count": 595,
      "max": [
        12.5
      ],
      "min": [
        0.0
      ],
      "type": "SCALAR"
    },
    {
      "bufferView": 7,
      "byteOffset": 113292,
      "componentType": 5126,
      "count": 595,
      "max": [
        -3.552713678800501e-15,
        28.997333526611328,
        -1.0945368558168411e-06
      ],
      "min": [
        -1.1044905079415912e-07,
        28.997289657592773,
        -1.1920928955078125e-06
      ],
      "type": "VEC3"
    },
    {
      "bufferView": 6,
      "byteOffset": 78956,
      "componentType": 5126,
      "count": 4,
      "max": [
        12.5
      ],
      "min": [
        0.0
      ],
      "type": "SCALAR"
    },
    {
      "bufferView": 7,
      "byteOffset": 120432,
      "componentType": 5126,
      "count": 4,
      "max": [
        0.9999998807907104,
        1.0,
        1.0
      ],
      "min": [
        0.9999998211860657,
        0.9999999403953552,
        0.9999999403953552
      ],
      "type": "VEC3"
    },
    {
      "bufferView": 6,
      "byteOffset": 78972,
      "componentType": 5126,
      "count": 595,
      "max": [
        12.5
      ],
      "min": [
        0.0
      ],
      "type": "SCALAR"
    },
    {
      "bufferView": 8,
      "byteOffset": 155248,
      "componentType": 5126,
      "count": 595,
      "max": [
        0.5938001871109009,
        -0.1896919310092926,
        0.5662741661071777,
        0.7396825551986694
      ],
      "min": [
        0.019529277458786964,
        -0.7056707143783569,
        0.04494219273328781,
        0.5106386542320251
      ],
      "type": "VEC4"
    },
    {
      "bufferView": 6,
      "byteOffset": 81352,
      "componentType": 5126,
      "count": 555,
      "max": [
        12.5
      ],
      "min": [
        0.0
      ],
      "type": "SCALAR"
    },
    {
      "bufferView": 7,
      "byteOffset": 120480,
      "componentType": 5126,
      "count": 555,
      "max": [
        -4.76837158203125e-07,
        22.74949836730957,
        1.430511474609375e-06
      ],
      "min": [
        -9.840990969678387e-06,
        22.749469757080078,
        -7.917437869764399e-07
      ],
      "type": "VEC3"
    },
    {
      "bufferView": 6,
      "byteOffset": 83572,
      "componentType": 5126,
      "count": 555,
      "max": [
        12.5
      ],
      "min": [
        0.0
      ],
      "type": "SCALAR"
    },
    {
      "bufferView": 8,
      "byteOffset": 164768,
      "componentType": 5126,
      "count": 555,
      "max": [
        -0.12000139057636261,
        0.0445546880364418,
        0.11094662547111511,
        0.9905121922492981
      ],
      "min": [
        -0.34429386258125305,
        -0.19285863637924194,
        -0.17483103275299072,
        0.9261911511421204
      ],
      "type": "VEC4"
    },
    {
      "bufferView": 6,
      "byteOffset": 85792,
      "componentType": 5126,
      "count": 583,
      "max": [
        12.5
      ],
      "min": [
        0.0
      ],
      "type": "SCALAR"
    },
    {
      "bufferView": 7,
      "byteOffset": 127140,
      "componentType": 5126,
      "count": 583,
      "max": [
        0.23049591481685638,
        2.03659725189209,
        0.7234153747558594
      ],
      "min": [
        -0.3635212481021881,
        -0.8236410617828369,
        -2.136756658554077
      ],
      "type": "VEC3"
    },
    {
      "bufferView": 6,
      "byteOffset": 88124,
      "componentType": 5126,
      "count": 4,
      "max": [
        12.5
      ],
      "min": [
        0.0
      ],
      "type": "SCALAR"
    },
    {
      "bufferView": 7,
      "byteOffset": 134136,
      "componentType": 5126,
      "count": 4,
      "max": [
        1.0000007152557373,
        1.0000003576278687,
        1.000000238418579
      ],
      "min": [
        1.0000007152557373,
        1.000000238418579,
        1.0000001192092896
      ],
      "type": "VEC3"
    },
    {
      "bufferView": 6,
      "byteOffset": 88140,
      "componentType": 5126,
      "count": 583,
      "max": [
        12.5
      ],
      "min": [
        0.0
      ],
      "type": "SCALAR"
    },
    {
      "bufferView": 8,
      "byteOffset": 173648,
      "componentType": 5126,
      "count": 583,
      "max": [
        0.7802150845527649,
        0.6978561878204346,
        0.6644489169120789,
        0.4377833902835846
      ],
      "min": [
        0.5541691780090332,
        0.23931391537189484,
        0.07655148208141327,
        -0.2676602900028229
      ],
      "type": "VEC4"
    },
    {
      "bufferView": 6,
      "byteOffset": 90472,
      "componentType": 5126,
      "count": 556,
      "max": [
        12.5
      ],
      "min": [
        0.0
      ],
      "type": "SCALAR"
    },
    {
      "bufferView": 7,
      "byteOffset": 134184,
      "componentType": 5126,
      "count": 556,
      "max": [
        2.5558704237482743e-06,
        29.310972213745117,
        0.0
      ],
      "min": [
        5.066394805908203e-07,
        29.310958862304688,
        -9.958850569091737e-06
      ],
      "type": "VEC3"
    },
    {
      "bufferView": 6,
      "byteOffset": 92696,
      "componentType": 5126,
      "count": 22,
      "max": [
        12.5
      ],
      "min": [
        0.0
      ],
      "type": "SCALAR"
    },
    {
      "bufferView": 7,
      "byteOffset": 140856,
      "componentType": 5126,
      "count": 22,
      "max": [
        1.0,
        1.000000238418579,
        1.0000001192092896
      ],
      "min": [
        0.9999998211860657,
        1.0,
        0.9999997019767761
      ],
      "type": "VEC3"
    },
    {
      "bufferView": 6,
      "byteOffset": 92784,
      "componentType": 5126,
      "count": 556,
      "max": [
        12.5
      ],
      "min": [
        0.0
      ],
      "type": "SCALAR"
    },
    {
      "bufferView": 8,
      "byteOffset": 182976,
      "componentType": 5126,
      "count": 556,
      "max": [
        0.019051820039749146,
        0.8761838674545288,
        0.9571484923362732,
        0.0489700548350811
      ],
      "min": [
        -0.048450227826833725,
        -0.7039706707000732,
        -0.7052745819091797,
        -0.012550347484648228
      ],
      "type": "VEC4"
    },
    {
      "bufferView": 6,
      "byteOffset": 95008,
      "componentType": 5126,
      "count": 594,
      "max": [
        12.5
      ],
      "min": [
        0.0
      ],
      "type": "SCALAR"
    },
    {
      "bufferView": 7,
      "byteOffset": 141120,
      "componentType": 5126,
      "count": 594,
      "max": [
        -4.470348358154297e-07,
        28.981908798217773,
        3.100605681538582e-06
      ],
      "min": [
        -1.1787473340518773e-05,
        28.981891632080078,
        1.6689300537109375e-06
      ],
      "type": "VEC3"
    },
    {
      "bufferView": 6,
      "byteOffset": 97384,
      "componentType": 5126,
      "count": 8,
      "max": [
        12.5
      ],
      "min": [
        0.0
      ],
      "type": "SCALAR"
    },
    {
      "bufferView": 7,
      "byteOffset": 148248,
      "componentType": 5126,
      "count": 8,
      "max": [
        1.0,
        0.9999999403953552,
        1.0
      ],
      "min": [
        1.0,
        0.9999998211860657,
        0.9999999403953552
      ],
      "type": "VEC3"
    },
    {
      "bufferView": 6,
      "byteOffset": 97416,
      "componentType": 5126,
      "count": 594,
      "max": [
        12.5
      ],
      "min": [
        0.0
      ],
      "type": "SCALAR"
    },
    {
      "bufferView": 8,
      "byteOffset": 191872,
      "componentType": 5126,
      "count": 594,
      "max": [
        0.5765967965126038,
        0.7395215034484863,
        0.6773523092269897,
        0.7061352729797363
      ],
      "min": [
        -0.5634548664093018,
        -0.740766167640686,
        -0.5638457536697388,
        -0.49636682868003845
      ],
      "type": "VEC4"
    },
    {
      "bufferView": 6,
      "byteOffset": 99792,
      "componentType": 5126,
      "count": 593,
      "max": [
        12.5
      ],
      "min": [
        0.0
      ],
      "type": "SCALAR"
    },
    {
      "bufferView": 7,
      "byteOffset": 148344,
      "componentType": 5126,
      "count": 593,
      "max": [
        -4.76837158203125e-07,
        23.699460983276367,
        -2.6226043701171875e-06
      ],
      "min": [
        -2.0327421225374565e-05,
        23.69945526123047,
        -2.5388624635525048e-05
      ],
      "type": "VEC3"
    },
    {
      "bufferView": 6,
      "byteOffset": 102164,
      "componentType": 5126,
      "count": 5,
      "max": [
        12.5
      ],
      "min": [
        0.0
      ],
      "type": "SCALAR"
    },
    {
      "bufferView": 7,
      "byteOffset": 155460,
      "componentType": 5126,
      "count": 5,
      "max": [
        1.0,
        0.9999998211860657,
        1.0
      ],
      "min": [
        0.9999999403953552,
        0.9999997615814209,
        0.9999999403953552
      ],
      "type": "VEC3"
    },
    {
      "bufferView": 6,
      "byteOffset": 102184,
      "componentType": 5126,
      "count": 593,
      "max": [
        12.5
      ],
      "min": [
        0.0
      ],
      "type": "SCALAR"
    },
    {
      "bufferView": 8,
      "byteOffset": 201376,
      "componentType": 5126,
      "count": 593,
      "max": [
        0.12057851999998093,
        0.9886259436607361,
        -0.13322609663009644,
        0.04997994378209114
      ],
      "min": [
        -0.17054811120033264,
        0.9139536619186401,
        -0.3749174177646637,
        -0.19626185297966003
      ],
      "type": "VEC4"
    },
    {
      "bufferView": 6,
      "byteOffset": 104556,
      "componentType": 5126,
      "count": 601,
      "max": [
        12.5
      ],
      "min": [
        0.0
      ],
      "type": "SCALAR"
    },
    {
      "bufferView": 7,
      "byteOffset": 155520,
      "componentType": 5126,
      "count": 601,
      "max": [
        0.22828549146652222,
        2.03659725189209,
        0.723480224609375
      ],
      "min": [
        -0.36352452635765076,
        -0.8236691951751709,
        -2.1367557048797607
      ],
      "type": "VEC3"
    },
    {
      "bufferView": 6,
      "byteOffset": 106960,
      "componentType": 5126,
      "count": 5,
      "max": [
        12.5
      ],
      "min": [
        0.0
      ],
      "type": "SCALAR"
    },
    {
      "bufferView": 7,
      "byteOffset": 162732,
      "componentType": 5126,
      "count": 5,
      "max": [
        1.000000238418579,
        1.0000001192092896,
        1.0
      ],
      "min": [
        1.000000238418579,
        1.0,
        0.9999999403953552
      ],
      "type": "VEC3"
    },
    {
      "bufferView": 6,
      "byteOffset": 106980,
      "componentType": 5126,
      "count": 601,
      "max": [
        12.5
      ],
      "min": [
        0.0
      ],
      "type": "SCALAR"
    },
    {
      "bufferView": 8,
      "byteOffset": 210864,
      "componentType": 5126,
      "count": 601,
      "max": [
        0.7661296725273132,
        0.6984665989875793,
        0.6633485555648804,
        0.36927303671836853
      ],
      "min": [
        -0.6605332493782043,
        -0.644384503364563,
        -0.6604458093643188,
        -0.4232785105705261
      ],
      "type": "VEC4"
    },
    {
      "bufferView": 6,
      "byteOffset": 109384,
      "componentType": 5126,
      "count": 533,
      "max": [
        12.5
      ],
      "min": [
        0.0
      ],
      "type": "SCALAR"
    },
    {
      "bufferView": 7,
      "byteOffset": 162792,
      "componentType": 5126,
      "count": 533,
      "max": [
        116.3759994506836,
        0.005343593191355467,
        291.1427001953125
      ],
      "min": [
        -5.610333442687988,
        0.005343593191355467,
        69.8721694946289
      ],
      "type": "VEC3"
    },
    {
      "bufferView": 6,
      "byteOffset": 111516,
      "componentType": 5126,
      "count": 4,
      "max": [
        12.5
      ],
      "min": [
        0.0
      ],
      "type": "SCALAR"
    },
    {
      "bufferView": 7,
      "byteOffset": 169188,
      "componentType": 5126,
      "count": 4,
      "max": [
        1.0,
        1.000000238418579,
        1.0000001192092896
      ],
      "min": [
        1.0,
        1.000000238418579,
        1.0
      ],
      "type": "VEC3"
    },
    {
      "bufferView": 6,
      "byteOffset": 111532,
      "componentType": 5126,
      "count": 592,
      "max": [
        12.5
      ],
      "min": [
        0.0
      ],
      "type": "SCALAR"
    },
    {
      "bufferView": 8,
      "byteOffset": 220480,
      "componentType": 5126,
      "count": 592,
      "max": [
        0.6997857689857483,
        0.6997630596160889,
        0.5003261566162109,
        0.5003748536109924
      ],
      "min": [
        0.4996735751628876,
        0.49188607931137085,
        0.10156499594449997,
        0.10156828910112381
      ],
      "type": "VEC4"
    }
  ],
  "animations": [
    {
      "channels": [
        {
          "sampler": 0,
          "target": {
            "node": 14,
            "path": "translation"
          }
        },
        {
          "sampler": 1,
          "target": {
            "node": 14,
            "path": "scale"
          }
        },
        {
          "sampler": 2,
          "target": {
            "node": 14,
            "path": "rotation"
          }
        },
        {
          "sampler": 3,
          "target": {
            "node": 13,
            "path": "translation"
          }
        },
        {
          "sampler": 4,
          "target": {
            "node": 13,
            "path": "scale"
          }
        },
        {
          "sampler": 5,
          "target": {
            "node": 13,
            "path": "rotation"
          }
        },
        {
          "sampler": 6,
          "target": {
            "node": 12,
            "path": "translation"
          }
        },
        {
          "sampler": 7,
          "target": {
            "node": 12,
            "path": "scale"
          }
        },
        {
          "sampler": 8,
          "target": {
            "node": 12,
            "path": "rotation"
          }
        },
        {
          "sampler": 9,
          "target": {
            "node": 16,
            "path": "translation"
          }
        },
        {
          "sampler": 10,
          "target": {
            "node": 16,
            "path": "rotation"
          }
        },
        {
          "sampler": 11,
          "target": {
            "node": 15,
            "path": "translation"
          }
        },
        {
          "sampler": 12,
          "target": {
            "node": 15,
            "path": "scale"
          }
        },
        {
          "sampler": 13,
          "target": {
            "node": 15,
            "path": "rotation"
          }
        },
        {
          "sampler": 14,
          "target": {
            "node": 11,
            "path": "translation"
          }
        },
        {
          "sampler": 15,
          "target": {
            "node": 11,
            "path": "scale"
          }
        },
        {
          "sampler": 16,
          "target": {
            "node": 11,
            "path": "rotation"
          }
        },
        {
          "sampler": 17,
          "target": {
            "node": 10,
            "path": "translation"
          }
        },
        {
          "sampler": 18,
          "target": {
            "node": 10,
            "path": "scale"
          }
        },
        {
          "sampler": 19,
          "target": {
            "node": 10,
            "path": "rotation"
          }
        },
        {
          "sampler": 20,
          "target": {
            "node": 9,
            "path": "translation"
          }
        },
        {
          "sampler": 21,
          "target": {
            "node": 9,
            "path": "scale"
          }
        },
        {
          "sampler": 22,
          "target": {
            "node": 9,
            "path": "rotation"
          }
        },
        {
          "sampler": 23,
          "target": {
            "node": 22,
            "path": "translation"
          }
        },
        {
          "sampler": 24,
          "target": {
            "node": 22,
            "path": "scale"
          }
        },
        {
          "sampler": 25,
          "target": {
            "node": 22,
            "path": "rotation"
          }
        },
        {
          "sampler": 26,
          "target": {
            "node": 21,
            "path": "translation"
          }
        },
        {
          "sampler": 27,
          "target": {
            "node": 21,
            "path": "scale"
          }
        },
        {
          "sampler": 28,
          "target": {
            "node": 21,
            "path": "rotation"
          }
        },
        {
          "sampler": 29,
          "target": {
            "node": 20,
            "path": "translation"
          }
        },
        {
          "sampler": 30,
          "target": {
            "node": 20,
            "path": "scale"
          }
        },
        {
          "sampler": 31,
          "target": {
            "node": 20,
            "path": "rotation"
          }
        },
        {
          "sampler": 32,
          "target": {
            "node": 24,
            "path": "translation"
          }
        },
        {
          "sampler": 33,
          "target": {
            "node": 24,
            "path": "scale"
          }
        },
        {
          "sampler": 34,
          "target": {
            "node": 24,
            "path": "rotation"
          }
        },
        {
          "sampler": 35,
          "target": {
            "node": 23,
            "path": "translation"
          }
        },
        {
          "sampler": 36,
          "target": {
            "node": 23,
            "path": "scale"
          }
        },
        {
          "sampler": 37,
          "target": {
            "node": 23,
            "path": "rotation"
          }
        },
        {
          "sampler": 38,
          "target": {
            "node": 19,
            "path": "translation"
          }
        },
        {
          "sampler": 39,
          "target": {
            "node": 19,
            "path": "scale"
          }
        },
        {
          "sampler": 40,
          "target": {
            "node": 19,
            "path": "rotation"
          }
        },
        {
          "sampler": 41,
          "target": {
            "node": 18,
            "path": "translation"
          }
        },
        {
          "sampler": 42,
          "target": {
            "node": 18,
            "path": "scale"
          }
        },
        {
          "sampler": 43,
          "target": {
            "node": 18,
            "path": "rotation"
          }
        },
        {
          "sampler": 44,
          "target": {
            "node": 17,
            "path": "translation"
          }
        },
        {
          "sampler": 45,
          "target": {
            "node": 17,
            "path": "scale"
          }
        },
        {
          "sampler": 46,
          "target": {
            "node": 17,
            "path": "rotation"
          }
        },
        {
          "sampler": 47,
          "target": {
            "node": 27,
            "path": "translation"
          }
        },
        {
          "sampler": 48,
          "target": {
            "node": 27,
            "path": "rotation"
          }
        },
        {
          "sampler": 49,
          "target": {
            "node": 26,
            "path": "translation"
          }
        },
        {
          "sampler": 50,
          "target": {
            "node": 26,
            "path": "scale"
          }
        },
        {
          "sampler": 51,
          "target": {
            "node": 26,
            "path": "rotation"
          }
        },
        {
          "sampler": 52,
          "target": {
            "node": 25,
            "path": "translation"
          }
        },
        {
          "sampler": 53,
          "target": {
            "node": 25,
            "path": "scale"
          }
        },
        {
          "sampler": 54,
          "target": {
            "node": 25,
            "path": "rotation"
          }
        },
        {
          "sampler": 55,
          "target": {
            "node": 8,
            "path": "translation"
          }
        },
        {
          "sampler": 56,
          "target": {
            "node": 8,
            "path": "scale"
          }
        },
        {
          "sampler": 57,
          "target": {
            "node": 8,
            "path": "rotation"
          }
        },
        {
          "sampler": 58,
          "target": {
            "node": 31,
            "path": "translation"
          }
        },
        {
          "sampler": 59,
          "target": {
            "node": 31,
            "path": "scale"
          }
        },
        {
          "sampler": 60,
          "target": {
            "node": 31,
            "path": "rotation"
          }
        },
        {
          "sampler": 61,
          "target": {
            "node": 30,
            "path": "translation"
          }
        },
        {
          "sampler": 62,
          "target": {
            "node": 30,
            "path": "scale"
          }
        },
        {
          "sampler": 63,
          "target": {
            "node": 30,
            "path": "rotation"
          }
        },
        {
          "sampler": 64,
          "target": {
            "node": 29,
            "path": "translation"
          }
        },
        {
          "sampler": 65,
          "target": {
            "node": 29,
            "path": "rotation"
          }
        },
        {
          "sampler": 66,
          "target": {
            "node": 28,
            "path": "translation"
          }
        },
        {
          "sampler": 67,
          "target": {
            "node": 28,
            "path": "scale"
          }
        },
        {
          "sampler": 68,
          "target": {
            "node": 28,
            "path": "rotation"
          }
        },
        {
          "sampler": 69,
          "target": {
            "node": 35,
            "path": "translation"
          }
        },
        {
          "sampler": 70,
          "target": {
            "node": 35,
            "path": "scale"
          }
        },
        {
          "sampler": 71,
          "target": {
            "node": 35,
            "path": "rotation"
          }
        },
        {
          "sampler": 72,
          "target": {
            "node": 34,
            "path": "translation"
          }
        },
        {
          "sampler": 73,
          "target": {
            "node": 34,
            "path": "scale"
          }
        },
        {
          "sampler": 74,
          "target": {
            "node": 34,
            "path": "rotation"
          }
        },
        {
          "sampler": 75,
          "target": {
            "node": 33,
            "path": "translation"
          }
        },
        {
          "sampler": 76,
          "target": {
            "node": 33,
            "path": "scale"
          }
        },
        {
          "sampler": 77,
          "target": {
            "node": 33,
            "path": "rotation"
          }
        },
        {
          "sampler": 78,
          "target": {
            "node": 32,
            "path": "translation"
          }
        },
        {
          "sampler": 79,
          "target": {
            "node": 32,
            "path": "scale"
          }
        },
        {
          "sampler": 80,
          "target": {
            "node": 32,
            "path": "rotation"
          }
        },
        {
          "sampler": 81,
          "target": {
            "node": 7,
            "path": "translation"
          }
        },
        {
          "sampler": 82,
          "target": {
            "node": 7,
            "path": "scale"
          }
        },
        {
          "sampler": 83,
          "target": {
            "node": 7,
            "path": "rotation"
          }
        }
      ],
      "name": "Armature|ArmatureAction",
      "samplers": [
        {
          "input": 37,
          "interpolation": "LINEAR",
          "output": 38
        },
        {
          "input": 39,
          "interpolation": "LINEAR",
          "output": 40
        },
        {
          "input": 41,
          "interpolation": "LINEAR",
          "output": 42
        },
        {
          "input": 43,
          "interpolation": "LINEAR",
          "output": 44
        },
        {
          "input": 45,
          "interpolation": "LINEAR",
          "output": 46
        },
        {
          "input": 47,
          "interpolation": "LINEAR",
          "output": 48
        },
        {
          "input": 49,
          "interpolation": "LINEAR",
          "output": 50
        },
        {
          "input": 51,
          "interpolation": "LINEAR",
          "output": 52
        },
        {
          "input": 53,
          "interpolation": "LINEAR",
          "output": 54
        },
        {
          "input": 55,
          "interpolation": "LINEAR",
          "output": 56
        },
        {
          "input": 57,
          "interpolation": "LINEAR",
          "output": 58
        },
        {
          "input": 59,
          "interpolation": "LINEAR",
          "output": 60
        },
        {
          "input": 61,
          "interpolation": "LINEAR",
          "output": 62
        },
        {
          "input": 63,
          "interpolation": "LINEAR",
          "output": 64
        },
        {
          "input": 65,
          "interpolation": "LINEAR",
          "output": 66
        },
        {
          "input": 67,
          "interpolation": "LINEAR",
          "output": 68
        },
        {
          "input": 69,
          "interpolation": "LINEAR",
          "output": 70
        },
        {
          "input": 71,
          "interpolation": "LINEAR",
          "output": 72
        },
        {
          "input": 73,
          "interpolation": "LINEAR",
          "output": 74
        },
        {
          "input": 75,
          "interpolation": "LINEAR",
          "output": 76
        },
        {
          "input": 77,
          "interpolation": "LINEAR",
          "output": 78
        },
        {
          "input": 79,
          "interpolation": "LINEAR",
          "output": 80
        },
        {
          "input": 81,
          "interpolation": "LINEAR",
          "output": 82
        },
        {
          "input": 83,
          "interpolation": "LINEAR",
          "output": 84
        },
        {
          "input": 85,
          "interpolation": "LINEAR",
          "output": 86
        },
        {
          "input": 87,
          "interpolation": "LINEAR",
          "output": 88
        },
        {
          "input": 89,
          "interpolation": "LINEAR",
          "output": 90
        },
        {
          "input": 91,
          "interpolation": "LINEAR",
          "output": 92
        },
        {
          "input": 93,
          "interpolation": "LINEAR",
          "output": 94
        },
        {
          "input": 95,
          "interpolation": "LINEAR",
          "output": 96
        },
        {
          "input": 97,
          "interpolation": "LINEAR",
          "output": 98
        },
        {
          "input": 99,
          "interpolation": "LINEAR",
          "output": 100
        },
        {
          "input": 101,
          "interpolation": "LINEAR",
          "output": 102
        },
        {
          "input": 103,
          "interpolation": "LINEAR",
          "output": 104
        },
        {
          "input": 105,
          "interpolation": "LINEAR",
          "output": 106
        },
        {
          "input": 107,
          "interpolation": "LINEAR",
          "output": 108
        },
        {
          "input": 109,
          "interpolation": "LINEAR",
          "output": 110
        },
        {
          "input": 111,
          "interpolation": "LINEAR",
          "output": 112
        },
        {
          "input": 113,
          "interpolation": "LINEAR",
          "output": 114
        },
        {
          "input": 115,
          "interpolation": "LINEAR",
          "output": 116
        },
        {
          "input": 117,
          "interpolation": "LINEAR",
          "output": 118
        },
        {
          "input": 119,
          "interpolation": "LINEAR",
          "output": 120
        },
        {
          "input": 121,
          "interpolation": "LINEAR",
          "output": 122
        },
        {
          "input": 123,
          "interpolation": "LINEAR",
          "output": 124
        },
        {
          "input": 125,
          "interpolation": "LINEAR",
          "output": 126
        },
        {
          "input": 127,
          "interpolation": "LINEAR",
          "output": 128
        },
        {
          "input": 129,
          "interpolation": "LINEAR",
          "output": 130
        },
        {
          "input": 131,
          "interpolation": "LINEAR",
          "output": 132
        },
        {
          "input": 133,
          "interpolation": "LINEAR",
          "output": 134
        },
        {
          "input": 135,
          "interpolation": "LINEAR",
          "output": 136
        },
        {
          "input": 137,
          "interpolation": "LINEAR",
          "output": 138
        },
        {
          "input": 139,
          "interpolation": "LINEAR",
          "output": 140
        },
        {
          "input": 141,
          "interpolation": "LINEAR",
          "output": 142
        },
        {
          "input": 143,
          "interpolation": "LINEAR",
          "output": 144
        },
        {
          "input": 145,
          "interpolation": "LINEAR",
          "output": 146
        },
        {
          "input": 147,
          "interpolation": "LINEAR",
          "output": 148
        },
        {
          "input": 149,
          "interpolation": "LINEAR",
          "output": 150
        },
        {
          "input": 151,
          "interpolation": "LINEAR",
          "output": 152
        },
        {
          "input": 153,
          "interpolation": "LINEAR",
          "output": 154
        },
        {
          "input": 155,
          "interpolation": "LINEAR",
          "output": 156
        },
        {
          "input": 157,
          "interpolation": "LINEAR",
          "output": 158
        },
        {
          "input": 159,
          "interpolation": "LINEAR",
          "output": 160
        },
        {
          "input": 161,
          "interpolation": "LINEAR",
          "output": 162
        },
        {
          "input": 163,
          "interpolation": "LINEAR",
          "output": 164
        },
        {
          "input": 165,
          "interpolation": "LINEAR",
          "output": 166
        },
        {
          "input": 167,
          "interpolation": "LINEAR",
          "output": 168
        },
        {
          "input": 169,
          "interpolation": "LINEAR",
          "output": 170
        },
        {
          "input": 171,
          "interpolation": "LINEAR",
          "output": 172
        },
        {
          "input": 173,
          "interpolation": "LINEAR",
          "output": 174
        },
        {
          "input": 175,
          "interpolation": "LINEAR",
          "output": 176
        },
        {
          "input": 177,
          "interpolation": "LINEAR",
          "output": 178
        },
        {
          "input": 179,
          "interpolation": "LINEAR",
          "output": 180
        },
        {
          "input": 181,
          "interpolation": "LINEAR",
          "output": 182
        },
        {
          "input": 183,
          "interpolation": "LINEAR",
          "output": 184
        },
        {
          "input": 185,
          "interpolation": "LINEAR",
          "output": 186
        },
        {
          "input": 187,
          "interpolation": "LINEAR",
          "output": 188
        },
        {
          "input": 189,
          "interpolation": "LINEAR",
          "output": 190
        },
        {
          "input": 191,
          "interpolation": "LINEAR",
          "output": 192
        },
        {
          "input": 193,
          "interpolation": "LINEAR",
          "output": 194
        },
        {
          "input": 195,
          "interpolation": "LINEAR",
          "output": 196
        },
        {
          "input": 197,
          "interpolation": "LINEAR",
          "output": 198
        },
        {
          "input": 199,
          "interpolation": "LINEAR",
          "output": 200
        },
        {
          "input": 201,
          "interpolation": "LINEAR",
          "output": 202
        },
        {
          "input": 203,
          "interpolation": "LINEAR",
          "output": 204
        }
      ]
    }
  ],
  "asset": {
    "extras": {
      "author": "Théo Lerbeil (https://sketchfab.com/supertheo)",
      "license": "CC-BY-4.0 (http://creativecommons.org/licenses/by/4.0/)",
      "source": "https://sketchfab.com/3d-models/animated-old-man-character-3f74a8547aaf422686bb28768f7ce27c",
      "title": "Animated Old Man Character"
    },
    "generator": "Sketchfab-12.68.0",
    "version": "2.0"
  },
  "bufferViews": [
    {
      "buffer": 0,
      "byteLength": 27872,
      "byteStride": 8,
      "name": "shortBufferViews",
      "target": 34962
    },
    {
      "buffer": 0,
      "byteLength": 65136,
      "byteOffset": 27872,
      "name": "floatBufferViews",
      "target": 34963
    },
    {
      "buffer": 0,
      "byteLength": 27872,
      "byteOffset": 93008,
      "byteStride": 8,
      "name": "floatBufferViews",
      "target": 34962
    },
    {
      "buffer": 0,
      "byteLength": 83616,
      "byteOffset": 120880,
      "byteStride": 12,
      "name": "floatBufferViews",
      "target": 34962
    },
    {
      "buffer": 0,
      "byteLength": 55744,
      "byteOffset": 204496,
      "byteStride": 16,
      "name": "floatBufferViews",
      "target": 34962
    },
    {
      "buffer": 0,
      "byteLength": 1920,
      "byteOffset": 260240,
      "name": "floatBufferViews"
    },
    {
      "buffer": 0,
      "byteLength": 113900,
      "byteOffset": 262160,
      "name": "floatBufferViews"
    },
    {
      "buffer": 0,
      "byteLength": 169236,
      "byteOffset": 376060,
      "byteStride": 12,
      "name": "floatBufferViews"
    },
    {
      "buffer": 0,
      "byteLength": 229952,
      "byteOffset": 545296,
      "byteStride": 16,
      "name": "floatBufferViews"
    }
  ],
  "buffers": [
    {
      "byteLength": 775248,
      "uri": "scene.bin"
    }
  ],
  "images": [
    {
      "uri": "textures/shoose_baseColor.png"
    },
    {
      "uri": "textures/pentalon_baseColor.png"
    },
    {
      "uri": "textures/head_baseColor.png"
    },
    {
      "uri": "textures/body_baseColor.png"
    },
    {
      "uri": "textures/hair_baseColor.png"
    },
    {
      "uri": "textures/material_baseColor.png"
    }
  ],
  "materials": [
    {
      "doubleSided": true,
      "name": "shoose",
      "pbrMetallicRoughness": {
        "baseColorTexture": {
          "index": 0
        },
        "metallicFactor": 0.0,
        "roughnessFactor": 0.9577051495
      }
    },
    {
      "doubleSided": true,
      "name": "pentalon",
      "pbrMetallicRoughness": {
        "baseColorTexture": {
          "index": 1
        },
        "metallicFactor": 0.0
      }
    },
    {
      "doubleSided": true,
      "name": "head",
      "pbrMetallicRoughness": {
        "baseColorTexture": {
          "index": 2
        },
        "metallicFactor": 0.0
      }
    },
    {
      "doubleSided": true,
      "name": "body",
      "pbrMetallicRoughness": {
        "baseColorTexture": {
          "index": 3
        },
        "metallicFactor": 0.0
      }
    },
    {
      "doubleSided": true,
      "name": "hair",
      "pbrMetallicRoughness": {
        "baseColorTexture": {
          "index": 4
        },
        "metallicFactor": 0.0,
        "roughnessFactor": 0.9577051495
      }
    },
    {
      "doubleSided": true,
      "name": "material",
      "pbrMetallicRoughness": {
        "baseColorTexture": {
          "index": 5
        },
        "metallicFactor": 0.6,
        "roughnessFactor": 0.6
      }
    }
  ],
  "meshes": [
    {
      "name": "body_shoose_0",
      "primitives": [
        {
          "attributes": {
            "JOINTS_0": 25,
            "NORMAL": 1,
            "POSITION": 0,
            "TEXCOORD_0": 2,
            "WEIGHTS_0": 26
          },
          "indices": 3,
          "material": 0,
          "mode": 4
        }
      ]
    },
    {
      "name": "body_pentalon_0",
      "primitives": [
        {
          "attributes": {
            "JOINTS_0": 27,
            "NORMAL": 5,
            "POSITION": 4,
            "TEXCOORD_0": 6,
            "WEIGHTS_0": 28
          },
          "indices": 7,
          "material": 1,
          "mode": 4
        }
      ]
    },
    {
      "name": "body_head_0",
      "primitives": [
        {
          "attributes": {
            "JOINTS_0": 29,
            "NORMAL": 9,
            "POSITION": 8,
            "TEXCOORD_0": 10,
            "WEIGHTS_0": 30
          },
          "indices": 11,
          "material": 2,
          "mode": 4
        }
      ]
    },
    {
      "name": "body_body_0",
      "primitives": [
        {
          "attributes": {
            "JOINTS_0": 31,
            "NORMAL": 13,
            "POSITION": 12,
            "TEXCOORD_0": 14,
            "WEIGHTS_0": 32
          },
          "indices": 15,
          "material": 3,
          "mode": 4
        }
      ]
    },
    {
      "name": "body_hair_0",
      "primitives": [
        {
          "attributes": {
            "JOINTS_0": 33,
            "NORMAL": 17,
            "POSITION": 16,
            "TEXCOORD_0": 18,
            "WEIGHTS_0": 34
          },
          "indices": 19,
          "material": 4,
          "mode": 4
        }
      ]
    },
    {
      "name": "body_cle_0",
      "primitives": [
        {
          "attributes": {
            "JOINTS_0": 35,
            "NORMAL": 21,
            "POSITION": 20,
            "TEXCOORD_0": 22,
            "WEIGHTS_0": 36
          },
          "indices": 23,
          "material": 5,
          "mode": 4
        }
      ]
    }
  ],
  "nodes": [
    {
      "children": [
        1
      ],
      "matrix": [
        1.0,
        0.0,
        0.0,
        0.0,
        0.0,
        2.220446049250313e-16,
        -1.0,
        0.0,
        0.0,
        1.0,
        2.220446049250313e-16,
        0.0,
        0.0,
        0.0,
        0.0,
        1.0
      ],
      "name": "Sketchfab_model"
    },
    {
      "children": [
        2
      ],
      "matrix": [
        1.0,
        0.0,
        0.0,
        0.0,
        0.0,
        0.0,
        1.0,
        0.0,
        0.0,
        -1.0,
        0.0,
        0.0,
        0.0,
        0.0,
        0.0,
        1.0
      ],
      "name": "c297ee0b91004ffc84a9dd275fbe3869.fbx"
    },
    {
      "children": [
        3
      ],
      "name": "Object_2"
    },
    {
      "children": [
        4,
        43
      ],
      "name": "RootNode"
    },
    {
      "children": [
        5
      ],
      "name": "Armature",
      "rotation": [
        -0.7071068286895752,
        0.0,
        0.0,
        0.7071067094802856
      ]
    },
    {
      "children": [
        6,
        37,
        38,
        39,
        40,
        41,
        42,
        36
      ],
      "name": "Object_5"
    },
    {
      "children": [
        7
      ],
      "name": "_rootJoint"
    },
    {
      "children": [
        8,
        28,
        32
      ],
      "name": "ventre_00",
      "rotation": [
        0.6984070539474487,
        0.6984071135520935,
        0.11057817935943604,
        0.11057816445827484
      ],
      "scale": [
        1.0,
        1.0,
        1.0000001192092896
      ],
      "translation": [
        55.07002639770508,
        0.005343593191355467,
        265.8787841796875
      ]
    },
    {
      "children": [
        9,
        17,
        25
      ],
      "name": "buste_01",
      "rotation": [
        0.2950291931629181,
        0.0017285115318372846,
        -0.005559780169278383,
        0.9554705023765564
      ],
      "scale": [
        0.9999998807907104,
        0.9999998807907104,
        0.9999999403953552
      ],
      "translation": [
        3.210942622899893e-11,
        29.727012634277344,
        1.144390716945054e-05
      ]
    },
    {
      "children": [
        10
      ],
      "name": "epaule.G_02",
      "rotation": [
        0.5470854043960571,
        0.4391672909259796,
        0.5187516212463379,
        -0.4885965883731842
      ],
      "scale": [
        1.0,
        1.0000001192092896,
        0.9999999403953552
      ],
      "translation": [
        -3.91155481338501e-08,
        29.455270767211914,
        2.3098169549484737e-05
      ]
    },
    {
      "children": [
        11
      ],
      "name": "bras1.G_03",
      "rotation": [
        -0.011387062259018421,
        0.18793463706970215,
        -0.5076223611831665,
        0.8407558798789978
      ],
      "translation": [
        2.0384788513183594e-05,
        19.83222198486328,
        8.106231689453125e-06
      ]
    },
    {
      "children": [
        12,
        15
      ],
      "name": "bras2.G_04",
      "rotation": [
        0.11228515952825546,
        -0.06896954029798508,
        -0.18407833576202393,
        0.974038302898407
      ],
      "scale": [
        0.9999999403953552,
        1.0000001192092896,
        1.0
      ],
      "translation": [
        -1.52587890625e-05,
        34.96876525878906,
        -1.2099742889404297e-05
      ]
    },
    {
      "children": [
        13
      ],
      "name": "mail1.G_05",
      "rotation": [
        0.7994024753570557,
        -0.005018113646656275,
        -0.04769718647003174,
        0.5988785624504089
      ],
      "scale": [
        1.0,
        1.0000001192092896,
        1.0
      ],
      "translation": [
        -9.894371032714844e-06,
        27.669395446777344,
        -1.430511474609375e-06
      ]
    },
    {
      "children": [
        14
      ],
      "name": "main2.G_06",
      "rotation": [
        -0.032147958874702454,
        0.006318400148302317,
        0.01996314339339733,
        0.9992637634277344
      ],
      "scale": [
        0.9999999403953552,
        1.0,
        0.9999998211860657
      ],
      "translation": [
        -1.9073486328125e-06,
        15.701135635375977,
        -1.0967254638671875e-05
      ]
    },
    {
      "name": "main3.G_07",
      "rotation": [
        0.027295498177409172,
        0.0062449839897453785,
        0.003507346613332629,
        0.9996018409729004
      ],
      "scale": [
        1.0000001192092896,
        1.0,
        1.0
      ],
      "translation": [
        -9.5367431640625e-07,
        7.562207221984863,
        -1.33514404296875e-05
      ]
    },
    {
      "children": [
        16
      ],
      "name": "pouce1.G_08",
      "rotation": [
        0.5519571304321289,
        0.14079949259757996,
        -0.5234799385070801,
        0.6336304545402527
      ],
      "scale": [
        1.0,
        1.0,
        0.9999999403953552
      ],
      "translation": [
        -9.894371032714844e-06,
        27.669395446777344,
        -1.430511474609375e-06
      ]
    },
    {
      "name": "pouce2.G_09",
      "rotation": [
        0.14222383499145508,
        0.04020024836063385,
        0.16537226736545563,
        0.9750940203666687
      ],
      "scale": [
        1.0000001192092896,
        1.0,
        1.0000001192092896
      ],
      "translation": [
        1.71661376953125e-05,
        10.033985137939453,
        1.621246337890625e-05
      ]
    },
    {
      "children": [
        18
      ],
      "name": "epaule.D_010",
      "rotation": [
        0.5468047261238098,
        -0.43587011098861694,
        -0.5337437987327576,
        -0.475541353225708
      ],
      "scale": [
        0.9999999403953552,
        0.9999998807907104,
        1.0
      ],
      "translation": [
        -3.91155481338501e-08,
        29.455270767211914,
        2.3098169549484737e-05
      ]
    },
    {
      "children": [
        19
      ],
      "name": "bras1.D_011",
      "rotation": [
        -0.4011772871017456,
        -0.4114587903022766,
        -0.02595781348645687,
        0.8179759383201599
      ],
      "translation": [
        -5.4717063903808594e-05,
        22.60257339477539,
        -6.9141387939453125e-06
      ]
    },
    {
      "children": [
        20,
        23
      ],
      "name": "bras2.D_012",
      "rotation": [
        0.20868107676506042,
        0.1375316083431244,
        0.6338140964508057,
        0.7319952249526978
      ],
      "scale": [
        1.0,
        1.0000001192092896,
        1.0
      ],
      "translation": [
        -3.814697265625e-06,
        33.2109260559082,
        1.4781951904296875e-05
      ]
    },
    {
      "children": [
        21
      ],
      "name": "main1.D_013",
      "rotation": [
        0.017144091427326202,
        0.5339248776435852,
        -0.07477561384439468,
        0.842044472694397
      ],
      "scale": [
        1.0,
        1.0,
        1.000000238418579
      ],
      "translation": [
        -3.814697265625e-06,
        31.189489364624023,
        -1.9073486328125e-06
      ]
    },
    {
      "children": [
        22
      ],
      "name": "main2.D_014",
      "rotation": [
        -0.7720721364021301,
        -0.04192762449383736,
        -0.13048280775547028,
        0.6205811500549316
      ],
      "scale": [
        0.9999999403953552,
        1.0000001192092896,
        1.0
      ],
      "translation": [
        1.1444091796875e-05,
        12.994220733642578,
        1.1444091796875e-05
      ]
    },
    {
      "name": "main3.D_015",
      "rotation": [
        -0.771032452583313,
        -0.051166679710149765,
        -0.15410152077674866,
        0.6157464385032654
      ],
      "scale": [
        1.0,
        1.0000001192092896,
        1.0000003576278687
      ],
      "translation": [
        1.0013580322265625e-05,
        6.6005754470825195,
        -8.58306884765625e-06
      ]
    },
    {
      "children": [
        24
      ],
      "name": "pouce1.D_016",
      "rotation": [
        0.16989868879318237,
        -0.31429222226142883,
        0.2381087839603424,
        0.9031385779380798
      ],
      "scale": [
        1.0000001192092896,
        0.9999998807907104,
        0.9999999403953552
      ],
      "translation": [
        -3.814697265625e-06,
        31.189489364624023,
        -1.9073486328125e-06
      ]
    },
    {
      "name": "pouce2.D_017",
      "rotation": [
        -0.44001883268356323,
        -0.550203263759613,
        0.23380222916603088,
        0.6700718998908997
      ],
      "translation": [
        -3.814697265625e-06,
        8.129278182983398,
        -9.5367431640625e-06
      ]
    },
    {
      "children": [
        26
      ],
      "name": "coup_018",
      "rotation": [
        -0.017305904999375343,
        0.9894046783447266,
        0.14414718747138977,
        0.0007101737428456545
      ],
      "scale": [
        0.9999999403953552,
        0.9999998807907104,
        0.9999998807907104
      ],
      "translation": [
        -0.027243563905358315,
        31.794618606567383,
        0.07932493090629578
      ]
    },
    {
      "children": [
        27
      ],
      "name": "tete_019",
      "rotation": [
        0.4715806841850281,
        0.005366601515561342,
        0.010335047729313374,
        0.8817459940910339
      ],
      "scale": [
        0.9999998807907104,
        0.9999999403953552,
        0.9999999403953552
      ],
      "translation": [
        -1.6158446669578552e-07,
        14.728185653686523,
        -9.143126590061001e-06
      ]
    },
    {
      "name": "bouche_020",
      "rotation": [
        -1.8949353375319333e-07,
        0.8512120246887207,
        -0.5248221755027771,
        -1.1190729054533222e-07
      ],
      "translation": [
        0.1555054634809494,
        4.188690185546875,
        -8.21292495727539
      ]
    },
    {
      "children": [
        29
      ],
      "name": "pelvis.G_021",
      "rotation": [
        0.554169237613678,
        0.6978561878204346,
        0.16206084191799164,
        0.4238271415233612
      ],
      "scale": [
        1.0000001192092896,
        1.0000003576278687,
        1.0000005960464478
      ],
      "translation": [
        -4.265844472683966e-05,
        -0.16741180419921875,
        0.7045154571533203
      ]
    },
    {
      "children": [
        30
      ],
      "name": "jambe1.G_022",
      "rotation": [
        -0.12505827844142914,
        0.030456218868494034,
        0.07009471952915192,
        0.9892014861106873
      ],
      "scale": [
        1.0,
        0.9999998807907104,
        0.9999998211860657
      ],
      "translation": [
        -3.874301910400391e-06,
        22.749486923217773,
        9.5367431640625e-07
      ]
    },
    {
      "children": [
        31
      ],
      "name": "jambe2.G_023",
      "rotation": [
        0.4446459114551544,
        -0.33665966987609863,
        0.510341465473175,
        0.6546005606651306
      ],
      "scale": [
        0.9999998211860657,
        1.0,
        1.0
      ],
      "translation": [
        2.9653310775756836e-06,
        28.997333526611328,
        -1.1444091796875e-05
      ]
    },
    {
      "name": "pied.G_024",
      "rotation": [
        0.07549146562814713,
        -0.292831689119339,
        0.9525153636932373,
        -0.0355718769133091
      ],
      "scale": [
        0.9999998807907104,
        1.0,
        1.0000001192092896
      ],
      "translation": [
        -6.67572021484375e-06,
        29.310955047607422,
        -5.960464477539063e-07
      ]
    },
    {
      "children": [
        33
      ],
      "name": "pelvis.D_025",
      "rotation": [
        -0.5721613764762878,
        0.6973053216934204,
        0.12837925553321838,
        -0.4122079908847809
      ],
      "scale": [
        1.000000238418579,
        1.0000001192092896,
        1.0000003576278687
      ],
      "translation": [
        4.3172247387701645e-05,
        -0.16740798950195313,
        0.7045822143554688
      ]
    },
    {
      "children": [
        34
      ],
      "name": "jambe1.D_026",
      "rotation": [
        0.07640653848648071,
        0.9869364500045776,
        -0.13870392739772797,
        0.029660461470484734
      ],
      "scale": [
        0.9999998807907104,
        0.9999998807907104,
        0.9999998807907104
      ],
      "translation": [
        1.9103288650512695e-05,
        23.699460983276367,
        9.5367431640625e-07
      ]
    },
    {
      "children": [
        35
      ],
      "name": "jambe2.D_027",
      "rotation": [
        -0.49707379937171936,
        0.6698457598686218,
        -0.4313778281211853,
        -0.34371134638786316
      ],
      "scale": [
        1.0,
        1.0,
        0.9999998807907104
      ],
      "translation": [
        2.842170943040401e-14,
        28.981922149658203,
        7.62939453125e-06
      ]
    },
    {
      "name": "pied.D_028",
      "rotation": [
        -0.0480896420776844,
        -0.29135963320732117,
        0.9541242122650146,
        0.0494384765625
      ],
      "scale": [
        0.9999999403953552,
        1.000000238418579,
        1.0000001192092896
      ],
      "translation": [
        -9.5367431640625e-06,
        29.31098175048828,
        -2.86102294921875e-06
      ]
    },
    {
      "matrix": [
        0.9999999895368827,
        -1.1083031228875662e-09,
        3.678914811677814e-15,
        0.0,
        3.678914850238617e-15,
        6.123233588001517e-17,
        -1.000000000000006,
        0.0,
        1.1083031228875103e-09,
        0.9999999895368323,
        6.123233931668342e-17,
        0.0,
        3.198438385254576e-07,
        6.484897284053659e-06,
        2.3876248547716195e-10,
        1.0
      ],
      "name": "Object_36"
    },
    {
      "mesh": 0,
      "name": "Object_37",
      "skin": 0
    },
    {
      "mesh": 1,
      "name": "Object_38",
      "skin": 0
    },
    {
      "mesh": 2,
      "name": "Object_39",
      "skin": 0
    },
    {
      "mesh": 3,
      "name": "Object_40",
      "skin": 0
    },
    {
      "mesh": 4,
      "name": "Object_41",
      "skin": 0
    },
    {
      "mesh": 5,
      "name": "Object_42",
      "skin": 0
    },
    {
      "name": "body",
      "rotation": [
        -0.7071068286895752,
        0.0,
        0.0,
        0.7071067094802856
      ]
    }
  ],
  "samplers": [
    {
      "magFilter": 9729,
      "minFilter": 9987,
      "wrapS": 10497,
      "wrapT": 10497
    }
  ],
  "scene": 0,
  "scenes": [
    {
      "name": "Sketchfab_Scene",
      "nodes": [
        0
      ]
    }
  ],
  "skins": [
    {
      "inverseBindMatrices": 24,
      "joints": [
        6,
        7,
        8,
        9,
        10,
        11,
        12,
        13,
        14,
        15,
        16,
        17,
        18,
        19,
        20,
        21,
        22,
        23,
        24,
        25,
        26,
        27,
        28,
        29,
        30,
        31,
        32,
        33,
        34,
        35
      ],
      "skeleton": 6
    }
  ],
  "textures": [
    {
      "sampler": 0,
      "source": 0
    },
    {
      "sampler": 0,
      "source": 1
    },
    {
      "sampler": 0,
      "source": 2
    },
    {
      "sampler": 0,
      "source": 3
    },
    {
      "sampler": 0,
      "source": 4
    },
    {
      "sampler": 0,
      "source": 5
    }
  ]
}
