{
  "accessors": [
    {
      "bufferView": 2,
      "componentType": 5126,
      "count": 9243,
      "max": [
        26.531604766845703,
        2.6672122478485107,
        5.6365580558776855
      ],
      "min": [
        -0.2643182873725891,
        0.0,
        0.0
      ],
      "type": "VEC3"
    },
    {
      "bufferView": 2,
      "byteOffset": 110916,
      "componentType": 5126,
      "count": 9243,
      "max": [
        1.0,
        1.0,
        1.0
      ],
      "min": [
        -1.0,
        -1.0,
        -1.0
      ],
      "type": "VEC3"
    },
    {
      "bufferView": 1,
      "componentType": 5126,
      "count": 9243,
      "max": [
        0.0,
        0.0
      ],
      "min": [
        0.0,
        0.0
      ],
      "type": "VEC2"
    },
    {
      "bufferView": 0,
      "componentType": 5125,
      "count": 49488,
      "type": "SCALAR"
    },
    {
      "bufferView": 2,
      "byteOffset": 221832,
      "componentType": 5126,
      "count": 1259,
      "max": [
        2.4028937816619873,
        2.6672122478485107,
        4.594613552093506
      ],
      "min": [
        -0.2643182873725891,
        0.0,
        0.0
      ],
      "type": "VEC3"
    },
    {
      "bufferView": 2,
      "byteOffset": 236940,
      "componentType": 5126,
      "count": 1259,
      "max": [
        1.0,
        1.0,
        0.5954976677894592
      ],
      "min": [
        -1.0,
        -1.0,
        -0.9996941089630127
      ],
      "type": "VEC3"
    },
    {
      "bufferView": 1,
      "byteOffset": 73944,
      "componentType": 5126,
      "count": 1259,
      "max": [
        0.7500383853912354,
        0.9320865869522095
      ],
      "min": [
        0.2512265145778656,
        0.0728192925453186
      ],
      "type": "VEC2"
    },
    {
      "bufferView": 0,
      "byteOffset": 197952,
      "componentType": 5125,
      "count": 7122,
      "type": "SCALAR"
    },
    {
      "bufferView": 2,
      "byteOffset": 252048,
      "componentType": 5126,
      "count": 1382,
      "max": [
        16.3326358795166,
        2.5531039237976074,
        4.594613552093506
      ],
      "min": [
        -0.03189412131905556,
        -0.05106208100914955,
        0.0
      ],
      "type": "VEC3"
    },
    {
      "bufferView": 2,
      "byteOffset": 268632,
      "componentType": 5126,
      "count": 1382,
      "max": [
        1.0,
        1.0,
        1.0
      ],
      "min": [
        -1.0,
        -1.0,
        -1.0
      ],
      "type": "VEC3"
    },
    {
      "bufferView": 0,
      "byteOffset": 226440,
      "componentType": 5125,
      "count": 7356,
      "type": "SCALAR"
    },
    {
      "bufferView": 2,
      "byteOffset": 285216,
      "componentType": 5126,
      "count": 9072,
      "max": [
        26.272043228149414,
        2.5578701496124268,
        5.740621566772461
      ],
      "min": [
        -0.02033264748752117,
        0.07645542174577713,
        4.560965061187744
      ],
      "type": "VEC3"
    },
    {
      "bufferView": 2,
      "byteOffset": 394080,
      "componentType": 5126,
      "count": 9072,
      "max": [
        1.0,
        1.0,
        1.0
      ],
      "min": [
        -1.0,
        -1.0,
        -1.0
      ],
      "type": "VEC3"
    },
    {
      "bufferView": 1,
      "byteOffset": 84016,
      "componentType": 5126,
      "count": 9072,
      "max": [
        0.8988823294639587,
        0.9082237482070923
      ],
      "min": [
        0.10111770033836365,
        0.1104590892791748
      ],
      "type": "VEC2"
    },
    {
      "bufferView": 0,
      "byteOffset": 255864,
      "componentType": 5125,
      "count": 25452,
      "type": "SCALAR"
    },
    {
      "bufferView": 2,
      "byteOffset": 502944,
      "componentType": 5126,
      "count": 1152,
      "max": [
        5.7415771484375,
        2.198270320892334,
        5.6365580558776855
      ],
      "min": [
        3.543307065963745,
        0.0,
        0.0
      ],
      "type": "VEC3"
    },
    {
      "bufferView": 2,
      "byteOffset": 516768,
      "componentType": 5126,
      "count": 1152,
      "max": [
        1.0,
        1.0,
        1.0
      ],
      "min": [
        -1.0,
        -1.0,
        -0.9446080923080444
      ],
      "type": "VEC3"
    },
    {
      "bufferView": 1,
      "byteOffset": 156592,
      "componentType": 5126,
      "count": 1152,
      "max": [
        0.679840624332428,
        0.9681968092918396
      ],
      "min": [
        0.32394739985466003,
        0.055655598640441895
      ],
      "type": "VEC2"
    },
    {
      "bufferView": 0,
      "byteOffset": 357672,
      "componentType": 5125,
      "count": 6402,
      "type": "SCALAR"
    },
    {
      "bufferView": 2,
      "byteOffset": 530592,
      "componentType": 5126,
      "count": 1248,
      "max": [
        9.275927543640137,
        2.5830142498016357,
        4.572356700897217
      ],
      "min": [
        6.692913055419922,
        0.0,
        0.0
      ],
      "type": "VEC3"
    },
    {
      "bufferView": 2,
      "byteOffset": 545568,
      "componentType": 5126,
      "count": 1248,
      "max": [
        0.9999010562896729,
        0.9999010562896729,
        1.0
      ],
      "min": [
        -0.9999010562896729,
        -0.9999010562896729,
        -1.0
      ],
      "type": "VEC3"
    },
    {
      "bufferView": 1,
      "byteOffset": 165808,
      "componentType": 5126,
      "count": 1248,
      "max": [
        0.7021781206130981,
        0.8775873184204102
      ],
      "min": [
        0.30817529559135437,
        0.1801379919052124
      ],
      "type": "VEC2"
    },
    {
      "bufferView": 0,
      "byteOffset": 383280,
      "componentType": 5125,
      "count": 7188,
      "type": "SCALAR"
    },
    {
      "bufferView": 2,
      "byteOffset": 560544,
      "componentType": 5126,
      "count": 1820,
      "max": [
        12.629354476928711,
        2.3808631896972656,
        4.696661949157715
      ],
      "min": [
        6.962058067321777,
        0.2606140077114105,
        4.572356224060059
      ],
      "type": "VEC3"
    },
    {
      "bufferView": 2,
      "byteOffset": 582384,
      "componentType": 5126,
      "count": 1820,
      "max": [
        1.0,
        1.0,
        1.0
      ],
      "min": [
        -1.0,
        -1.0,
        -1.0
      ],
      "type": "VEC3"
    },
    {
      "bufferView": 1,
      "byteOffset": 175792,
      "componentType": 5126,
      "count": 1820,
      "max": [
        0.8111110925674438,
        1.0
      ],
      "min": [
        -0.8111110925674438,
        0.18888890743255615
      ],
      "type": "VEC2"
    },
    {
      "bufferView": 0,
      "byteOffset": 412032,
      "componentType": 5125,
      "count": 3636,
      "type": "SCALAR"
    },
    {
      "bufferView": 2,
      "byteOffset": 604224,
      "componentType": 5126,
      "count": 1536,
      "max": [
        12.89162540435791,
        2.6554055213928223,
        4.568578720092773
      ],
      "min": [
        10.236220359802246,
        0.0,
        0.0
      ],
      "type": "VEC3"
    },
    {
      "bufferView": 2,
      "byteOffset": 622656,
      "componentType": 5126,
      "count": 1536,
      "max": [
        1.0,
        1.0,
        1.0
      ],
      "min": [
        -1.0,
        -1.0,
        -1.0
      ],
      "type": "VEC3"
    },
    {
      "bufferView": 1,
      "byteOffset": 190352,
      "componentType": 5126,
      "count": 1536,
      "max": [
        0.8209288716316223,
        0.8451938033103943
      ],
      "min": [
        0.5221530199050903,
        0.47134751081466675
      ],
      "type": "VEC2"
    },
    {
      "bufferView": 0,
      "byteOffset": 426576,
      "componentType": 5125,
      "count": 6900,
      "type": "SCALAR"
    },
    {
      "bufferView": 2,
      "byteOffset": 641088,
      "componentType": 5126,
      "count": 1272,
      "max": [
        16.3326358795166,
        2.5531039237976074,
        4.58898401260376
      ],
      "min": [
        13.728469848632813,
        -0.05106208100914955,
        0.0
      ],
      "type": "VEC3"
    },
    {
      "bufferView": 2,
      "byteOffset": 656352,
      "componentType": 5126,
      "count": 1272,
      "max": [
        1.0,
        1.0,
        1.0
      ],
      "min": [
        -1.0,
        -1.0,
        -1.0
      ],
      "type": "VEC3"
    },
    {
      "bufferView": 1,
      "byteOffset": 202640,
      "componentType": 5126,
      "count": 1272,
      "max": [
        0.749383807182312,
        0.9533568024635315
      ],
      "min": [
        0.24525760114192963,
        0.06500041484832764
      ],
      "type": "VEC2"
    },
    {
      "bufferView": 0,
      "byteOffset": 454176,
      "componentType": 5125,
      "count": 7044,
      "type": "SCALAR"
    },
    {
      "bufferView": 2,
      "byteOffset": 671616,
      "componentType": 5126,
      "count": 1272,
      "max": [
        19.830127716064453,
        2.507298469543457,
        4.604768753051758
      ],
      "min": [
        17.322830200195313,
        0.0,
        0.0
      ],
      "type": "VEC3"
    },
    {
      "bufferView": 2,
      "byteOffset": 686880,
      "componentType": 5126,
      "count": 1272,
      "max": [
        1.0,
        1.0,
        1.0
      ],
      "min": [
        -1.0,
        -1.0,
        -1.0
      ],
      "type": "VEC3"
    },
    {
      "bufferView": 1,
      "byteOffset": 212816,
      "componentType": 5126,
      "count": 1272,
      "max": [
        0.75867760181427,
        0.9786670207977295
      ],
      "min": [
        0.24294430017471313,
        0.03149890899658203
      ],
      "type": "VEC2"
    },
    {
      "bufferView": 0,
      "byteOffset": 482352,
      "componentType": 5125,
      "count": 7044,
      "type": "SCALAR"
    },
    {
      "bufferView": 2,
      "byteOffset": 702144,
      "componentType": 5126,
      "count": 1082,
      "max": [
        23.106767654418945,
        2.634326934814453,
        4.560965538024902
      ],
      "min": [
        20.472440719604492,
        0.0,
        0.0
      ],
      "type": "VEC3"
    },
    {
      "bufferView": 2,
      "byteOffset": 715128,
      "componentType": 5126,
      "count": 1082,
      "max": [
        1.0,
        1.0,
        1.0
      ],
      "min": [
        -1.0,
        -1.0,
        -1.0
      ],
      "type": "VEC3"
    },
    {
      "bufferView": 1,
      "byteOffset": 222992,
      "componentType": 5126,
      "count": 1082,
      "max": [
        0.7536051869392395,
        0.9628729224205017
      ],
      "min": [
        0.24572789669036865,
        0.08355498313903809
      ],
      "type": "VEC2"
    },
    {
      "bufferView": 0,
      "byteOffset": 510528,
      "componentType": 5125,
      "count": 5892,
      "type": "SCALAR"
    },
    {
      "bufferView": 2,
      "byteOffset": 728112,
      "componentType": 5126,
      "count": 1584,
      "max": [
        26.531604766845703,
        2.515854597091675,
        4.613384246826172
      ],
      "min": [
        24.015750885009766,
        0.0,
        0.0
      ],
      "type": "VEC3"
    },
    {
      "bufferView": 2,
      "byteOffset": 747120,
      "componentType": 5126,
      "count": 1584,
      "max": [
        1.0,
        1.0,
        1.0
      ],
      "min": [
        -1.0,
        -1.0,
        -0.9760814309120178
      ],
      "type": "VEC3"
    },
    {
      "bufferView": 1,
      "byteOffset": 231648,
      "componentType": 5126,
      "count": 1584,
      "max": [
        0.7566609978675842,
        0.9736575484275818
      ],
      "min": [
        0.2650102972984314,
        0.04205358028411865
      ],
      "type": "VEC2"
    },
    {
      "bufferView": 0,
      "byteOffset": 534096,
      "componentType": 5125,
      "count": 8628,
      "type": "SCALAR"
    }
  ],
  "asset": {
    "extras": {
      "author": "Pasha (https://sketchfab.com/perga8-hAwguf-hybwup)",
      "license": "CC-BY-4.0 (http://creativecommons.org/licenses/by/4.0/)",
      "source": "https://sketchfab.com/3d-models/soda-pack-fbb96ee3983849eeb4477c2dce611095",
      "title": "Soda pack"
    },
    "generator": "Sketchfab-16.73.0",
    "version": "2.0"
  },
  "bufferViews": [
    {
      "buffer": 0,
      "byteLength": 568608,
      "name": "floatBufferViews",
      "target": 34963
    },
    {
      "buffer": 0,
      "byteLength": 244320,
      "byteOffset": 568608,
      "byteStride": 8,
      "name": "floatBufferViews",
      "target": 34962
    },
    {
      "buffer": 0,
      "byteLength": 766128,
      "byteOffset": 812928,
      "byteStride": 12,
      "name": "floatBufferViews",
      "target": 34962
    }
  ],
  "buffers": [
    {
      "byteLength": 1579056,
      "uri": "scene.bin"
    }
  ],
  "images": [
    {
      "uri": "textures/material_baseColor.jpeg"
    },
    {
      "uri": "textures/U7dda968891b94de790e0b4bbe6ba0083J_baseColor.jpeg"
    },
    {
      "uri": "textures/aluminum_easy_open_end_500x500_baseColor.jpeg"
    },
    {
      "uri": "textures/be4a2160cfaea732ee19e65aed1dfa3_baseColor.jpeg"
    },
    {
      "uri": "textures/614830794_61FF1168_ED33_4FFA_ACBB_CC7A3D800DEE_baseColor.jpeg"
    },
    {
      "uri": "textures/40px_Singha_Beer_baseColor.jpeg"
    },
    {
      "uri": "textures/heineken_pilsener_24_blik_33cl_1_baseColor.jpeg"
    },
    {
      "uri": "textures/sprite_baseColor.jpeg"
    },
    {
      "uri": "textures/U4d1c74f4234b4a8588550eef991a64f35_baseColor.jpeg"
    },
    {
      "uri": "textures/a_w_root_beer_soda_baseColor.jpeg"
    }
  ],
  "materials": [
    {
      "name": "material",
      "pbrMetallicRoughness": {
        "baseColorTexture": {
          "index": 0
        },
        "metallicFactor": 0.0,
        "roughnessFactor": 0.6
      }
    },
    {
      "name": "U7dda968891b94de790e0b4bbe6ba0083J",
      "pbrMetallicRoughness": {
        "baseColorTexture": {
          "index": 1
        },
        "metallicFactor": 0.0,
        "roughnessFactor": 0.6
      }
    },
    {
      "name": "material_0",
      "pbrMetallicRoughness": {
        "baseColorFactor": [
          0.643137,
          0.698039,
          0.733333,
          1.0
        ],
        "metallicFactor": 0.0,
        "roughnessFactor": 0.6
      }
    },
    {
      "name": "aluminum_easy_open_end_500x500",
      "pbrMetallicRoughness": {
        "baseColorTexture": {
          "index": 2
        },
        "metallicFactor": 0.0,
        "roughnessFactor": 0.6
      }
    },
    {
      "name": "be4a2160cfaea732ee19e65aed1dfa3",
      "pbrMetallicRoughness": {
        "baseColorTexture": {
          "index": 3
        },
        "metallicFactor": 0.0,
        "roughnessFactor": 0.6
      }
    },
    {
      "name": "614830794_61FF1168_ED33_4FFA_ACBB_CC7A3D800DEE",
      "pbrMetallicRoughness": {
        "baseColorTexture": {
          "index": 4
        },
        "metallicFactor": 0.0,
        "roughnessFactor": 0.6
      }
    },
    {
      "name": "material_9",
      "pbrMetallicRoughness": {
        "baseColorTexture": {
          "index": 0
        },
        "metallicFactor": 0.0,
        "roughnessFactor": 0.6
      }
    },
    {
      "name": "40px_Singha_Beer",
      "pbrMetallicRoughness": {
        "baseColorTexture": {
          "index": 5
        },
        "metallicFactor": 0.0,
        "roughnessFactor": 0.6
      }
    },
    {
      "name": "heineken_pilsener_24_blik_33cl_1",
      "pbrMetallicRoughness": {
        "baseColorTexture": {
          "index": 6
        },
        "metallicFactor": 0.0,
        "roughnessFactor": 0.6
      }
    },
    {
      "name": "sprite",
      "pbrMetallicRoughness": {
        "baseColorTexture": {
          "index": 7
        },
        "metallicFactor": 0.0,
        "roughnessFactor": 0.6
      }
    },
    {
      "name": "U4d1c74f4234b4a8588550eef991a64f35",
      "pbrMetallicRoughness": {
        "baseColorTexture": {
          "index": 8
        },
        "metallicFactor": 0.0,
        "roughnessFactor": 0.6
      }
    },
    {
      "name": "a_w_root_beer_soda",
      "pbrMetallicRoughness": {
        "baseColorTexture": {
          "index": 9
        },
        "metallicFactor": 0.0,
        "roughnessFactor": 0.6
      }
    }
  ],
  "meshes": [
    {
      "name": "Material2",
      "primitives": [
        {
          "attributes": {
            "NORMAL": 1,
            "POSITION": 0,
            "TEXCOORD_0": 2
          },
          "indices": 3,
          "material": 0,
          "mode": 4
        }
      ]
    },
    {
      "name": "Material3",
      "primitives": [
        {
          "attributes": {
            "NORMAL": 5,
            "POSITION": 4,
            "TEXCOORD_0": 6
          },
          "indices": 7,
          "material": 1,
          "mode": 4
        }
      ]
    },
    {
      "name": "Material3",
      "primitives": [
        {
          "attributes": {
            "NORMAL": 9,
            "POSITION": 8
          },
          "indices": 10,
          "material": 2,
          "mode": 4
        }
      ]
    },
    {
      "name": "Material2",
      "primitives": [
        {
          "attributes": {
            "NORMAL": 12,
            "POSITION": 11,
            "TEXCOORD_0": 13
          },
          "indices": 14,
          "material": 3,
          "mode": 4
        }
      ]
    },
    {
      "name": "Material3",
      "primitives": [
        {
          "attributes": {
            "NORMAL": 16,
            "POSITION": 15,
            "TEXCOORD_0": 17
          },
          "indices": 18,
          "material": 4,
          "mode": 4
        }
      ]
    },
    {
      "name": "Material3",
      "primitives": [
        {
          "attributes": {
            "NORMAL": 20,
            "POSITION": 19,
            "TEXCOORD_0": 21
          },
          "indices": 22,
          "material": 5,
          "mode": 4
        }
      ]
    },
    {
      "name": "Material3",
      "primitives": [
        {
          "attributes": {
            "NORMAL": 24,
            "POSITION": 23,
            "TEXCOORD_0": 25
          },
          "indices": 26,
          "material": 6,
          "mode": 4
        }
      ]
    },
    {
      "name": "Material3",
      "primitives": [
        {
          "attributes": {
            "NORMAL": 28,
            "POSITION": 27,
            "TEXCOORD_0": 29
          },
          "indices": 30,
          "material": 7,
          "mode": 4
        }
      ]
    },
    {
      "name": "Material3",
      "primitives": [
        {
          "attributes": {
            "NORMAL": 32,
            "POSITION": 31,
            "TEXCOORD_0": 33
          },
          "indices": 34,
          "material": 8,
          "mode": 4
        }
      ]
    },
    {
      "name": "Material3",
      "primitives": [
        {
          "attributes": {
            "NORMAL": 36,
            "POSITION": 35,
            "TEXCOORD_0": 37
          },
          "indices": 38,
          "material": 9,
          "mode": 4
        }
      ]
    },
    {
      "name": "Material3",
      "primitives": [
        {
          "attributes": {
            "NORMAL": 40,
            "POSITION": 39,
            "TEXCOORD_0": 41
          },
          "indices": 42,
          "material": 10,
          "mode": 4
        }
      ]
    },
    {
      "name": "Material3",
      "primitives": [
        {
          "attributes": {
            "NORMAL": 44,
            "POSITION": 43,
            "TEXCOORD_0": 45
          },
          "indices": 46,
          "material": 11,
          "mode": 4
        }
      ]
    }
  ],
  "nodes": [
    {
      "children": [
        1
      ],
      "matrix": [
        1.0,
        0.0,
        0.0,
        0.0,
        0.0,
        2.220446049250313e-16,
        -1.0,
        0.0,
        0.0,
        1.0,
        2.220446049250313e-16,
        0.0,
        0.0,
        0.0,
        0.0,
        1.0
      ],
      "name": "Sketchfab_model"
    },
    {
      "children": [
        2
      ],
      "matrix": [
        0.009999999776482582,
        0.0,
        0.0,
        0.0,
        0.0,
        2.2204459996194763e-18,
        0.009999999776482582,
        0.0,
        0.0,
        -0.009999999776482582,
        2.2204459996194763e-18,
        0.0,
        0.0,
        0.0,
        0.0,
        1.0
      ],
      "name": "USDRoot"
    },
    {
      "children": [
        3
      ],
      "name": "scene"
    },
    {
      "children": [
        4
      ],
      "matrix": [
        52.25914764404297,
        0.0,
        0.0,
        0.0,
        0.0,
        52.25914764404297,
        0.0,
        0.0,
        0.0,
        0.0,
        52.25914764404297,
        0.0,
        0.0,
        0.0,
        0.0,
        1.0
      ],
      "name": "Meshes"
    },
    {
      "children": [
        5
      ],
      "matrix": [
        1.0,
        0.0,
        0.0,
        0.0,
        0.0,
        2.220446049250313e-16,
        -1.0,
        0.0,
        0.0,
        1.0,
        2.220446049250313e-16,
        0.0,
        0.0,
        0.0,
        0.0,
        1.0
      ],
      "name": "Sketchfab_model"
    },
    {
      "children": [
        6,
        8,
        10,
        12,
        14,
        16,
        18,
        20,
        22,
        24,
        26,
        28
      ],
      "name": "Collada_visual_scene_group"
    },
    {
      "children": [
        7
      ],
      "name": "Material2_1"
    },
    {
      "mesh": 0,
      "name": "Material2"
    },
    {
      "children": [
        9
      ],
      "name": "Material3_1"
    },
    {
      "mesh": 1,
      "name": "Material3"
    },
    {
      "children": [
        11
      ],
      "name": "Material3_2"
    },
    {
      "mesh": 2,
      "name": "Material3"
    },
    {
      "children": [
        13
      ],
      "name": "Material2_2"
    },
    {
      "mesh": 3,
      "name": "Material2"
    },
    {
      "children": [
        15
      ],
      "name": "Material3_3"
    },
    {
      "mesh": 4,
      "name": "Material3"
    },
    {
      "children": [
        17
      ],
      "name": "Material3_4"
    },
    {
      "mesh": 5,
      "name": "Material3"
    },
    {
      "children": [
        19
      ],
      "name": "Material3_5"
    },
    {
      "mesh": 6,
      "name": "Material3"
    },
    {
      "children": [
        21
      ],
      "name": "Material3_6"
    },
    {
      "mesh": 7,
      "name": "Material3"
    },
    {
      "children": [
        23
      ],
      "name": "Material3_7"
    },
    {
      "mesh": 8,
      "name": "Material3"
    },
    {
      "children": [
        25
      ],
      "name": "Material3_8"
    },
    {
      "mesh": 9,
      "name": "Material3"
    },
    {
      "children": [
        27
      ],
      "name": "Material3_9"
    },
    {
      "mesh": 10,
      "name": "Material3"
    },
    {
      "children": [
        29
      ],
      "name": "Material3_10"
    },
    {
      "mesh": 11,
      "name": "Material3"
    }
  ],
  "samplers": [
    {
      "magFilter": 9729,
      "minFilter": 9987,
      "wrapS": 10497,
      "wrapT": 10497
    }
  ],
  "scene": 0,
  "scenes": [
    {
      "name": "Sketchfab_Scene",
      "nodes": [
        0
      ]
    }
  ],
  "textures": [
    {
      "sampler": 0,
      "source": 0
    },
    {
      "sampler": 0,
      "source": 1
    },
    {
      "sampler": 0,
      "source": 2
    },
    {
      "sampler": 0,
      "source": 3
    },
    {
      "sampler": 0,
      "source": 4
    },
    {
      "sampler": 0,
      "source": 5
    },
    {
      "sampler": 0,
      "source": 6
    },
    {
      "sampler": 0,
      "source": 7
    },
    {
      "sampler": 0,
      "source": 8
    },
    {
      "sampler": 0,
      "source": 9
    }
  ]
}
