{
  "accessors": [
    {
      "bufferView": 3,
      "componentType": 5126,
      "count": 5065,
      "max": [
        755.0869750976563,
        1626.0107421875,
        187.78790283203125
      ],
      "min": [
        -755.0869750976563,
        -6.148796273919288e-06,
        -99.30024719238281
      ],
      "type": "VEC3"
    },
    {
      "bufferView": 3,
      "byteOffset": 60780,
      "componentType": 5126,
      "count": 5065,
      "max": [
        0.9999852776527405,
        0.9999973773956299,
        0.9999167919158936
      ],
      "min": [
        -0.9999852776527405,
        -1.0,
        -0.9999999403953552
      ],
      "type": "VEC3"
    },
    {
      "bufferView": 2,
      "componentType": 5126,
      "count": 5065,
      "max": [
        0.9663913249969482,
        0.9945059418678284
      ],
      "min": [
        0.05452430248260498,
        0.026429815217852592
      ],
      "type": "VEC2"
    },
    {
      "bufferView": 1,
      "componentType": 5125,
      "count": 28422,
      "type": "SCALAR"
    },
    {
      "bufferView": 3,
      "byteOffset": 121560,
      "componentType": 5126,
      "count": 694,
      "max": [
        260.8973693847656,
        1271.2830810546875,
        124.37937927246094
      ],
      "min": [
        -260.8973693847656,
        698.2764892578125,
        -96.75656127929688
      ],
      "type": "VEC3"
    },
    {
      "bufferView": 3,
      "byteOffset": 129888,
      "componentType": 5126,
      "count": 694,
      "max": [
        0.9999760985374451,
        0.9976144433021545,
        0.9999223351478577
      ],
      "min": [
        -0.9999760985374451,
        -0.9999212622642517,
        -0.99997478723526
      ],
      "type": "VEC3"
    },
    {
      "bufferView": 2,
      "byteOffset": 40520,
      "componentType": 5126,
      "count": 694,
      "max": [
        0.24054557085037231,
        0.9960260391235352
      ],
      "min": [
        0.013829740695655346,
        0.5015619993209839
      ],
      "type": "VEC2"
    },
    {
      "bufferView": 1,
      "byteOffset": 113688,
      "componentType": 5125,
      "count": 3336,
      "type": "SCALAR"
    },
    {
      "bufferView": 3,
      "byteOffset": 138216,
      "componentType": 5126,
      "count": 346,
      "max": [
        148.0567626953125,
        96.87886047363281,
        159.9744110107422
      ],
      "min": [
        -148.32479858398438,
        -2.9966955184936523,
        -80.003662109375
      ],
      "type": "VEC3"
    },
    {
      "bufferView": 3,
      "byteOffset": 142368,
      "componentType": 5126,
      "count": 346,
      "max": [
        0.9930924773216248,
        0.9928638339042664,
        0.9855262637138367
      ],
      "min": [
        -0.9930924773216248,
        -0.9999999403953552,
        -0.9837587475776672
      ],
      "type": "VEC3"
    },
    {
      "bufferView": 2,
      "byteOffset": 46072,
      "componentType": 5126,
      "count": 346,
      "max": [
        0.9792500138282776,
        0.4912544786930084
      ],
      "min": [
        0.2653375267982483,
        0.006136623211205006
      ],
      "type": "VEC2"
    },
    {
      "bufferView": 1,
      "byteOffset": 127032,
      "componentType": 5125,
      "count": 1128,
      "type": "SCALAR"
    },
    {
      "bufferView": 5,
      "componentType": 5126,
      "count": 76,
      "max": [
        1.0,
        0.35098621249198914,
        1.0,
        0.0,
        1.0,
        1.0000001192092896,
        0.9959894418716431,
        0.0,
        1.0,
        1.0,
        1.000000238418579,
        0.0,
        717.4498901367188,
        232.0445556640625,
        1208.679443359375,
        1.0
      ],
      "min": [
        -1.0,
        -0.35098591446876526,
        -1.0,
        0.0,
        -0.9993702173233032,
        -0.29066628217697144,
        -0.9959895014762878,
        0.0,
        -0.3494204878807068,
        -0.01105440966784954,
        -0.9999998807907104,
        0.0,
        -1338.350830078125,
        -1367.4947509765625,
        -1208.679443359375,
        1.0
      ],
      "type": "MAT4"
    },
    {
      "bufferView": 0,
      "componentType": 5123,
      "count": 5065,
      "type": "VEC4"
    },
    {
      "bufferView": 4,
      "componentType": 5126,
      "count": 5065,
      "max": [
        1.0,
        0.5,
        0.30496689677238464,
        0.12467995285987854
      ],
      "min": [
        0.36518606543540955,
        0.0,
        0.0,
        0.0
      ],
      "type": "VEC4"
    },
    {
      "bufferView": 0,
      "byteOffset": 40520,
      "componentType": 5123,
      "count": 694,
      "type": "VEC4"
    },
    {
      "bufferView": 4,
      "byteOffset": 81040,
      "componentType": 5126,
      "count": 694,
      "max": [
        1.0,
        0.4904082715511322,
        0.2617715001106262,
        0.12460588663816452
      ],
      "min": [
        0.4064895808696747,
        0.0,
        0.0,
        0.0
      ],
      "type": "VEC4"
    },
    {
      "bufferView": 0,
      "byteOffset": 46072,
      "componentType": 5123,
      "count": 346,
      "type": "VEC4"
    },
    {
      "bufferView": 4,
      "byteOffset": 92144,
      "componentType": 5126,
      "count": 346,
      "max": [
        1.0,
        0.49964404106140137,
        0.20838186144828796,
        0.0
      ],
      "min": [
        0.5003559589385986,
        0.0,
        0.0,
        0.0
      ],
      "type": "VEC4"
    },
    {
      "bufferView": 6,
      "componentType": 5126,
      "count": 32,
      "max": [
        1.0333333015441895
      ],
      "min": [
        0.0
      ],
      "type": "SCALAR"
    },
    {
      "bufferView": 8,
      "componentType": 5126,
      "count": 32,
      "max": [
        0.009563866071403027,
        0.03868801146745682,
        0.41757339239120483,
        0.9898554682731628
      ],
      "min": [
        -0.07155152410268784,
        -0.014409803785383701,
        0.14102159440517426,
        0.9079616665840149
      ],
      "type": "VEC4"
    },
    {
      "bufferView": 6,
      "byteOffset": 128,
      "componentType": 5126,
      "count": 29,
      "max": [
        1.0333333015441895
      ],
      "min": [
        0.0
      ],
      "type": "SCALAR"
    },
    {
      "bufferView": 7,
      "componentType": 5126,
      "count": 29,
      "max": [
        322.89044189453125,
        3.814697265625e-06,
        1.4210854715202004e-14
      ],
      "min": [
        322.89044189453125,
        3.814697265625e-06,
        -2.842170943040401e-14
      ],
      "type": "VEC3"
    },
    {
      "bufferView": 6,
      "byteOffset": 244,
      "componentType": 5126,
      "count": 32,
      "max": [
        1.0333333015441895
      ],
      "min": [
        0.0
      ],
      "type": "SCALAR"
    },
    {
      "bufferView": 8,
      "byteOffset": 512,
      "componentType": 5126,
      "count": 32,
      "max": [
        0.05140598863363266,
        0.08244483917951584,
        0.7737328410148621,
        0.8094785213470459
      ],
      "min": [
        -0.016232935711741447,
        -0.0005265660001896322,
        0.5834575891494751,
        0.6301575303077698
      ],
      "type": "VEC4"
    },
    {
      "bufferView": 6,
      "byteOffset": 372,
      "componentType": 5126,
      "count": 32,
      "max": [
        1.0333333015441895
      ],
      "min": [
        0.0
      ],
      "type": "SCALAR"
    },
    {
      "bufferView": 8,
      "byteOffset": 1024,
      "componentType": 5126,
      "count": 32,
      "max": [
        0.19248636066913605,
        0.014955157414078712,
        -0.13648457825183868,
        0.9832173585891724
      ],
      "min": [
        -0.040928229689598083,
        -0.032258037477731705,
        -0.6006355285644531,
        0.7981168627738953
      ],
      "type": "VEC4"
    },
    {
      "bufferView": 6,
      "byteOffset": 500,
      "componentType": 5126,
      "count": 32,
      "max": [
        1.0333333015441895
      ],
      "min": [
        0.0
      ],
      "type": "SCALAR"
    },
    {
      "bufferView": 8,
      "byteOffset": 1536,
      "componentType": 5126,
      "count": 32,
      "max": [
        0.3670097291469574,
        0.9964836239814758,
        0.10296398401260376,
        0.0028201506938785315
      ],
      "min": [
        -0.1555425077676773,
        0.9293193817138672,
        0.028400737792253494,
        -0.07523693889379501
      ],
      "type": "VEC4"
    },
    {
      "bufferView": 6,
      "byteOffset": 628,
      "componentType": 5126,
      "count": 32,
      "max": [
        1.0333333015441895
      ],
      "min": [
        0.0
      ],
      "type": "SCALAR"
    },
    {
      "bufferView": 8,
      "byteOffset": 2048,
      "componentType": 5126,
      "count": 32,
      "max": [
        0.08784586936235428,
        0.02116282470524311,
        0.5794891715049744,
        0.9907029867172241
      ],
      "min": [
        -0.004142007790505886,
        -0.026349129155278206,
        0.1357928067445755,
        0.814899206161499
      ],
      "type": "VEC4"
    },
    {
      "bufferView": 6,
      "byteOffset": 756,
      "componentType": 5126,
      "count": 31,
      "max": [
        1.0333333015441895
      ],
      "min": [
        0.0
      ],
      "type": "SCALAR"
    },
    {
      "bufferView": 7,
      "byteOffset": 348,
      "componentType": 5126,
      "count": 31,
      "max": [
        322.8905029296875,
        5.684341886080802e-14,
        2.842170943040401e-14
      ],
      "min": [
        322.8905029296875,
        -1.1368683772161603e-13,
        -2.842170943040401e-14
      ],
      "type": "VEC3"
    },
    {
      "bufferView": 6,
      "byteOffset": 880,
      "componentType": 5126,
      "count": 32,
      "max": [
        1.0333333015441895
      ],
      "min": [
        0.0
      ],
      "type": "SCALAR"
    },
    {
      "bufferView": 8,
      "byteOffset": 2560,
      "componentType": 5126,
      "count": 32,
      "max": [
        0.019507231190800667,
        0.005735076032578945,
        0.7499181628227234,
        0.8748976588249207
      ],
      "min": [
        -0.05884275585412979,
        -0.06720686703920364,
        0.48421570658683777,
        0.6592051982879639
      ],
      "type": "VEC4"
    },
    {
      "bufferView": 6,
      "byteOffset": 1008,
      "componentType": 5126,
      "count": 32,
      "max": [
        1.0333333015441895
      ],
      "min": [
        0.0
      ],
      "type": "SCALAR"
    },
    {
      "bufferView": 8,
      "byteOffset": 3072,
      "componentType": 5126,
      "count": 32,
      "max": [
        0.033449213951826096,
        0.03411596268415451,
        -0.11082678288221359,
        0.9934438467025757
      ],
      "min": [
        -0.1300092488527298,
        -0.01630021072924137,
        -0.521350622177124,
        0.8532814383506775
      ],
      "type": "VEC4"
    },
    {
      "bufferView": 6,
      "byteOffset": 1136,
      "componentType": 5126,
      "count": 32,
      "max": [
        1.0333333015441895
      ],
      "min": [
        0.0
      ],
      "type": "SCALAR"
    },
    {
      "bufferView": 8,
      "byteOffset": 3584,
      "componentType": 5126,
      "count": 32,
      "max": [
        0.37831124663352966,
        0.9968388080596924,
        -0.03459078073501587,
        0.03819475695490837
      ],
      "min": [
        -0.1743452101945877,
        0.9246367812156677,
        -0.1044955626130104,
        -0.03357598930597305
      ],
      "type": "VEC4"
    },
    {
      "bufferView": 6,
      "byteOffset": 1264,
      "componentType": 5126,
      "count": 1,
      "max": [
        0.0
      ],
      "min": [
        0.0
      ],
      "type": "SCALAR"
    },
    {
      "bufferView": 8,
      "byteOffset": 4096,
      "componentType": 5126,
      "count": 1,
      "max": [
        -0.010827193036675453,
        0.06100522354245186,
        -0.022778909653425217,
        0.9978187680244446
      ],
      "min": [
        -0.010827193036675453,
        0.06100522354245186,
        -0.022778909653425217,
        0.9978187680244446
      ],
      "type": "VEC4"
    },
    {
      "bufferView": 6,
      "byteOffset": 1268,
      "componentType": 5126,
      "count": 1,
      "max": [
        0.0
      ],
      "min": [
        0.0
      ],
      "type": "SCALAR"
    },
    {
      "bufferView": 8,
      "byteOffset": 4112,
      "componentType": 5126,
      "count": 1,
      "max": [
        0.20315013825893402,
        -0.28595900535583496,
        -0.17055560648441315,
        0.9207976460456848
      ],
      "min": [
        0.20315013825893402,
        -0.28595900535583496,
        -0.17055560648441315,
        0.9207976460456848
      ],
      "type": "VEC4"
    },
    {
      "bufferView": 6,
      "byteOffset": 1272,
      "componentType": 5126,
      "count": 30,
      "max": [
        1.0333333015441895
      ],
      "min": [
        0.0
      ],
      "type": "SCALAR"
    },
    {
      "bufferView": 7,
      "byteOffset": 720,
      "componentType": 5126,
      "count": 30,
      "max": [
        31.980316162109375,
        1.1368683772161603e-13,
        3.814697265625e-06
      ],
      "min": [
        31.980316162109375,
        -5.684341886080802e-14,
        3.814697265625e-06
      ],
      "type": "VEC3"
    },
    {
      "bufferView": 6,
      "byteOffset": 1392,
      "componentType": 5126,
      "count": 32,
      "max": [
        1.0333333015441895
      ],
      "min": [
        0.0
      ],
      "type": "SCALAR"
    },
    {
      "bufferView": 8,
      "byteOffset": 4128,
      "componentType": 5126,
      "count": 32,
      "max": [
        -0.00731585081666708,
        -0.05446687340736389,
        -0.5024188756942749,
        0.8628760576248169
      ],
      "min": [
        -0.011645276099443436,
        -0.07987528294324875,
        -0.653372585773468,
        0.7527207732200623
      ],
      "type": "VEC4"
    },
    {
      "bufferView": 6,
      "byteOffset": 1520,
      "componentType": 5126,
      "count": 32,
      "max": [
        1.0333333015441895
      ],
      "min": [
        0.0
      ],
      "type": "SCALAR"
    },
    {
      "bufferView": 8,
      "byteOffset": 4640,
      "componentType": 5126,
      "count": 32,
      "max": [
        0.01757974363863468,
        -0.09038305282592773,
        -0.23315532505512238,
        0.967678964138031
      ],
      "min": [
        0.009556280449032784,
        -0.10866352170705795,
        -0.32034456729888916,
        0.9429244995117188
      ],
      "type": "VEC4"
    },
    {
      "bufferView": 6,
      "byteOffset": 1648,
      "componentType": 5126,
      "count": 31,
      "max": [
        1.0333333015441895
      ],
      "min": [
        0.0
      ],
      "type": "SCALAR"
    },
    {
      "bufferView": 7,
      "byteOffset": 1080,
      "componentType": 5126,
      "count": 31,
      "max": [
        39.05322265625,
        0.0001220703125,
        1.1368683772161603e-13
      ],
      "min": [
        39.05322265625,
        0.0001220703125,
        -1.1368683772161603e-13
      ],
      "type": "VEC3"
    },
    {
      "bufferView": 6,
      "byteOffset": 1772,
      "componentType": 5126,
      "count": 32,
      "max": [
        1.0333333015441895
      ],
      "min": [
        0.0
      ],
      "type": "SCALAR"
    },
    {
      "bufferView": 8,
      "byteOffset": 5152,
      "componentType": 5126,
      "count": 32,
      "max": [
        -0.0011874891351908445,
        -0.08962150663137436,
        -0.6433396339416504,
        0.7603161931037903
      ],
      "min": [
        -0.002702706027776003,
        -0.10964413732290268,
        -0.7730348706245422,
        0.6248108744621277
      ],
      "type": "VEC4"
    },
    {
      "bufferView": 6,
      "byteOffset": 1900,
      "componentType": 5126,
      "count": 32,
      "max": [
        1.0333333015441895
      ],
      "min": [
        0.0
      ],
      "type": "SCALAR"
    },
    {
      "bufferView": 8,
      "byteOffset": 5664,
      "componentType": 5126,
      "count": 32,
      "max": [
        -0.002937131328508258,
        -0.1365341991186142,
        -0.3985966145992279,
        0.9066907167434692
      ],
      "min": [
        -0.01214398629963398,
        -0.14956916868686676,
        -0.4785293638706207,
        0.8672419190406799
      ],
      "type": "VEC4"
    },
    {
      "bufferView": 6,
      "byteOffset": 2028,
      "componentType": 5126,
      "count": 32,
      "max": [
        1.0333333015441895
      ],
      "min": [
        0.0
      ],
      "type": "SCALAR"
    },
    {
      "bufferView": 7,
      "byteOffset": 1452,
      "componentType": 5126,
      "count": 32,
      "max": [
        31.91851806640625,
        8.526512829121202e-14,
        5.684341886080802e-14
      ],
      "min": [
        31.91851806640625,
        -5.684341886080802e-14,
        -5.684341886080802e-14
      ],
      "type": "VEC3"
    },
    {
      "bufferView": 6,
      "byteOffset": 2156,
      "componentType": 5126,
      "count": 32,
      "max": [
        1.0333333015441895
      ],
      "min": [
        0.0
      ],
      "type": "SCALAR"
    },
    {
      "bufferView": 8,
      "byteOffset": 6176,
      "componentType": 5126,
      "count": 32,
      "max": [
        0.008669615723192692,
        -0.07116401940584183,
        -0.6634872555732727,
        0.7447488903999329
      ],
      "min": [
        0.008333348669111729,
        -0.08280087262392044,
        -0.7909579873085022,
        0.6061803698539734
      ],
      "type": "VEC4"
    },
    {
      "bufferView": 6,
      "byteOffset": 2284,
      "componentType": 5126,
      "count": 32,
      "max": [
        1.0333333015441895
      ],
      "min": [
        0.0
      ],
      "type": "SCALAR"
    },
    {
      "bufferView": 8,
      "byteOffset": 6688,
      "componentType": 5126,
      "count": 32,
      "max": [
        -0.06630624830722809,
        -0.08470150083303452,
        -0.41559451818466187,
        0.9025399088859558
      ],
      "min": [
        -0.08032451570034027,
        -0.09693949669599533,
        -0.49362775683403015,
        0.8611598610877991
      ],
      "type": "VEC4"
    },
    {
      "bufferView": 6,
      "byteOffset": 2412,
      "componentType": 5126,
      "count": 32,
      "max": [
        1.0333333015441895
      ],
      "min": [
        0.0
      ],
      "type": "SCALAR"
    },
    {
      "bufferView": 8,
      "byteOffset": 7200,
      "componentType": 5126,
      "count": 32,
      "max": [
        0.034988563507795334,
        -0.0781291201710701,
        -0.6007188558578491,
        0.7950881719589233
      ],
      "min": [
        0.029453052207827568,
        -0.08256920427083969,
        -0.739337146282196,
        0.6673370599746704
      ],
      "type": "VEC4"
    },
    {
      "bufferView": 6,
      "byteOffset": 2540,
      "componentType": 5126,
      "count": 32,
      "max": [
        1.0333333015441895
      ],
      "min": [
        0.0
      ],
      "type": "SCALAR"
    },
    {
      "bufferView": 8,
      "byteOffset": 7712,
      "componentType": 5126,
      "count": 32,
      "max": [
        -0.10179129242897034,
        -0.08059030026197433,
        -0.49432331323623657,
        0.8584815263748169
      ],
      "min": [
        -0.118251733481884,
        -0.09230215102434158,
        -0.5670803189277649,
        0.809925377368927
      ],
      "type": "VEC4"
    },
    {
      "bufferView": 6,
      "byteOffset": 2668,
      "componentType": 5126,
      "count": 32,
      "max": [
        1.0333333015441895
      ],
      "min": [
        0.0
      ],
      "type": "SCALAR"
    },
    {
      "bufferView": 8,
      "byteOffset": 8224,
      "componentType": 5126,
      "count": 32,
      "max": [
        -0.5609239935874939,
        0.06238187476992607,
        0.10570409893989563,
        0.8274958729743958
      ],
      "min": [
        -0.6649566292762756,
        -0.016879575327038765,
        -0.16200532019138336,
        0.7400205135345459
      ],
      "type": "VEC4"
    },
    {
      "bufferView": 6,
      "byteOffset": 2796,
      "componentType": 5126,
      "count": 32,
      "max": [
        1.0333333015441895
      ],
      "min": [
        0.0
      ],
      "type": "SCALAR"
    },
    {
      "bufferView": 7,
      "byteOffset": 1836,
      "componentType": 5126,
      "count": 32,
      "max": [
        228.20538330078125,
        5.684341886080802e-14,
        1.1368683772161603e-13
      ],
      "min": [
        228.20538330078125,
        -5.684341886080802e-14,
        -1.1368683772161603e-13
      ],
      "type": "VEC3"
    },
    {
      "bufferView": 6,
      "byteOffset": 2924,
      "componentType": 5126,
      "count": 32,
      "max": [
        1.0333333015441895
      ],
      "min": [
        0.0
      ],
      "type": "SCALAR"
    },
    {
      "bufferView": 8,
      "byteOffset": 8736,
      "componentType": 5126,
      "count": 32,
      "max": [
        0.25417548418045044,
        -0.028686610981822014,
        0.4868708550930023,
        0.9464510083198547
      ],
      "min": [
        0.17528273165225983,
        -0.0878765806555748,
        0.20929375290870667,
        0.854749858379364
      ],
      "type": "VEC4"
    },
    {
      "bufferView": 6,
      "byteOffset": 3052,
      "componentType": 5126,
      "count": 31,
      "max": [
        1.0333333015441895
      ],
      "min": [
        0.0
      ],
      "type": "SCALAR"
    },
    {
      "bufferView": 7,
      "byteOffset": 2220,
      "componentType": 5126,
      "count": 31,
      "max": [
        104.8695297241211,
        3.0517578125e-05,
        2.2737367544323206e-13
      ],
      "min": [
        104.8695297241211,
        3.0517578125e-05,
        -2.2737367544323206e-13
      ],
      "type": "VEC3"
    },
    {
      "bufferView": 6,
      "byteOffset": 3176,
      "componentType": 5126,
      "count": 32,
      "max": [
        1.0333333015441895
      ],
      "min": [
        0.0
      ],
      "type": "SCALAR"
    },
    {
      "bufferView": 8,
      "byteOffset": 9248,
      "componentType": 5126,
      "count": 32,
      "max": [
        0.13554884493350983,
        -0.3774310350418091,
        0.16717775166034698,
        0.9160304665565491
      ],
      "min": [
        0.04717978462576866,
        -0.4713757038116455,
        -0.16313748061656952,
        0.8672263026237488
      ],
      "type": "VEC4"
    },
    {
      "bufferView": 6,
      "byteOffset": 3304,
      "componentType": 5126,
      "count": 32,
      "max": [
        1.0333333015441895
      ],
      "min": [
        0.0
      ],
      "type": "SCALAR"
    },
    {
      "bufferView": 8,
      "byteOffset": 9760,
      "componentType": 5126,
      "count": 32,
      "max": [
        0.04390687867999077,
        -0.7889887690544128,
        -0.042121078819036484,
        0.6075077652931213
      ],
      "min": [
        0.004821657203137875,
        -0.8141830563545227,
        -0.08393283188343048,
        0.5779942870140076
      ],
      "type": "VEC4"
    },
    {
      "bufferView": 6,
      "byteOffset": 3432,
      "componentType": 5126,
      "count": 31,
      "max": [
        1.0333333015441895
      ],
      "min": [
        0.0
      ],
      "type": "SCALAR"
    },
    {
      "bufferView": 7,
      "byteOffset": 2592,
      "componentType": 5126,
      "count": 31,
      "max": [
        22.303253173828125,
        6.103515625e-05,
        5.684341886080802e-14
      ],
      "min": [
        22.303253173828125,
        6.103515625e-05,
        -7.105427357601002e-14
      ],
      "type": "VEC3"
    },
    {
      "bufferView": 6,
      "byteOffset": 3556,
      "componentType": 5126,
      "count": 32,
      "max": [
        1.0333333015441895
      ],
      "min": [
        0.0
      ],
      "type": "SCALAR"
    },
    {
      "bufferView": 8,
      "byteOffset": 10272,
      "componentType": 5126,
      "count": 32,
      "max": [
        -0.14694128930568695,
        -0.03707359731197357,
        -0.10573538392782211,
        0.9779146313667297
      ],
      "min": [
        -0.19723741710186005,
        -0.08614085614681244,
        -0.18141384422779083,
        0.962013840675354
      ],
      "type": "VEC4"
    },
    {
      "bufferView": 6,
      "byteOffset": 3684,
      "componentType": 5126,
      "count": 32,
      "max": [
        1.0333333015441895
      ],
      "min": [
        0.0
      ],
      "type": "SCALAR"
    },
    {
      "bufferView": 8,
      "byteOffset": 10784,
      "componentType": 5126,
      "count": 32,
      "max": [
        -0.160427063703537,
        0.3360131084918976,
        -0.03804023191332817,
        0.9461174011230469
      ],
      "min": [
        -0.19545294344425201,
        0.27668845653533936,
        -0.12021811306476593,
        0.9177513718605042
      ],
      "type": "VEC4"
    },
    {
      "bufferView": 6,
      "byteOffset": 3812,
      "componentType": 5126,
      "count": 30,
      "max": [
        1.0333333015441895
      ],
      "min": [
        0.0
      ],
      "type": "SCALAR"
    },
    {
      "bufferView": 7,
      "byteOffset": 2964,
      "componentType": 5126,
      "count": 30,
      "max": [
        31.980499267578125,
        0.0001220703125,
        1.1368683772161603e-13
      ],
      "min": [
        31.980499267578125,
        0.0001220703125,
        -5.684341886080802e-14
      ],
      "type": "VEC3"
    },
    {
      "bufferView": 6,
      "byteOffset": 3932,
      "componentType": 5126,
      "count": 32,
      "max": [
        1.0333333015441895
      ],
      "min": [
        0.0
      ],
      "type": "SCALAR"
    },
    {
      "bufferView": 8,
      "byteOffset": 11296,
      "componentType": 5126,
      "count": 32,
      "max": [
        0.027388036251068115,
        0.06237507611513138,
        -0.5066604018211365,
        0.8607330918312073
      ],
      "min": [
        0.023631783202290535,
        0.043290652334690094,
        -0.6232938170433044,
        0.7790172100067139
      ],
      "type": "VEC4"
    },
    {
      "bufferView": 6,
      "byteOffset": 4060,
      "componentType": 5126,
      "count": 32,
      "max": [
        1.0333333015441895
      ],
      "min": [
        0.0
      ],
      "type": "SCALAR"
    },
    {
      "bufferView": 8,
      "byteOffset": 11808,
      "componentType": 5126,
      "count": 32,
      "max": [
        0.0169038325548172,
        0.06589607894420624,
        -0.23298680782318115,
        0.9713824391365051
      ],
      "min": [
        0.01374847162514925,
        0.04298510029911995,
        -0.4092644453048706,
        0.9099287986755371
      ],
      "type": "VEC4"
    },
    {
      "bufferView": 6,
      "byteOffset": 4188,
      "componentType": 5126,
      "count": 32,
      "max": [
        1.0333333015441895
      ],
      "min": [
        0.0
      ],
      "type": "SCALAR"
    },
    {
      "bufferView": 8,
      "byteOffset": 12320,
      "componentType": 5126,
      "count": 32,
      "max": [
        0.031497448682785034,
        0.07909149676561356,
        -0.5452662110328674,
        0.8356190919876099
      ],
      "min": [
        0.029333582147955894,
        0.059700969606637955,
        -0.6608224511146545,
        0.7456986904144287
      ],
      "type": "VEC4"
    },
    {
      "bufferView": 6,
      "byteOffset": 4316,
      "componentType": 5126,
      "count": 32,
      "max": [
        1.0333333015441895
      ],
      "min": [
        0.0
      ],
      "type": "SCALAR"
    },
    {
      "bufferView": 8,
      "byteOffset": 12832,
      "componentType": 5126,
      "count": 32,
      "max": [
        0.028332067653536797,
        0.08422254025936127,
        -0.3228697180747986,
        0.9438479542732239
      ],
      "min": [
        0.02444358915090561,
        0.06408277899026871,
        -0.4636858403682709,
        0.8816468715667725
      ],
      "type": "VEC4"
    },
    {
      "bufferView": 6,
      "byteOffset": 4444,
      "componentType": 5126,
      "count": 32,
      "max": [
        1.0333333015441895
      ],
      "min": [
        0.0
      ],
      "type": "SCALAR"
    },
    {
      "bufferView": 7,
      "byteOffset": 3324,
      "componentType": 5126,
      "count": 32,
      "max": [
        31.91864013671875,
        5.684341886080802e-14,
        5.684341886080802e-14
      ],
      "min": [
        31.91864013671875,
        -5.684341886080802e-14,
        -5.684341886080802e-14
      ],
      "type": "VEC3"
    },
    {
      "bufferView": 6,
      "byteOffset": 4572,
      "componentType": 5126,
      "count": 32,
      "max": [
        1.0333333015441895
      ],
      "min": [
        0.0
      ],
      "type": "SCALAR"
    },
    {
      "bufferView": 8,
      "byteOffset": 13344,
      "componentType": 5126,
      "count": 32,
      "max": [
        -0.019945714622735977,
        0.089981809258461,
        -0.5911842584609985,
        0.8025299310684204
      ],
      "min": [
        -0.0205317884683609,
        0.07777528464794159,
        -0.710675835609436,
        0.6974427103996277
      ],
      "type": "VEC4"
    },
    {
      "bufferView": 6,
      "byteOffset": 4700,
      "componentType": 5126,
      "count": 32,
      "max": [
        1.0333333015441895
      ],
      "min": [
        0.0
      ],
      "type": "SCALAR"
    },
    {
      "bufferView": 8,
      "byteOffset": 13856,
      "componentType": 5126,
      "count": 32,
      "max": [
        0.003638501977548003,
        0.10466397553682327,
        -0.310848593711853,
        0.9466605186462402
      ],
      "min": [
        -0.004699894227087498,
        0.06347865611314774,
        -0.4424256980419159,
        0.8907591104507446
      ],
      "type": "VEC4"
    },
    {
      "bufferView": 6,
      "byteOffset": 4828,
      "componentType": 5126,
      "count": 32,
      "max": [
        1.0333333015441895
      ],
      "min": [
        0.0
      ],
      "type": "SCALAR"
    },
    {
      "bufferView": 7,
      "byteOffset": 3708,
      "componentType": 5126,
      "count": 32,
      "max": [
        24.50079345703125,
        1.1368683772161603e-13,
        5.684341886080802e-14
      ],
      "min": [
        24.50079345703125,
        -1.1368683772161603e-13,
        -5.684341886080802e-14
      ],
      "type": "VEC3"
    },
    {
      "bufferView": 6,
      "byteOffset": 4956,
      "componentType": 5126,
      "count": 32,
      "max": [
        1.0333333015441895
      ],
      "min": [
        0.0
      ],
      "type": "SCALAR"
    },
    {
      "bufferView": 8,
      "byteOffset": 14368,
      "componentType": 5126,
      "count": 32,
      "max": [
        -0.04532846435904503,
        0.12070631980895996,
        -0.6369187831878662,
        0.7611757516860962
      ],
      "min": [
        -0.05079638585448265,
        0.11351678520441055,
        -0.7447697520256042,
        0.6543596982955933
      ],
      "type": "VEC4"
    },
    {
      "bufferView": 6,
      "byteOffset": 5084,
      "componentType": 5126,
      "count": 32,
      "max": [
        1.0333333015441895
      ],
      "min": [
        0.0
      ],
      "type": "SCALAR"
    },
    {
      "bufferView": 8,
      "byteOffset": 14880,
      "componentType": 5126,
      "count": 32,
      "max": [
        -0.010517414659261703,
        0.13371168076992035,
        -0.2805258631706238,
        0.9538919925689697
      ],
      "min": [
        -0.01911989599466324,
        0.10619719326496124,
        -0.410274863243103,
        0.9026557207107544
      ],
      "type": "VEC4"
    },
    {
      "bufferView": 6,
      "byteOffset": 5212,
      "componentType": 5126,
      "count": 23,
      "max": [
        1.0333333015441895
      ],
      "min": [
        0.0
      ],
      "type": "SCALAR"
    },
    {
      "bufferView": 7,
      "byteOffset": 4092,
      "componentType": 5126,
      "count": 23,
      "max": [
        211.86618041992188,
        1.1368683772161603e-13,
        -0.0001220703125
      ],
      "min": [
        211.86618041992188,
        -1.1368683772161603e-13,
        -0.0001220703125
      ],
      "type": "VEC3"
    },
    {
      "bufferView": 6,
      "byteOffset": 5304,
      "componentType": 5126,
      "count": 32,
      "max": [
        1.0333333015441895
      ],
      "min": [
        0.0
      ],
      "type": "SCALAR"
    },
    {
      "bufferView": 8,
      "byteOffset": 15392,
      "componentType": 5126,
      "count": 32,
      "max": [
        0.6885918974876404,
        0.016143565997481346,
        0.13946978747844696,
        0.8246516585350037
      ],
      "min": [
        0.5615778565406799,
        -0.12585152685642242,
        -0.12235194444656372,
        0.7215138673782349
      ],
      "type": "VEC4"
    },
    {
      "bufferView": 6,
      "byteOffset": 5432,
      "componentType": 5126,
      "count": 30,
      "max": [
        1.0333333015441895
      ],
      "min": [
        0.0
      ],
      "type": "SCALAR"
    },
    {
      "bufferView": 7,
      "byteOffset": 4368,
      "componentType": 5126,
      "count": 30,
      "max": [
        228.20535278320313,
        -3.814697265625e-06,
        1.1368683772161603e-13
      ],
      "min": [
        228.20535278320313,
        -3.814697265625e-06,
        -1.1368683772161603e-13
      ],
      "type": "VEC3"
    },
    {
      "bufferView": 6,
      "byteOffset": 5552,
      "componentType": 5126,
      "count": 32,
      "max": [
        1.0333333015441895
      ],
      "min": [
        0.0
      ],
      "type": "SCALAR"
    },
    {
      "bufferView": 8,
      "byteOffset": 15904,
      "componentType": 5126,
      "count": 32,
      "max": [
        -0.12572529911994934,
        0.1274789720773697,
        0.4584922790527344,
        0.9684686660766602
      ],
      "min": [
        -0.266139417886734,
        -0.05842556804418564,
        0.12953081727027893,
        0.8752608895301819
      ],
      "type": "VEC4"
    },
    {
      "bufferView": 6,
      "byteOffset": 5680,
      "componentType": 5126,
      "count": 25,
      "max": [
        1.0333333015441895
      ],
      "min": [
        0.0
      ],
      "type": "SCALAR"
    },
    {
      "bufferView": 7,
      "byteOffset": 4728,
      "componentType": 5126,
      "count": 25,
      "max": [
        104.8695297241211,
        1.52587890625e-05,
        4.547473508864641e-13
      ],
      "min": [
        104.8695297241211,
        1.52587890625e-05,
        -2.2737367544323206e-13
      ],
      "type": "VEC3"
    },
    {
      "bufferView": 6,
      "byteOffset": 5780,
      "componentType": 5126,
      "count": 32,
      "max": [
        1.0333333015441895
      ],
      "min": [
        0.0
      ],
      "type": "SCALAR"
    },
    {
      "bufferView": 8,
      "byteOffset": 16416,
      "componentType": 5126,
      "count": 32,
      "max": [
        0.015053950250148773,
        0.5094195008277893,
        0.20280885696411133,
        0.8934188485145569
      ],
      "min": [
        -0.20403146743774414,
        0.4268680214881897,
        -0.13782289624214172,
        0.8461478352546692
      ],
      "type": "VEC4"
    },
    {
      "bufferView": 6,
      "byteOffset": 5908,
      "componentType": 5126,
      "count": 32,
      "max": [
        1.0333333015441895
      ],
      "min": [
        0.0
      ],
      "type": "SCALAR"
    },
    {
      "bufferView": 8,
      "byteOffset": 16928,
      "componentType": 5126,
      "count": 32,
      "max": [
        -0.04234299063682556,
        0.814635694026947,
        -0.09258610755205154,
        0.6297476291656494
      ],
      "min": [
        -0.1070294976234436,
        0.7692188024520874,
        -0.13585823774337769,
        0.5611797571182251
      ],
      "type": "VEC4"
    },
    {
      "bufferView": 6,
      "byteOffset": 6036,
      "componentType": 5126,
      "count": 32,
      "max": [
        1.0333333015441895
      ],
      "min": [
        0.0
      ],
      "type": "SCALAR"
    },
    {
      "bufferView": 7,
      "byteOffset": 5028,
      "componentType": 5126,
      "count": 32,
      "max": [
        57.2564697265625,
        1.4210854715202004e-14,
        1.4210854715202004e-14
      ],
      "min": [
        57.2564697265625,
        -1.4210854715202004e-14,
        -7.105427357601002e-15
      ],
      "type": "VEC3"
    },
    {
      "bufferView": 6,
      "byteOffset": 6164,
      "componentType": 5126,
      "count": 32,
      "max": [
        1.0333333015441895
      ],
      "min": [
        0.0
      ],
      "type": "SCALAR"
    },
    {
      "bufferView": 8,
      "byteOffset": 17440,
      "componentType": 5126,
      "count": 32,
      "max": [
        0.0038027733098715544,
        0.014346422627568245,
        0.009661437943577766,
        0.9999963045120239
      ],
      "min": [
        -0.006297146435827017,
        -0.008985965512692928,
        -0.006066407077014446,
        0.9998670816421509
      ],
      "type": "VEC4"
    },
    {
      "bufferView": 6,
      "byteOffset": 6292,
      "componentType": 5126,
      "count": 32,
      "max": [
        1.0333333015441895
      ],
      "min": [
        0.0
      ],
      "type": "SCALAR"
    },
    {
      "bufferView": 8,
      "byteOffset": 17952,
      "componentType": 5126,
      "count": 32,
      "max": [
        0.0038026925176382065,
        0.014346517622470856,
        0.009661545976996422,
        0.9999963045120239
      ],
      "min": [
        -0.00629715109243989,
        -0.008986128494143486,
        -0.006066237110644579,
        0.9998670816421509
      ],
      "type": "VEC4"
    },
    {
      "bufferView": 6,
      "byteOffset": 6420,
      "componentType": 5126,
      "count": 30,
      "max": [
        1.0333333015441895
      ],
      "min": [
        0.0
      ],
      "type": "SCALAR"
    },
    {
      "bufferView": 7,
      "byteOffset": 5412,
      "componentType": 5126,
      "count": 30,
      "max": [
        151.301025390625,
        -3.814697265625e-06,
        7.105427357601002e-15
      ],
      "min": [
        151.301025390625,
        -3.814697265625e-06,
        -2.1316282072803006e-14
      ],
      "type": "VEC3"
    },
    {
      "bufferView": 6,
      "byteOffset": 6540,
      "componentType": 5126,
      "count": 32,
      "max": [
        1.0333333015441895
      ],
      "min": [
        0.0
      ],
      "type": "SCALAR"
    },
    {
      "bufferView": 8,
      "byteOffset": 18464,
      "componentType": 5126,
      "count": 32,
      "max": [
        0.022761665284633636,
        0.007633951958268881,
        0.025817740708589554,
        0.9997404217720032
      ],
      "min": [
        -0.016992971301078796,
        -0.009205435402691364,
        0.018017563968896866,
        0.9994361400604248
      ],
      "type": "VEC4"
    },
    {
      "bufferView": 6,
      "byteOffset": 6668,
      "componentType": 5126,
      "count": 31,
      "max": [
        1.0333333015441895
      ],
      "min": [
        0.0
      ],
      "type": "SCALAR"
    },
    {
      "bufferView": 7,
      "byteOffset": 5772,
      "componentType": 5126,
      "count": 31,
      "max": [
        112.280029296875,
        -1.52587890625e-05,
        1.0658141036401503e-14
      ],
      "min": [
        112.280029296875,
        -1.52587890625e-05,
        -7.105427357601002e-15
      ],
      "type": "VEC3"
    },
    {
      "bufferView": 6,
      "byteOffset": 6792,
      "componentType": 5126,
      "count": 32,
      "max": [
        1.0333333015441895
      ],
      "min": [
        0.0
      ],
      "type": "SCALAR"
    },
    {
      "bufferView": 8,
      "byteOffset": 18976,
      "componentType": 5126,
      "count": 32,
      "max": [
        0.023296484723687172,
        0.0066799079068005085,
        0.09142973273992538,
        0.9963815808296204
      ],
      "min": [
        -0.01718396134674549,
        -0.0070122224278748035,
        0.08365731686353683,
        0.9956337213516235
      ],
      "type": "VEC4"
    },
    {
      "bufferView": 6,
      "byteOffset": 6920,
      "componentType": 5126,
      "count": 32,
      "max": [
        1.0333333015441895
      ],
      "min": [
        0.0
      ],
      "type": "SCALAR"
    },
    {
      "bufferView": 7,
      "byteOffset": 6144,
      "componentType": 5126,
      "count": 32,
      "max": [
        104.48297119140625,
        5.3290705182007514e-15,
        7.105427357601002e-15
      ],
      "min": [
        104.48297119140625,
        -3.552713678800501e-15,
        -7.105427357601002e-15
      ],
      "type": "VEC3"
    },
    {
      "bufferView": 6,
      "byteOffset": 7048,
      "componentType": 5126,
      "count": 32,
      "max": [
        1.0333333015441895
      ],
      "min": [
        0.0
      ],
      "type": "SCALAR"
    },
    {
      "bufferView": 8,
      "byteOffset": 19488,
      "componentType": 5126,
      "count": 32,
      "max": [
        0.023304583504796028,
        0.006659704260528088,
        -0.08011972159147263,
        0.9967045783996582
      ],
      "min": [
        -0.01718573458492756,
        -0.006966611836105585,
        -0.08789335936307907,
        0.9959407448768616
      ],
      "type": "VEC4"
    },
    {
      "bufferView": 6,
      "byteOffset": 7176,
      "componentType": 5126,
      "count": 31,
      "max": [
        1.0333333015441895
      ],
      "min": [
        0.0
      ],
      "type": "SCALAR"
    },
    {
      "bufferView": 7,
      "byteOffset": 6528,
      "componentType": 5126,
      "count": 31,
      "max": [
        122.65179443359375,
        -1.52587890625e-05,
        -5.8200555486109806e-11
      ],
      "min": [
        122.65179443359375,
        -1.52587890625e-05,
        -5.821476634082501e-11
      ],
      "type": "VEC3"
    },
    {
      "bufferView": 6,
      "byteOffset": 7300,
      "componentType": 5126,
      "count": 32,
      "max": [
        1.0333333015441895
      ],
      "min": [
        0.0
      ],
      "type": "SCALAR"
    },
    {
      "bufferView": 8,
      "byteOffset": 20000,
      "componentType": 5126,
      "count": 32,
      "max": [
        0.02162674255669117,
        0.009143867529928684,
        -0.1655789017677307,
        0.9861078858375549
      ],
      "min": [
        -0.016424771398305893,
        -0.011974828317761421,
        -0.17326664924621582,
        0.9847338795661926
      ],
      "type": "VEC4"
    },
    {
      "bufferView": 6,
      "byteOffset": 7428,
      "componentType": 5126,
      "count": 32,
      "max": [
        1.0333333015441895
      ],
      "min": [
        0.0
      ],
      "type": "SCALAR"
    },
    {
      "bufferView": 8,
      "byteOffset": 20512,
      "componentType": 5126,
      "count": 32,
      "max": [
        0.011755453422665596,
        0.004640314262360334,
        0.15092697739601135,
        0.9890929460525513
      ],
      "min": [
        -0.009702245704829693,
        -0.004235649481415749,
        0.14706723392009735,
        0.9885092973709106
      ],
      "type": "VEC4"
    },
    {
      "bufferView": 6,
      "byteOffset": 7556,
      "componentType": 5126,
      "count": 32,
      "max": [
        1.0333333015441895
      ],
      "min": [
        0.0
      ],
      "type": "SCALAR"
    },
    {
      "bufferView": 7,
      "byteOffset": 6900,
      "componentType": 5126,
      "count": 32,
      "max": [
        27.286130905151367,
        697.941650390625,
        -37.99786376953125
      ],
      "min": [
        -2.7418627738952637,
        626.7073974609375,
        -50.994239807128906
      ],
      "type": "VEC3"
    },
    {
      "bufferView": 6,
      "byteOffset": 7684,
      "componentType": 5126,
      "count": 32,
      "max": [
        1.0333333015441895
      ],
      "min": [
        0.0
      ],
      "type": "SCALAR"
    },
    {
      "bufferView": 8,
      "byteOffset": 21024,
      "componentType": 5126,
      "count": 32,
      "max": [
        0.5510740280151367,
        0.5309877395629883,
        0.5187397003173828,
        0.5227793455123901
      ],
      "min": [
        0.4900531470775604,
        0.4710492491722107,
        0.4716435968875885,
        0.4473234713077545
      ],
      "type": "VEC4"
    }
  ],
  "animations": [
    {
      "channels": [
        {
          "sampler": 0,
          "target": {
            "node": 16,
            "path": "rotation"
          }
        },
        {
          "sampler": 1,
          "target": {
            "node": 15,
            "path": "translation"
          }
        },
        {
          "sampler": 2,
          "target": {
            "node": 15,
            "path": "rotation"
          }
        },
        {
          "sampler": 3,
          "target": {
            "node": 14,
            "path": "rotation"
          }
        },
        {
          "sampler": 4,
          "target": {
            "node": 13,
            "path": "rotation"
          }
        },
        {
          "sampler": 5,
          "target": {
            "node": 26,
            "path": "rotation"
          }
        },
        {
          "sampler": 6,
          "target": {
            "node": 25,
            "path": "translation"
          }
        },
        {
          "sampler": 7,
          "target": {
            "node": 25,
            "path": "rotation"
          }
        },
        {
          "sampler": 8,
          "target": {
            "node": 24,
            "path": "rotation"
          }
        },
        {
          "sampler": 9,
          "target": {
            "node": 23,
            "path": "rotation"
          }
        },
        {
          "sampler": 10,
          "target": {
            "node": 43,
            "path": "rotation"
          }
        },
        {
          "sampler": 11,
          "target": {
            "node": 42,
            "path": "rotation"
          }
        },
        {
          "sampler": 12,
          "target": {
            "node": 46,
            "path": "translation"
          }
        },
        {
          "sampler": 13,
          "target": {
            "node": 46,
            "path": "rotation"
          }
        },
        {
          "sampler": 14,
          "target": {
            "node": 45,
            "path": "rotation"
          }
        },
        {
          "sampler": 15,
          "target": {
            "node": 49,
            "path": "translation"
          }
        },
        {
          "sampler": 16,
          "target": {
            "node": 49,
            "path": "rotation"
          }
        },
        {
          "sampler": 17,
          "target": {
            "node": 48,
            "path": "rotation"
          }
        },
        {
          "sampler": 18,
          "target": {
            "node": 52,
            "path": "translation"
          }
        },
        {
          "sampler": 19,
          "target": {
            "node": 52,
            "path": "rotation"
          }
        },
        {
          "sampler": 20,
          "target": {
            "node": 51,
            "path": "rotation"
          }
        },
        {
          "sampler": 21,
          "target": {
            "node": 55,
            "path": "rotation"
          }
        },
        {
          "sampler": 22,
          "target": {
            "node": 54,
            "path": "rotation"
          }
        },
        {
          "sampler": 23,
          "target": {
            "node": 41,
            "path": "rotation"
          }
        },
        {
          "sampler": 24,
          "target": {
            "node": 40,
            "path": "translation"
          }
        },
        {
          "sampler": 25,
          "target": {
            "node": 40,
            "path": "rotation"
          }
        },
        {
          "sampler": 26,
          "target": {
            "node": 39,
            "path": "translation"
          }
        },
        {
          "sampler": 27,
          "target": {
            "node": 39,
            "path": "rotation"
          }
        },
        {
          "sampler": 28,
          "target": {
            "node": 38,
            "path": "rotation"
          }
        },
        {
          "sampler": 29,
          "target": {
            "node": 65,
            "path": "translation"
          }
        },
        {
          "sampler": 30,
          "target": {
            "node": 65,
            "path": "rotation"
          }
        },
        {
          "sampler": 31,
          "target": {
            "node": 64,
            "path": "rotation"
          }
        },
        {
          "sampler": 32,
          "target": {
            "node": 68,
            "path": "translation"
          }
        },
        {
          "sampler": 33,
          "target": {
            "node": 68,
            "path": "rotation"
          }
        },
        {
          "sampler": 34,
          "target": {
            "node": 67,
            "path": "rotation"
          }
        },
        {
          "sampler": 35,
          "target": {
            "node": 71,
            "path": "rotation"
          }
        },
        {
          "sampler": 36,
          "target": {
            "node": 70,
            "path": "rotation"
          }
        },
        {
          "sampler": 37,
          "target": {
            "node": 74,
            "path": "translation"
          }
        },
        {
          "sampler": 38,
          "target": {
            "node": 74,
            "path": "rotation"
          }
        },
        {
          "sampler": 39,
          "target": {
            "node": 73,
            "path": "rotation"
          }
        },
        {
          "sampler": 40,
          "target": {
            "node": 77,
            "path": "translation"
          }
        },
        {
          "sampler": 41,
          "target": {
            "node": 77,
            "path": "rotation"
          }
        },
        {
          "sampler": 42,
          "target": {
            "node": 76,
            "path": "rotation"
          }
        },
        {
          "sampler": 43,
          "target": {
            "node": 63,
            "path": "translation"
          }
        },
        {
          "sampler": 44,
          "target": {
            "node": 63,
            "path": "rotation"
          }
        },
        {
          "sampler": 45,
          "target": {
            "node": 62,
            "path": "translation"
          }
        },
        {
          "sampler": 46,
          "target": {
            "node": 62,
            "path": "rotation"
          }
        },
        {
          "sampler": 47,
          "target": {
            "node": 61,
            "path": "translation"
          }
        },
        {
          "sampler": 48,
          "target": {
            "node": 61,
            "path": "rotation"
          }
        },
        {
          "sampler": 49,
          "target": {
            "node": 60,
            "path": "rotation"
          }
        },
        {
          "sampler": 50,
          "target": {
            "node": 83,
            "path": "translation"
          }
        },
        {
          "sampler": 51,
          "target": {
            "node": 83,
            "path": "rotation"
          }
        },
        {
          "sampler": 52,
          "target": {
            "node": 82,
            "path": "rotation"
          }
        },
        {
          "sampler": 53,
          "target": {
            "node": 37,
            "path": "translation"
          }
        },
        {
          "sampler": 54,
          "target": {
            "node": 37,
            "path": "rotation"
          }
        },
        {
          "sampler": 55,
          "target": {
            "node": 36,
            "path": "translation"
          }
        },
        {
          "sampler": 56,
          "target": {
            "node": 36,
            "path": "rotation"
          }
        },
        {
          "sampler": 57,
          "target": {
            "node": 35,
            "path": "translation"
          }
        },
        {
          "sampler": 58,
          "target": {
            "node": 35,
            "path": "rotation"
          }
        },
        {
          "sampler": 59,
          "target": {
            "node": 34,
            "path": "translation"
          }
        },
        {
          "sampler": 60,
          "target": {
            "node": 34,
            "path": "rotation"
          }
        },
        {
          "sampler": 61,
          "target": {
            "node": 33,
            "path": "rotation"
          }
        },
        {
          "sampler": 62,
          "target": {
            "node": 12,
            "path": "translation"
          }
        },
        {
          "sampler": 63,
          "target": {
            "node": 12,
            "path": "rotation"
          }
        }
      ],
      "name": "walking",
      "samplers": [
        {
          "input": 19,
          "interpolation": "LINEAR",
          "output": 20
        },
        {
          "input": 21,
          "interpolation": "LINEAR",
          "output": 22
        },
        {
          "input": 23,
          "interpolation": "LINEAR",
          "output": 24
        },
        {
          "input": 25,
          "interpolation": "LINEAR",
          "output": 26
        },
        {
          "input": 27,
          "interpolation": "LINEAR",
          "output": 28
        },
        {
          "input": 29,
          "interpolation": "LINEAR",
          "output": 30
        },
        {
          "input": 31,
          "interpolation": "LINEAR",
          "output": 32
        },
        {
          "input": 33,
          "interpolation": "LINEAR",
          "output": 34
        },
        {
          "input": 35,
          "interpolation": "LINEAR",
          "output": 36
        },
        {
          "input": 37,
          "interpolation": "LINEAR",
          "output": 38
        },
        {
          "input": 39,
          "interpolation": "LINEAR",
          "output": 40
        },
        {
          "input": 41,
          "interpolation": "LINEAR",
          "output": 42
        },
        {
          "input": 43,
          "interpolation": "LINEAR",
          "output": 44
        },
        {
          "input": 45,
          "interpolation": "LINEAR",
          "output": 46
        },
        {
          "input": 47,
          "interpolation": "LINEAR",
          "output": 48
        },
        {
          "input": 49,
          "interpolation": "LINEAR",
          "output": 50
        },
        {
          "input": 51,
          "interpolation": "LINEAR",
          "output": 52
        },
        {
          "input": 53,
          "interpolation": "LINEAR",
          "output": 54
        },
        {
          "input": 55,
          "interpolation": "LINEAR",
          "output": 56
        },
        {
          "input": 57,
          "interpolation": "LINEAR",
          "output": 58
        },
        {
          "input": 59,
          "interpolation": "LINEAR",
          "output": 60
        },
        {
          "input": 61,
          "interpolation": "LINEAR",
          "output": 62
        },
        {
          "input": 63,
          "interpolation": "LINEAR",
          "output": 64
        },
        {
          "input": 65,
          "interpolation": "LINEAR",
          "output": 66
        },
        {
          "input": 67,
          "interpolation": "LINEAR",
          "output": 68
        },
        {
          "input": 69,
          "interpolation": "LINEAR",
          "output": 70
        },
        {
          "input": 71,
          "interpolation": "LINEAR",
          "output": 72
        },
        {
          "input": 73,
          "interpolation": "LINEAR",
          "output": 74
        },
        {
          "input": 75,
          "interpolation": "LINEAR",
          "output": 76
        },
        {
          "input": 77,
          "interpolation": "LINEAR",
          "output": 78
        },
        {
          "input": 79,
          "interpolation": "LINEAR",
          "output": 80
        },
        {
          "input": 81,
          "interpolation": "LINEAR",
          "output": 82
        },
        {
          "input": 83,
          "interpolation": "LINEAR",
          "output": 84
        },
        {
          "input": 85,
          "interpolation": "LINEAR",
          "output": 86
        },
        {
          "input": 87,
          "interpolation": "LINEAR",
          "output": 88
        },
        {
          "input": 89,
          "interpolation": "LINEAR",
          "output": 90
        },
        {
          "input": 91,
          "interpolation": "LINEAR",
          "output": 92
        },
        {
          "input": 93,
          "interpolation": "LINEAR",
          "output": 94
        },
        {
          "input": 95,
          "interpolation": "LINEAR",
          "output": 96
        },
        {
          "input": 97,
          "interpolation": "LINEAR",
          "output": 98
        },
        {
          "input": 99,
          "interpolation": "LINEAR",
          "output": 100
        },
        {
          "input": 101,
          "interpolation": "LINEAR",
          "output": 102
        },
        {
          "input": 103,
          "interpolation": "LINEAR",
          "output": 104
        },
        {
          "input": 105,
          "interpolation": "LINEAR",
          "output": 106
        },
        {
          "input": 107,
          "interpolation": "LINEAR",
          "output": 108
        },
        {
          "input": 109,
          "interpolation": "LINEAR",
          "output": 110
        },
        {
          "input": 111,
          "interpolation": "LINEAR",
          "output": 112
        },
        {
          "input": 113,
          "interpolation": "LINEAR",
          "output": 114
        },
        {
          "input": 115,
          "interpolation": "LINEAR",
          "output": 116
        },
        {
          "input": 117,
          "interpolation": "LINEAR",
          "output": 118
        },
        {
          "input": 119,
          "interpolation": "LINEAR",
          "output": 120
        },
        {
          "input": 121,
          "interpolation": "LINEAR",
          "output": 122
        },
        {
          "input": 123,
          "interpolation": "LINEAR",
          "output": 124
        },
        {
          "input": 125,
          "interpolation": "LINEAR",
          "output": 126
        },
        {
          "input": 127,
          "interpolation": "LINEAR",
          "output": 128
        },
        {
          "input": 129,
          "interpolation": "LINEAR",
          "output": 130
        },
        {
          "input": 131,
          "interpolation": "LINEAR",
          "output": 132
        },
        {
          "input": 133,
          "interpolation": "LINEAR",
          "output": 134
        },
        {
          "input": 135,
          "interpolation": "LINEAR",
          "output": 136
        },
        {
          "input": 137,
          "interpolation": "LINEAR",
          "output": 138
        },
        {
          "input": 139,
          "interpolation": "LINEAR",
          "output": 140
        },
        {
          "input": 141,
          "interpolation": "LINEAR",
          "output": 142
        },
        {
          "input": 143,
          "interpolation": "LINEAR",
          "output": 144
        },
        {
          "input": 145,
          "interpolation": "LINEAR",
          "output": 146
        }
      ]
    }
  ],
  "asset": {
    "extras": {
      "author": "Bogdan Streletskiy (https://sketchfab.com/streletskiy)",
      "license": "CC-BY-4.0 (http://creativecommons.org/licenses/by/4.0/)",
      "source": "https://sketchfab.com/3d-models/casual-man-character-05d9dd5bdddd4157bd46dc179781ee6e",
      "title": "Casual Man Character"
    },
    "generator": "Sketchfab-12.84.0",
    "version": "2.0"
  },
  "bufferViews": [
    {
      "buffer": 0,
      "byteLength": 48840,
      "byteStride": 8,
      "name": "shortBufferViews",
      "target": 34962
    },
    {
      "buffer": 0,
      "byteLength": 131544,
      "byteOffset": 48840,
      "name": "floatBufferViews",
      "target": 34963
    },
    {
      "buffer": 0,
      "byteLength": 48840,
      "byteOffset": 180384,
      "byteStride": 8,
      "name": "floatBufferViews",
      "target": 34962
    },
    {
      "buffer": 0,
      "byteLength": 146520,
      "byteOffset": 229224,
      "byteStride": 12,
      "name": "floatBufferViews",
      "target": 34962
    },
    {
      "buffer": 0,
      "byteLength": 97680,
      "byteOffset": 375744,
      "byteStride": 16,
      "name": "floatBufferViews",
      "target": 34962
    },
    {
      "buffer": 0,
      "byteLength": 4864,
      "byteOffset": 473424,
      "name": "floatBufferViews"
    },
    {
      "buffer": 0,
      "byteLength": 7812,
      "byteOffset": 478288,
      "name": "floatBufferViews"
    },
    {
      "buffer": 0,
      "byteLength": 7284,
      "byteOffset": 486100,
      "byteStride": 12,
      "name": "floatBufferViews"
    },
    {
      "buffer": 0,
      "byteLength": 21536,
      "byteOffset": 493384,
      "byteStride": 16,
      "name": "floatBufferViews"
    }
  ],
  "buffers": [
    {
      "byteLength": 514920,
      "uri": "scene.bin"
    }
  ],
  "images": [
    {
      "uri": "textures/char_man_baseColor.png"
    }
  ],
  "materials": [
    {
      "doubleSided": true,
      "name": "char_man",
      "pbrMetallicRoughness": {
        "baseColorTexture": {
          "index": 0
        },
        "metallicFactor": 0.0
      }
    }
  ],
  "meshes": [
    {
      "name": "char_man_char_man_0",
      "primitives": [
        {
          "attributes": {
            "JOINTS_0": 13,
            "NORMAL": 1,
            "POSITION": 0,
            "TEXCOORD_0": 2,
            "WEIGHTS_0": 14
          },
          "indices": 3,
          "material": 0,
          "mode": 4
        }
      ]
    },
    {
      "name": "char_tshirt_1_char_man_0",
      "primitives": [
        {
          "attributes": {
            "JOINTS_0": 15,
            "NORMAL": 5,
            "POSITION": 4,
            "TEXCOORD_0": 6,
            "WEIGHTS_0": 16
          },
          "indices": 7,
          "material": 0,
          "mode": 4
        }
      ]
    },
    {
      "name": "char_shoes_1_char_man_0",
      "primitives": [
        {
          "attributes": {
            "JOINTS_0": 17,
            "NORMAL": 9,
            "POSITION": 8,
            "TEXCOORD_0": 10,
            "WEIGHTS_0": 18
          },
          "indices": 11,
          "material": 0,
          "mode": 4
        }
      ]
    }
  ],
  "nodes": [
    {
      "children": [
        1
      ],
      "matrix": [
        2.2249372005462646,
        0.0,
        0.0,
        0.0,
        0.0,
        4.940353016783005e-16,
        -2.2249372005462646,
        0.0,
        0.0,
        2.2249372005462646,
        4.940353016783005e-16,
        0.0,
        0.0,
        0.0,
        0.0,
        1.0
      ],
      "name": "Sketchfab_model"
    },
    {
      "children": [
        2
      ],
      "matrix": [
        0.0010000000474974513,
        0.0,
        0.0,
        0.0,
        0.0,
        0.0,
        0.0010000000474974513,
        0.0,
        0.0,
        -0.0010000000474974513,
        0.0,
        0.0,
        0.0,
        0.0,
        0.0,
        1.0
      ],
      "name": "char_man_walking.fbx"
    },
    {
      "children": [
        3
      ],
      "name": "Object_2"
    },
    {
      "children": [
        4
      ],
      "name": "RootNode"
    },
    {
      "children": [
        5,
        7,
        9,
        11,
        6,
        8,
        10,
        87,
        88,
        89
      ],
      "name": "Object_4"
    },
    {
      "children": [
        12
      ],
      "name": "_rootJoint"
    },
    {
      "matrix": [
        1.0000000000000007,
        1.9852334701272664e-23,
        5.293955920339377e-23,
        0.0,
        5.293955833562064e-23,
        4.371138828565509e-08,
        -1.0,
        0.0,
        -1.9852337015334283e-23,
        1.0,
        4.371138828565509e-08,
        0.0,
        -2.710505431213761e-20,
        -6.821210263296962e-13,
        1.0658141036401503e-14,
        1.0
      ],
      "name": "Object_6"
    },
    {
      "mesh": 0,
      "name": "Object_7",
      "skin": 0
    },
    {
      "matrix": [
        0.9999999999999997,
        0.0,
        0.0,
        0.0,
        0.0,
        6.123233995736764e-17,
        -0.9999999999999997,
        0.0,
        0.0,
        0.9999999999999997,
        6.123233995736764e-17,
        0.0,
        5.421010862427522e-20,
        6.821210263296962e-13,
        1.0658141036401503e-14,
        1.0
      ],
      "name": "Object_8"
    },
    {
      "mesh": 1,
      "name": "Object_9",
      "skin": 0
    },
    {
      "matrix": [
        1.0,
        -1.734723475976807e-18,
        3.469446951953614e-18,
        0.0,
        3.4694469519536138e-18,
        6.123233995736765e-17,
        -0.9999999999999999,
        0.0,
        1.7347234759768075e-18,
        1.0000000000000004,
        6.123233995736769e-17,
        0.0,
        0.0,
        -2.8421709430404007e-13,
        -3.907985046680551e-14,
        1.0
      ],
      "name": "Object_10"
    },
    {
      "mesh": 2,
      "name": "Object_11",
      "skin": 0
    },
    {
      "children": [
        13,
        23,
        33,
        86
      ],
      "name": "Base HumanPelvis_01",
      "rotation": [
        0.499122679233551,
        0.5008672475814819,
        0.49913114309310913,
        0.5008758902549744
      ],
      "translation": [
        -3.9346443372778594e-05,
        703.0858154296875,
        -14.517159461975098
      ]
    },
    {
      "children": [
        14,
        22
      ],
      "name": "Base HumanLThigh_02",
      "rotation": [
        -0.019338680431246758,
        0.9997804760932922,
        -0.007894689217209816,
        -0.0016561250668019056
      ],
      "scale": [
        1.0000009536743164,
        0.9999989867210388,
        1.0
      ],
      "translation": [
        14.150146484375,
        38.58283233642578,
        87.29418182373047
      ]
    },
    {
      "children": [
        15,
        21
      ],
      "name": "Base HumanLCalf_00",
      "rotation": [
        0.001950364327058196,
        0.0017030866583809257,
        -0.03604816272854805,
        0.9993467926979065
      ],
      "scale": [
        1.0000100135803223,
        0.9999930262565613,
        0.9999979734420776
      ],
      "translation": [
        353.9454345703125,
        -0.0008916854858398438,
        -0.0002899169921875
      ]
    },
    {
      "children": [
        16,
        20
      ],
      "name": "Base HumanLFoot_03",
      "rotation": [
        -0.009742059744894505,
        0.003071591956540942,
        0.6643409729003906,
        0.7473598718643188
      ],
      "scale": [
        1.0000180006027222,
        0.9999819993972778,
        1.0
      ],
      "translation": [
        322.89044189453125,
        3.814697265625e-06,
        1.4210854715202004e-14
      ]
    },
    {
      "children": [
        17,
        19
      ],
      "name": "Base HumanLDigit11_04",
      "rotation": [
        3.199813363607973e-05,
        0.0002848259173333645,
        0.1121508851647377,
        0.9936911463737488
      ],
      "scale": [
        1.0000009536743164,
        0.9999989867210388,
        1.0
      ],
      "translation": [
        122.9987564086914,
        -0.000274658203125,
        -0.00103759765625
      ]
    },
    {
      "children": [
        18
      ],
      "name": "Base HumanLDigit12_05",
      "rotation": [
        6.458495516170615e-09,
        2.980265279006744e-08,
        -2.9802876611029205e-07,
        1.0
      ],
      "translation": [
        52.79563903808594,
        -9.5367431640625e-07,
        0.0
      ]
    },
    {
      "name": "Base HumanLDigit12_05_0"
    },
    {
      "name": "Base HumanLDigit11_04_0"
    },
    {
      "name": "Base HumanLFoot_03_0"
    },
    {
      "name": "Base HumanLCalf_00_0"
    },
    {
      "name": "Base HumanLThigh_02_0"
    },
    {
      "children": [
        24,
        32
      ],
      "name": "Base HumanRThigh_06",
      "rotation": [
        -0.019481442868709564,
        0.9997776746749878,
        0.00789470411837101,
        0.0016648139571771026
      ],
      "scale": [
        0.9999989867210388,
        1.0000009536743164,
        1.0
      ],
      "translation": [
        14.150146484375,
        38.58283996582031,
        -87.29415130615234
      ]
    },
    {
      "children": [
        25,
        31
      ],
      "name": "Base HumanRCalf_07",
      "rotation": [
        -0.0019614258781075478,
        -0.001920850481837988,
        -0.035888560116291046,
        0.9993520379066467
      ],
      "scale": [
        0.9999909996986389,
        1.0000070333480835,
        1.0000020265579224
      ],
      "translation": [
        353.9454345703125,
        -0.0008869171142578125,
        0.00026702880859375
      ]
    },
    {
      "children": [
        26,
        30
      ],
      "name": "Base HumanRFoot_08",
      "rotation": [
        0.009358403272926807,
        -0.0023102695122361183,
        0.6644353866577148,
        0.7472835779190063
      ],
      "scale": [
        0.9999819993972778,
        1.0000180006027222,
        1.0
      ],
      "translation": [
        322.8905029296875,
        0.0,
        0.0
      ]
    },
    {
      "children": [
        27,
        29
      ],
      "name": "Base HumanRDigit11_09",
      "rotation": [
        -0.00012006558972643688,
        -0.0010646634036675096,
        0.11201031506061554,
        0.993706464767456
      ],
      "scale": [
        0.9999989867210388,
        1.0000009536743164,
        1.0
      ],
      "translation": [
        122.99876403808594,
        -0.000274658203125,
        0.00102996826171875
      ]
    },
    {
      "children": [
        28
      ],
      "name": "Base HumanRDigit12_010",
      "rotation": [
        6.458562129552092e-09,
        2.9801951129115878e-08,
        -2.980177953304519e-07,
        1.0
      ],
      "translation": [
        52.79563903808594,
        0.0,
        0.0
      ]
    },
    {
      "name": "Base HumanRDigit12_010_0"
    },
    {
      "name": "Base HumanRDigit11_09_0"
    },
    {
      "name": "Base HumanRFoot_08_0"
    },
    {
      "name": "Base HumanRCalf_07_0"
    },
    {
      "name": "Base HumanRThigh_06_0"
    },
    {
      "children": [
        34,
        85
      ],
      "name": "Base HumanSpine1_011",
      "rotation": [
        -1.498752011386273e-09,
        -2.0517854082413578e-08,
        0.14866985380649567,
        0.9888868927955627
      ],
      "translation": [
        37.563720703125,
        -2.874018669128418,
        -7.1328249759972095e-06
      ]
    },
    {
      "children": [
        35
      ],
      "name": "Base HumanSpine2_012",
      "rotation": [
        -4.906685613370598e-10,
        1.1267681898630144e-08,
        -0.1701042801141739,
        0.9854261875152588
      ],
      "scale": [
        1.0000009536743164,
        1.0000009536743164,
        1.0
      ],
      "translation": [
        122.65179443359375,
        -1.52587890625e-05,
        -5.820766091346741e-11
      ]
    },
    {
      "children": [
        36
      ],
      "name": "Base HumanSpine3_013",
      "rotation": [
        -5.7896882843522235e-09,
        5.2590618082604124e-08,
        -0.0846857950091362,
        0.996407687664032
      ],
      "translation": [
        104.48297119140625,
        7.105427357601002e-15,
        0.0
      ]
    },
    {
      "children": [
        37
      ],
      "name": "Base HumanSpine4_014",
      "rotation": [
        1.3561797906902484e-08,
        -1.3101870877108013e-07,
        0.08688430488109589,
        0.9962185025215149
      ],
      "translation": [
        112.280029296875,
        -1.52587890625e-05,
        0.0
      ]
    },
    {
      "children": [
        38,
        60,
        82
      ],
      "name": "Base HumanRibcage_015",
      "rotation": [
        1.3008926158519785e-09,
        6.92502766241887e-08,
        0.02124856598675251,
        0.9997742176055908
      ],
      "scale": [
        0.9999989867210388,
        0.9999989867210388,
        1.0
      ],
      "translation": [
        151.301025390625,
        -3.814697265625e-06,
        0.0
      ]
    },
    {
      "children": [
        39,
        59
      ],
      "name": "Base HumanLCollarbone_016",
      "rotation": [
        0.07295205444097519,
        -0.6973764300346375,
        -0.1794639229774475,
        0.6900267004966736
      ],
      "scale": [
        1.0000009536743164,
        0.9999989867210388,
        1.0
      ],
      "translation": [
        -15.2735595703125,
        59.16294860839844,
        24.749385833740234
      ]
    },
    {
      "children": [
        40,
        58
      ],
      "name": "Base HumanLUpperarm_017",
      "rotation": [
        0.062048692256212234,
        -0.0365915521979332,
        0.16371767222881317,
        0.9838738441467285
      ],
      "translation": [
        104.8695297241211,
        3.0517578125e-05,
        -2.2737367544323206e-13
      ]
    },
    {
      "children": [
        41,
        57
      ],
      "name": "Base HumanLForearm_018",
      "rotation": [
        0.07297453284263611,
        0.05898251757025719,
        0.0303735863417387,
        0.9951247572898865
      ],
      "scale": [
        1.0,
        1.0000020265579224,
        0.9999979734420776
      ],
      "translation": [
        228.20538330078125,
        7.105427357601002e-15,
        0.0
      ]
    },
    {
      "children": [
        42,
        45,
        48,
        51,
        54
      ],
      "name": "Base HumanLPalm_019",
      "rotation": [
        -0.7425671815872192,
        0.0007465102826245129,
        -0.027778228744864464,
        0.6691949963569641
      ],
      "scale": [
        1.0000009536743164,
        0.9999979734420776,
        1.0000009536743164
      ],
      "translation": [
        211.86605834960938,
        1.52587890625e-05,
        0.0001220703125
      ]
    },
    {
      "children": [
        43
      ],
      "name": "Base HumanLDigit111_020",
      "rotation": [
        0.28488889336586,
        -0.27039897441864014,
        -0.08623043447732925,
        0.9155802726745605
      ],
      "scale": [
        0.9999949932098389,
        1.0000040531158447,
        1.0000009536743164
      ],
      "translation": [
        26.23516845703125,
        -5.18994140625,
        31.419727325439453
      ]
    },
    {
      "children": [
        44
      ],
      "name": "Base HumanLDigit121_021",
      "rotation": [
        -0.010306169278919697,
        0.0740608349442482,
        0.04458213597536087,
        0.9962034225463867
      ],
      "scale": [
        0.9999949932098389,
        1.0000040531158447,
        1.0000020265579224
      ],
      "translation": [
        22.303253173828125,
        0.0,
        -1.1368683772161603e-13
      ]
    },
    {
      "name": "Base HumanLDigit13_022",
      "rotation": [
        -0.022245291620492935,
        0.005323932971805334,
        0.03146805614233017,
        0.9992430210113525
      ],
      "scale": [
        0.9999949932098389,
        1.0000050067901611,
        1.0000009536743164
      ],
      "translation": [
        29.69476318359375,
        6.103515625e-05,
        1.1368683772161603e-13
      ]
    },
    {
      "children": [
        46
      ],
      "name": "Base HumanLDigit21_023",
      "rotation": [
        -0.005938051268458366,
        -0.008536802604794502,
        -0.057069431990385056,
        0.9983160495758057
      ],
      "scale": [
        1.0000009536743164,
        0.9999949932098389,
        1.0000040531158447
      ],
      "translation": [
        86.10009765625,
        6.282958984375,
        28.037124633789063
      ]
    },
    {
      "children": [
        47
      ],
      "name": "Base HumanLDigit22_024",
      "rotation": [
        0.0025279067922383547,
        -0.007375525310635567,
        -0.0547100193798542,
        0.9984718561172485
      ],
      "scale": [
        1.0000009536743164,
        0.9999949932098389,
        1.0000040531158447
      ],
      "translation": [
        31.980316162109375,
        -2.2737367544323206e-13,
        3.814697265625e-06
      ]
    },
    {
      "name": "Base HumanLDigit23_025",
      "rotation": [
        0.0029412414878606796,
        0.008289297111332417,
        -0.06275348365306854,
        0.9979903101921082
      ],
      "scale": [
        0.9999949932098389,
        1.0000009536743164,
        1.0000040531158447
      ],
      "translation": [
        28.938995361328125,
        0.0,
        3.814697265625e-06
      ]
    },
    {
      "children": [
        49
      ],
      "name": "Base HumanLDigit31_026",
      "rotation": [
        -0.004839984700083733,
        0.0022194150369614363,
        -0.03940961882472038,
        0.9992090463638306
      ],
      "scale": [
        1.0000009536743164,
        0.9999949932098389,
        1.0000040531158447
      ],
      "translation": [
        86.10015869140625,
        8.3365478515625,
        7.571660041809082
      ]
    },
    {
      "children": [
        50
      ],
      "name": "Base HumanLDigit32_027",
      "rotation": [
        0.004584237467497587,
        -0.011455431580543518,
        -0.050163209438323975,
        0.998664915561676
      ],
      "scale": [
        1.0000009536743164,
        0.9999949932098389,
        1.0000040531158447
      ],
      "translation": [
        39.05322265625,
        0.0001220703125,
        3.552713678800501e-15
      ]
    },
    {
      "name": "Base HumanLDigit33_028",
      "rotation": [
        0.0021174668800085783,
        -0.0014112531207501888,
        -0.08489243686199188,
        0.9963868856430054
      ],
      "scale": [
        1.0000020265579224,
        0.9999939799308777,
        1.0000040531158447
      ],
      "translation": [
        35.990875244140625,
        0.0001220703125,
        -4.76837158203125e-07
      ]
    },
    {
      "children": [
        52
      ],
      "name": "Base HumanLDigit41_029",
      "rotation": [
        -0.005022242199629545,
        0.006531187333166599,
        -0.04821833595633507,
        0.9988028407096863
      ],
      "scale": [
        1.0000009536743164,
        0.9999949932098389,
        1.0000040531158447
      ],
      "translation": [
        86.10009765625,
        6.097900390625,
        -12.557405471801758
      ]
    },
    {
      "children": [
        53
      ],
      "name": "Base HumanLDigit42_030",
      "rotation": [
        0.0044473400339484215,
        -0.0018954287515953183,
        -0.041287995874881744,
        0.9991356134414673
      ],
      "scale": [
        1.0000009536743164,
        0.9999949932098389,
        1.0000040531158447
      ],
      "translation": [
        31.91851806640625,
        -4.547473508864641e-13,
        3.552713678800501e-15
      ]
    },
    {
      "name": "Base HumanLDigit43_031",
      "rotation": [
        0.0016538165509700775,
        -0.003983704373240471,
        -0.08487657457590103,
        0.9963821172714233
      ],
      "scale": [
        0.9999949932098389,
        1.0000009536743164,
        1.0000040531158447
      ],
      "translation": [
        35.98492431640625,
        -0.0001220703125,
        2.384185791015625e-07
      ]
    },
    {
      "children": [
        55
      ],
      "name": "Base HumanLDigit51_032",
      "rotation": [
        -0.002771422266960144,
        0.043968770653009415,
        -0.06284831464290619,
        0.9970502257347107
      ],
      "scale": [
        1.0000009536743164,
        0.9999949932098389,
        1.0000040531158447
      ],
      "translation": [
        86.10015869140625,
        3.7186279296875,
        -31.80614471435547
      ]
    },
    {
      "children": [
        56
      ],
      "name": "Base HumanLDigit52_033",
      "rotation": [
        0.007554979994893074,
        -0.036635756492614746,
        -0.07734055817127228,
        0.9963027834892273
      ],
      "scale": [
        1.0000009536743164,
        0.9999949932098389,
        1.0000040531158447
      ],
      "translation": [
        24.5009765625,
        0.0001220703125,
        3.814697265625e-06
      ]
    },
    {
      "name": "Base HumanLDigit53_034",
      "rotation": [
        0.0020614606328308582,
        -0.0063271657563745975,
        -0.034104105085134506,
        0.9993961453437805
      ],
      "scale": [
        1.0000009536743164,
        0.9999949932098389,
        1.0000040531158447
      ],
      "translation": [
        23.13055419921875,
        0.0001220703125,
        1.9073486328125e-06
      ]
    },
    {
      "name": "Base HumanLForearm_018_0"
    },
    {
      "name": "Base HumanLUpperarm_017_0"
    },
    {
      "name": "Base HumanLCollarbone_016_0"
    },
    {
      "children": [
        61,
        81
      ],
      "name": "Base HumanRCollarbone_035",
      "rotation": [
        -0.07295214384794235,
        0.6973764300346375,
        -0.17946384847164154,
        0.6900267004966736
      ],
      "scale": [
        1.0000009536743164,
        0.9999989867210388,
        1.0
      ],
      "translation": [
        -15.2735595703125,
        59.16294860839844,
        -24.749380111694336
      ]
    },
    {
      "children": [
        62,
        80
      ],
      "name": "Base HumanRUpperarm_036",
      "rotation": [
        -0.06204880028963089,
        0.036591529846191406,
        0.16371767222881317,
        0.983873724937439
      ],
      "translation": [
        104.8695297241211,
        1.52587890625e-05,
        0.0
      ]
    },
    {
      "children": [
        63,
        79
      ],
      "name": "Base HumanRForearm_037",
      "rotation": [
        -0.07297448068857193,
        -0.05898241698741913,
        0.03037359192967415,
        0.9951247572898865
      ],
      "scale": [
        1.0,
        1.0000020265579224,
        0.9999989867210388
      ],
      "translation": [
        228.20535278320313,
        -3.814697265625e-06,
        0.0
      ]
    },
    {
      "children": [
        64,
        67,
        70,
        73,
        76
      ],
      "name": "Base HumanRPalm_038",
      "rotation": [
        0.7425670623779297,
        -0.0007465575472451746,
        -0.027778128162026405,
        0.6691949963569641
      ],
      "scale": [
        0.9999989867210388,
        1.0000079870224,
        0.9999930262565613
      ],
      "translation": [
        211.86618041992188,
        0.0,
        -0.0001220703125
      ]
    },
    {
      "children": [
        65
      ],
      "name": "Base HumanRDigit111_039",
      "rotation": [
        -0.2848908305168152,
        0.2703994810581207,
        -0.08622743934392929,
        0.9155796766281128
      ],
      "scale": [
        1.0000059604644775,
        0.9999989867210388,
        0.9999960064888
      ],
      "translation": [
        26.235107421875,
        -5.18994140625,
        -31.420040130615234
      ]
    },
    {
      "children": [
        66
      ],
      "name": "Base HumanRDigit121_040",
      "rotation": [
        0.010306346230208874,
        -0.07406195998191833,
        0.04458250477910042,
        0.9962033033370972
      ],
      "scale": [
        1.0000059604644775,
        0.9999960064888,
        0.9999989867210388
      ],
      "translation": [
        22.303253173828125,
        6.103515625e-05,
        1.1368683772161603e-13
      ]
    },
    {
      "name": "Base HumanRDigit13_041",
      "rotation": [
        0.022245297208428383,
        -0.005323990248143673,
        0.03146888315677643,
        0.9992429614067078
      ],
      "scale": [
        1.0000050067901611,
        0.9999960064888,
        0.9999989867210388
      ],
      "translation": [
        29.69476318359375,
        1.1368683772161603e-13,
        -6.103515625e-05
      ]
    },
    {
      "children": [
        68
      ],
      "name": "Base HumanRDigit21_042",
      "rotation": [
        0.00593825476244092,
        0.008536740206182003,
        -0.057068660855293274,
        0.9983161091804504
      ],
      "scale": [
        0.9999989867210388,
        1.0000050067901611,
        0.9999960064888
      ],
      "translation": [
        86.09991455078125,
        6.282958984375,
        -28.037403106689453
      ]
    },
    {
      "children": [
        69
      ],
      "name": "Base HumanRDigit22_043",
      "rotation": [
        -0.002528088167309761,
        0.007375653833150864,
        -0.054708581417798996,
        0.9984719157218933
      ],
      "scale": [
        0.9999989867210388,
        0.9999960064888,
        1.0000050067901611
      ],
      "translation": [
        31.980499267578125,
        0.0001220703125,
        0.0
      ]
    },
    {
      "name": "Base HumanRDigit23_044",
      "rotation": [
        -0.0029412093572318554,
        -0.008289368823170662,
        -0.06275160610675812,
        0.9979904294013977
      ],
      "scale": [
        1.0000050067901611,
        0.9999960064888,
        0.9999989867210388
      ],
      "translation": [
        28.939056396484375,
        0.0,
        1.9073486328125e-06
      ]
    },
    {
      "children": [
        71
      ],
      "name": "Base HumanRDigit31_045",
      "rotation": [
        0.004840077366679907,
        -0.0022195372730493546,
        -0.039409082382917404,
        0.9992089867591858
      ],
      "scale": [
        0.9999989867210388,
        1.0000059604644775,
        0.9999960064888
      ],
      "translation": [
        86.09991455078125,
        8.3365478515625,
        -7.5717363357543945
      ]
    },
    {
      "children": [
        72
      ],
      "name": "Base HumanRDigit32_046",
      "rotation": [
        -0.004584417678415775,
        0.011455665342509747,
        -0.05016187205910683,
        0.9986649751663208
      ],
      "scale": [
        0.9999989867210388,
        0.9999960064888,
        1.0000059604644775
      ],
      "translation": [
        39.0531005859375,
        -0.0001220703125,
        3.814697265625e-06
      ]
    },
    {
      "name": "Base HumanRDigit33_047",
      "rotation": [
        -0.0021175267174839973,
        0.0014113514916971326,
        -0.08489002287387848,
        0.9963870644569397
      ],
      "scale": [
        1.0000050067901611,
        0.9999960064888,
        0.9999989867210388
      ],
      "translation": [
        35.99090576171875,
        -2.2737367544323206e-13,
        4.76837158203125e-07
      ]
    },
    {
      "children": [
        74
      ],
      "name": "Base HumanRDigit41_048",
      "rotation": [
        0.005022392608225346,
        -0.006531225983053446,
        -0.048217687755823135,
        0.9988029599189758
      ],
      "scale": [
        0.9999989867210388,
        1.0000050067901611,
        0.9999960064888
      ],
      "translation": [
        86.0999755859375,
        6.0977783203125,
        12.557531356811523
      ]
    },
    {
      "children": [
        75
      ],
      "name": "Base HumanRDigit42_049",
      "rotation": [
        -0.00444743363186717,
        0.0018954314291477203,
        -0.04128692299127579,
        0.9991356134414673
      ],
      "scale": [
        0.9999989867210388,
        0.9999960064888,
        1.0000050067901611
      ],
      "translation": [
        31.91864013671875,
        0.0,
        0.0
      ]
    },
    {
      "name": "Base HumanRDigit43_050",
      "rotation": [
        -0.0016538151539862156,
        0.00398369412869215,
        -0.08487442135810852,
        0.9963822960853577
      ],
      "scale": [
        0.9999989867210388,
        0.9999960064888,
        1.0000050067901611
      ],
      "translation": [
        35.98504638671875,
        0.0,
        -4.76837158203125e-07
      ]
    },
    {
      "children": [
        77
      ],
      "name": "Base HumanRDigit51_051",
      "rotation": [
        0.002771651605144143,
        -0.04396887123584747,
        -0.06284745037555695,
        0.9970502853393555
      ],
      "scale": [
        0.9999989867210388,
        1.0000050067901611,
        0.9999960064888
      ],
      "translation": [
        86.09991455078125,
        3.718505859375,
        31.806461334228516
      ]
    },
    {
      "children": [
        78
      ],
      "name": "Base HumanRDigit52_052",
      "rotation": [
        -0.007555639836937189,
        0.03663621097803116,
        -0.07733874022960663,
        0.9963029026985168
      ],
      "scale": [
        0.9999989867210388,
        0.9999970197677612,
        1.0000050067901611
      ],
      "translation": [
        24.50079345703125,
        -2.2737367544323206e-13,
        0.0
      ]
    },
    {
      "name": "Base HumanRDigit53_053",
      "rotation": [
        -0.0020614992827177048,
        0.006327166687697172,
        -0.03410311043262482,
        0.9993962645530701
      ],
      "scale": [
        0.9999989867210388,
        0.9999960064888,
        1.0000050067901611
      ],
      "translation": [
        23.13055419921875,
        -2.2737367544323206e-13,
        1.9073486328125e-06
      ]
    },
    {
      "name": "Base HumanRForearm_037_0"
    },
    {
      "name": "Base HumanRUpperarm_036_0"
    },
    {
      "name": "Base HumanRCollarbone_035_0"
    },
    {
      "children": [
        83
      ],
      "name": "Base HumanNeck1_054",
      "rotation": [
        3.815860821765327e-11,
        -1.0876008538218684e-08,
        2.2737410912410105e-13,
        1.0
      ],
      "translation": [
        0.6527099609375,
        20.30453872680664,
        -1.0032468708232045e-05
      ]
    },
    {
      "children": [
        84
      ],
      "name": "Base HumanNeck2_055",
      "rotation": [
        -4.573212536202083e-14,
        7.105428204633949e-15,
        2.8421712818535796e-14,
        1.0
      ],
      "translation": [
        57.2564697265625,
        4.440892098500626e-16,
        -5.421010862427522e-20
      ]
    },
    {
      "name": "Base HumanHead_056",
      "rotation": [
        -4.573212536202083e-14,
        7.1054265105680546e-15,
        -2.8421706042272218e-14,
        1.0
      ],
      "translation": [
        57.2564697265625,
        -2.384185791015625e-07,
        -1.0842021724855044e-19
      ]
    },
    {
      "name": "Base HumanSpine1_011_0"
    },
    {
      "name": "Base HumanPelvis_01_0"
    },
    {
      "name": "char_man",
      "rotation": [
        2.1855694143368964e-08,
        0.0,
        0.0,
        1.0
      ]
    },
    {
      "name": "char_tshirt_1",
      "rotation": [
        -0.7071068286895752,
        -0.0,
        0.0,
        0.7071068286895752
      ]
    },
    {
      "name": "char_shoes_1",
      "rotation": [
        -0.7071068286895752,
        -0.0,
        0.0,
        0.7071068286895752
      ]
    }
  ],
  "samplers": [
    {
      "magFilter": 9729,
      "minFilter": 9987,
      "wrapS": 10497,
      "wrapT": 10497
    }
  ],
  "scene": 0,
  "scenes": [
    {
      "name": "Sketchfab_Scene",
      "nodes": [
        0
      ]
    }
  ],
  "skins": [
    {
      "inverseBindMatrices": 12,
      "joints": [
        5,
        12,
        13,
        14,
        15,
        16,
        17,
        18,
        19,
        20,
        21,
        22,
        23,
        24,
        25,
        26,
        27,
        28,
        29,
        30,
        31,
        32,
        33,
        34,
        35,
        36,
        37,
        38,
        39,
        40,
        41,
        42,
        43,
        44,
        45,
        46,
        47,
        48,
        49,
        50,
        51,
        52,
        53,
        54,
        55,
        56,
        57,
        58,
        59,
        60,
        61,
        62,
        63,
        64,
        65,
        66,
        67,
        68,
        69,
        70,
        71,
        72,
        73,
        74,
        75,
        76,
        77,
        78,
        79,
        80,
        81,
        82,
        83,
        84,
        85,
        86
      ],
      "skeleton": 5
    }
  ],
  "textures": [
    {
      "sampler": 0,
      "source": 0
    }
  ]
}
