{
  "accessors": [
    {
      "bufferView": 3,
      "componentType": 5126,
      "count": 672,
      "max": [
        27.30076026916504,
        2.553271770477295,
        6.430212497711182
      ],
      "min": [
        26.012956619262695,
        0.08153939247131348,
        6.120394706726074
      ],
      "type": "VEC3"
    },
    {
      "bufferView": 3,
      "byteOffset": 8064,
      "componentType": 5126,
      "count": 672,
      "max": [
        0.9999182820320129,
        0.9943422079086304,
        0.9999988079071045
      ],
      "min": [
        -0.9998852610588074,
        -0.9970207810401917,
        -0.9997106194496155
      ],
      "type": "VEC3"
    },
    {
      "bufferView": 2,
      "componentType": 5126,
      "count": 672,
      "max": [
        0.7425423860549927,
        0.8131753206253052
      ],
      "min": [
        0.6507352590560913,
        0.0010331443045288324
      ],
      "type": "VEC2"
    },
    {
      "bufferView": 1,
      "componentType": 5125,
      "count": 3840,
      "type": "SCALAR"
    },
    {
      "bufferView": 3,
      "byteOffset": 16128,
      "componentType": 5126,
      "count": 292,
      "max": [
        -26780.55078125,
        -5031.71337890625,
        -6490.48779296875
      ],
      "min": [
        -27491.33203125,
        -5334.70458984375,
        -6793.478515625
      ],
      "type": "VEC3"
    },
    {
      "bufferView": 3,
      "byteOffset": 19632,
      "componentType": 5126,
      "count": 292,
      "max": [
        1.0,
        1.0,
        1.0
      ],
      "min": [
        -1.0,
        -1.0,
        -1.0
      ],
      "type": "VEC3"
    },
    {
      "bufferView": 2,
      "byteOffset": 5376,
      "componentType": 5126,
      "count": 292,
      "max": [
        0.9998998641967773,
        0.5022802948951721
      ],
      "min": [
        0.00010012364509748295,
        0.00010009036486735567
      ],
      "type": "VEC2"
    },
    {
      "bufferView": 1,
      "byteOffset": 15360,
      "componentType": 5125,
      "count": 1344,
      "type": "SCALAR"
    },
    {
      "bufferView": 3,
      "byteOffset": 23136,
      "componentType": 5126,
      "count": 2024,
      "max": [
        28.70965003967285,
        5.224151134490967,
        6.540074825286865
      ],
      "min": [
        24.595962524414063,
        2.8112497329711914,
        5.95944881439209
      ],
      "type": "VEC3"
    },
    {
      "bufferView": 3,
      "byteOffset": 47424,
      "componentType": 5126,
      "count": 2024,
      "max": [
        0.9999917149543762,
        0.9999688863754272,
        0.9998381733894348
      ],
      "min": [
        -0.9999917149543762,
        -0.9998359680175781,
        -0.9992658495903015
      ],
      "type": "VEC3"
    },
    {
      "bufferView": 2,
      "byteOffset": 7712,
      "componentType": 5126,
      "count": 2024,
      "max": [
        0.7491605281829834,
        0.9954619407653809
      ],
      "min": [
        0.35998833179473877,
        0.0010331664234399796
      ],
      "type": "VEC2"
    },
    {
      "bufferView": 1,
      "byteOffset": 20736,
      "componentType": 5125,
      "count": 11760,
      "type": "SCALAR"
    },
    {
      "bufferView": 3,
      "byteOffset": 71712,
      "componentType": 5126,
      "count": 5664,
      "max": [
        27.300052642822266,
        2.7413265705108643,
        6.6213812828063965
      ],
      "min": [
        26.00571060180664,
        -0.02585490606725216,
        6.0097270011901855
      ],
      "type": "VEC3"
    },
    {
      "bufferView": 3,
      "byteOffset": 139680,
      "componentType": 5126,
      "count": 5664,
      "max": [
        1.0,
        1.0,
        1.0
      ],
      "min": [
        -1.0,
        -1.0,
        -1.0
      ],
      "type": "VEC3"
    },
    {
      "bufferView": 2,
      "byteOffset": 23904,
      "componentType": 5126,
      "count": 5664,
      "max": [
        0.9937345385551453,
        0.9983319044113159
      ],
      "min": [
        0.0016681479755789042,
        0.0016681479755789042
      ],
      "type": "VEC2"
    },
    {
      "bufferView": 1,
      "byteOffset": 67776,
      "componentType": 5125,
      "count": 14136,
      "type": "SCALAR"
    },
    {
      "bufferView": 3,
      "byteOffset": 207648,
      "componentType": 5126,
      "count": 9779,
      "max": [
        -51.14849853515625,
        0.30833518505096436,
        -11.922736167907715
      ],
      "min": [
        -63.62129211425781,
        -12.466182708740234,
        -15.9996919631958
      ],
      "type": "VEC3"
    },
    {
      "bufferView": 3,
      "byteOffset": 324996,
      "componentType": 5126,
      "count": 9779,
      "max": [
        0.9999776482582092,
        1.0,
        1.0
      ],
      "min": [
        -0.9999776482582092,
        -1.0,
        -1.0
      ],
      "type": "VEC3"
    },
    {
      "bufferView": 4,
      "componentType": 5126,
      "count": 9779,
      "max": [
        1.0,
        0.999994695186615,
        0.9999988079071045,
        1.0
      ],
      "min": [
        -1.0,
        -0.9999979734420776,
        -0.9999905228614807,
        -1.0
      ],
      "type": "VEC4"
    },
    {
      "bufferView": 2,
      "byteOffset": 69216,
      "componentType": 5126,
      "count": 9779,
      "max": [
        0.9829505085945129,
        0.9993585348129272
      ],
      "min": [
        0.000641422753687948,
        0.0006414145464077592
      ],
      "type": "VEC2"
    },
    {
      "bufferView": 1,
      "byteOffset": 124320,
      "componentType": 5125,
      "count": 43674,
      "type": "SCALAR"
    },
    {
      "bufferView": 3,
      "byteOffset": 442344,
      "componentType": 5126,
      "count": 10029,
      "max": [
        28.8316650390625,
        5.330180644989014,
        6.8423943519592285
      ],
      "min": [
        24.47394371032715,
        2.6349973678588867,
        5.978125095367432
      ],
      "type": "VEC3"
    },
    {
      "bufferView": 3,
      "byteOffset": 562692,
      "componentType": 5126,
      "count": 10029,
      "max": [
        1.0,
        1.0,
        1.0
      ],
      "min": [
        -1.0,
        -1.0,
        -1.0
      ],
      "type": "VEC3"
    },
    {
      "bufferView": 2,
      "byteOffset": 147448,
      "componentType": 5126,
      "count": 10029,
      "max": [
        0.9952287673950195,
        0.9973397254943848
      ],
      "min": [
        0.0016681498382240534,
        0.0016681475099176168
      ],
      "type": "VEC2"
    },
    {
      "bufferView": 1,
      "byteOffset": 299016,
      "componentType": 5125,
      "count": 26160,
      "type": "SCALAR"
    },
    {
      "bufferView": 3,
      "byteOffset": 683040,
      "componentType": 5126,
      "count": 3672,
      "max": [
        -51.13132858276367,
        -2.9883437156677246,
        -12.122562408447266
      ],
      "min": [
        -63.63712692260742,
        -12.483031272888184,
        -14.78225326538086
      ],
      "type": "VEC3"
    },
    {
      "bufferView": 3,
      "byteOffset": 727104,
      "componentType": 5126,
      "count": 3672,
      "max": [
        0.9999879002571106,
        1.0,
        0.9999998211860657
      ],
      "min": [
        -0.999987781047821,
        -0.9999978542327881,
        -0.9999997019767761
      ],
      "type": "VEC3"
    },
    {
      "bufferView": 4,
      "byteOffset": 156464,
      "componentType": 5126,
      "count": 3672,
      "max": [
        0.9999604225158691,
        0.9999646544456482,
        0.99983149766922,
        1.0
      ],
      "min": [
        -1.0,
        -0.9999957084655762,
        -0.9999929070472717,
        -1.0
      ],
      "type": "VEC4"
    },
    {
      "bufferView": 2,
      "byteOffset": 227680,
      "componentType": 5126,
      "count": 3672,
      "max": [
        0.9506180882453918,
        0.9993585348129272
      ],
      "min": [
        0.000641422753687948,
        0.0006414197268895805
      ],
      "type": "VEC2"
    },
    {
      "bufferView": 1,
      "byteOffset": 403656,
      "componentType": 5125,
      "count": 17808,
      "type": "SCALAR"
    },
    {
      "bufferView": 5,
      "componentType": 5126,
      "count": 54,
      "max": [
        150.00003051757813,
        0.8025673031806946,
        0.4875550866127014,
        0.0,
        0.8025259375572205,
        150.00003051757813,
        0.7904673218727112,
        0.0,
        0.12828941643238068,
        0.8025704026222229,
        150.00003051757813,
        0.0,
        21.734766006469727,
        20.762014389038086,
        8.961426734924316,
        1.0
      ],
      "min": [
        -0.8025673627853394,
        -0.8025259971618652,
        -0.48227161169052124,
        0.0,
        -0.8025672435760498,
        -0.8024961948394775,
        -0.8025702834129333,
        0.0,
        -0.4822223484516144,
        -0.4244537353515625,
        -0.8024396300315857,
        0.0,
        -21.556381225585938,
        -23.025150299072266,
        -17.365385055541992,
        1.0
      ],
      "type": "MAT4"
    },
    {
      "bufferView": 0,
      "componentType": 5123,
      "count": 672,
      "type": "VEC4"
    },
    {
      "bufferView": 4,
      "byteOffset": 215216,
      "componentType": 5126,
      "count": 672,
      "max": [
        1.0,
        0.4985242187976837,
        0.06941141188144684,
        0.0
      ],
      "min": [
        0.5014758110046387,
        0.0,
        0.0,
        0.0
      ],
      "type": "VEC4"
    },
    {
      "bufferView": 0,
      "byteOffset": 5376,
      "componentType": 5123,
      "count": 292,
      "type": "VEC4"
    },
    {
      "bufferView": 4,
      "byteOffset": 225968,
      "componentType": 5126,
      "count": 292,
      "max": [
        1.0,
        0.0,
        0.0,
        0.0
      ],
      "min": [
        1.0,
        0.0,
        0.0,
        0.0
      ],
      "type": "VEC4"
    },
    {
      "bufferView": 0,
      "byteOffset": 7712,
      "componentType": 5123,
      "count": 2024,
      "type": "VEC4"
    },
    {
      "bufferView": 4,
      "byteOffset": 230640,
      "componentType": 5126,
      "count": 2024,
      "max": [
        1.0,
        0.4963029623031616,
        0.10991091281175613,
        0.06188955903053284
      ],
      "min": [
        0.43769627809524536,
        0.0,
        0.0,
        0.0
      ],
      "type": "VEC4"
    },
    {
      "bufferView": 0,
      "byteOffset": 23904,
      "componentType": 5123,
      "count": 5664,
      "type": "VEC4"
    },
    {
      "bufferView": 4,
      "byteOffset": 263024,
      "componentType": 5126,
      "count": 5664,
      "max": [
        1.0,
        0.0,
        0.0,
        0.0
      ],
      "min": [
        1.0,
        0.0,
        0.0,
        0.0
      ],
      "type": "VEC4"
    },
    {
      "bufferView": 0,
      "byteOffset": 69216,
      "componentType": 5123,
      "count": 9779,
      "type": "VEC4"
    },
    {
      "bufferView": 4,
      "byteOffset": 353648,
      "componentType": 5126,
      "count": 9779,
      "max": [
        1.0,
        0.3183023929595947,
        0.0,
        0.0
      ],
      "min": [
        0.6816976070404053,
        0.0,
        0.0,
        0.0
      ],
      "type": "VEC4"
    },
    {
      "bufferView": 0,
      "byteOffset": 147448,
      "componentType": 5123,
      "count": 10029,
      "type": "VEC4"
    },
    {
      "bufferView": 4,
      "byteOffset": 510112,
      "componentType": 5126,
      "count": 10029,
      "max": [
        1.0,
        0.5,
        0.0,
        0.0
      ],
      "min": [
        0.5,
        0.0,
        0.0,
        0.0
      ],
      "type": "VEC4"
    },
    {
      "bufferView": 0,
      "byteOffset": 227680,
      "componentType": 5123,
      "count": 3672,
      "type": "VEC4"
    },
    {
      "bufferView": 4,
      "byteOffset": 670576,
      "componentType": 5126,
      "count": 3672,
      "max": [
        1.0,
        0.0,
        0.0,
        0.0
      ],
      "min": [
        1.0,
        0.0,
        0.0,
        0.0
      ],
      "type": "VEC4"
    },
    {
      "bufferView": 6,
      "componentType": 5126,
      "count": 750,
      "max": [
        20.5
      ],
      "min": [
        0.0
      ],
      "type": "SCALAR"
    },
    {
      "bufferView": 7,
      "componentType": 5126,
      "count": 750,
      "max": [
        9.313296800428361e-10,
        0.9007333517074585,
        -7.82310962677002e-08
      ],
      "min": [
        9.313154691881209e-10,
        0.9007333517074585,
        -7.82310962677002e-08
      ],
      "type": "VEC3"
    },
    {
      "bufferView": 6,
      "byteOffset": 3000,
      "componentType": 5126,
      "count": 879,
      "max": [
        20.5
      ],
      "min": [
        0.0
      ],
      "type": "SCALAR"
    },
    {
      "bufferView": 8,
      "componentType": 5126,
      "count": 879,
      "max": [
        -0.022974831983447075,
        -0.30892568826675415,
        0.00892157107591629,
        0.9484367370605469
      ],
      "min": [
        -0.2235392928123474,
        -0.317236065864563,
        0.0009357148082926869,
        0.9242634177207947
      ],
      "type": "VEC4"
    },
    {
      "bufferView": 6,
      "byteOffset": 6516,
      "componentType": 5126,
      "count": 951,
      "max": [
        20.5
      ],
      "min": [
        0.0
      ],
      "type": "SCALAR"
    },
    {
      "bufferView": 8,
      "byteOffset": 14064,
      "componentType": 5126,
      "count": 951,
      "max": [
        -0.11407279968261719,
        0.1258210688829422,
        0.9930924773216248,
        -0.0033052314538508654
      ],
      "min": [
        -0.186175137758255,
        0.009542160667479038,
        0.9741689562797546,
        -0.029087917879223824
      ],
      "type": "VEC4"
    },
    {
      "bufferView": 6,
      "byteOffset": 10320,
      "componentType": 5126,
      "count": 769,
      "max": [
        20.5
      ],
      "min": [
        0.0
      ],
      "type": "SCALAR"
    },
    {
      "bufferView": 7,
      "byteOffset": 9000,
      "componentType": 5126,
      "count": 769,
      "max": [
        2.0256273103314015e-08,
        0.9007324576377869,
        1.862645326866641e-08
      ],
      "min": [
        2.02562588924593e-08,
        0.9007324576377869,
        1.862644971595273e-08
      ],
      "type": "VEC3"
    },
    {
      "bufferView": 6,
      "byteOffset": 13396,
      "componentType": 5126,
      "count": 896,
      "max": [
        20.5
      ],
      "min": [
        0.0
      ],
      "type": "SCALAR"
    },
    {
      "bufferView": 8,
      "byteOffset": 29280,
      "componentType": 5126,
      "count": 896,
      "max": [
        -0.0123933469876647,
        0.0007359926239587367,
        0.013234890066087246,
        0.9999223351478577
      ],
      "min": [
        -0.14869986474514008,
        0.0007115017506293952,
        0.00110305764246732,
        0.9887935519218445
      ],
      "type": "VEC4"
    },
    {
      "bufferView": 6,
      "byteOffset": 16980,
      "componentType": 5126,
      "count": 954,
      "max": [
        20.5
      ],
      "min": [
        0.0
      ],
      "type": "SCALAR"
    },
    {
      "bufferView": 8,
      "byteOffset": 43616,
      "componentType": 5126,
      "count": 954,
      "max": [
        0.0895622968673706,
        0.08656107634305954,
        0.9997254610061646,
        -0.0016793485265225172
      ],
      "min": [
        0.014012745581567287,
        0.005923018325120211,
        0.9922285676002502,
        -0.011318367905914783
      ],
      "type": "VEC4"
    },
    {
      "bufferView": 6,
      "byteOffset": 20796,
      "componentType": 5126,
      "count": 464,
      "max": [
        20.5
      ],
      "min": [
        0.0
      ],
      "type": "SCALAR"
    },
    {
      "bufferView": 7,
      "byteOffset": 18228,
      "componentType": 5126,
      "count": 464,
      "max": [
        7.105427357601002e-15,
        0.25884246826171875,
        5.960464477539063e-08
      ],
      "min": [
        -7.105427357601002e-15,
        0.25884246826171875,
        5.960464477539063e-08
      ],
      "type": "VEC3"
    },
    {
      "bufferView": 6,
      "byteOffset": 22652,
      "componentType": 5126,
      "count": 550,
      "max": [
        20.5
      ],
      "min": [
        0.0
      ],
      "type": "SCALAR"
    },
    {
      "bufferView": 8,
      "byteOffset": 58880,
      "componentType": 5126,
      "count": 550,
      "max": [
        0.1361301988363266,
        -0.361430823802948,
        -0.768265962600708,
        0.5104936361312866
      ],
      "min": [
        0.1361301988363266,
        -0.361430823802948,
        -0.768265962600708,
        0.5104936361312866
      ],
      "type": "VEC4"
    },
    {
      "bufferView": 6,
      "byteOffset": 24852,
      "componentType": 5126,
      "count": 464,
      "max": [
        20.5
      ],
      "min": [
        0.0
      ],
      "type": "SCALAR"
    },
    {
      "bufferView": 7,
      "byteOffset": 23796,
      "componentType": 5126,
      "count": 464,
      "max": [
        7.105427357601002e-15,
        0.25884246826171875,
        5.960464477539063e-08
      ],
      "min": [
        -7.105427357601002e-15,
        0.25884246826171875,
        5.960464477539063e-08
      ],
      "type": "VEC3"
    },
    {
      "bufferView": 6,
      "byteOffset": 26708,
      "componentType": 5126,
      "count": 421,
      "max": [
        20.5
      ],
      "min": [
        0.0
      ],
      "type": "SCALAR"
    },
    {
      "bufferView": 8,
      "byteOffset": 67680,
      "componentType": 5126,
      "count": 421,
      "max": [
        0.1437329798936844,
        0.377153605222702,
        0.7542160153388977,
        0.517932653427124
      ],
      "min": [
        0.1437329798936844,
        0.377153605222702,
        0.7542160153388977,
        0.517932653427124
      ],
      "type": "VEC4"
    },
    {
      "bufferView": 6,
      "byteOffset": 28392,
      "componentType": 5126,
      "count": 464,
      "max": [
        20.5
      ],
      "min": [
        0.0
      ],
      "type": "SCALAR"
    },
    {
      "bufferView": 7,
      "byteOffset": 29364,
      "componentType": 5126,
      "count": 464,
      "max": [
        7.105427357601002e-15,
        0.25884246826171875,
        5.960464477539063e-08
      ],
      "min": [
        -7.105427357601002e-15,
        0.25884246826171875,
        5.960464477539063e-08
      ],
      "type": "VEC3"
    },
    {
      "bufferView": 6,
      "byteOffset": 30248,
      "componentType": 5126,
      "count": 556,
      "max": [
        20.5
      ],
      "min": [
        0.0
      ],
      "type": "SCALAR"
    },
    {
      "bufferView": 8,
      "byteOffset": 74416,
      "componentType": 5126,
      "count": 556,
      "max": [
        -0.09390831738710403,
        -0.26445069909095764,
        0.7871026396751404,
        0.5492872595787048
      ],
      "min": [
        -0.09390831738710403,
        -0.26445069909095764,
        0.7871026396751404,
        0.5492872595787048
      ],
      "type": "VEC4"
    },
    {
      "bufferView": 6,
      "byteOffset": 32472,
      "componentType": 5126,
      "count": 464,
      "max": [
        20.5
      ],
      "min": [
        0.0
      ],
      "type": "SCALAR"
    },
    {
      "bufferView": 7,
      "byteOffset": 34932,
      "componentType": 5126,
      "count": 464,
      "max": [
        7.105427357601002e-15,
        0.25884246826171875,
        5.960464477539063e-08
      ],
      "min": [
        -7.105427357601002e-15,
        0.25884246826171875,
        5.960464477539063e-08
      ],
      "type": "VEC3"
    },
    {
      "bufferView": 6,
      "byteOffset": 34328,
      "componentType": 5126,
      "count": 552,
      "max": [
        20.5
      ],
      "min": [
        0.0
      ],
      "type": "SCALAR"
    },
    {
      "bufferView": 8,
      "byteOffset": 83312,
      "componentType": 5126,
      "count": 552,
      "max": [
        -0.0961151272058487,
        0.2701718211174011,
        -0.781777560710907,
        0.5537083148956299
      ],
      "min": [
        -0.0961151272058487,
        0.2701718211174011,
        -0.781777560710907,
        0.5537083148956299
      ],
      "type": "VEC4"
    },
    {
      "bufferView": 6,
      "byteOffset": 36536,
      "componentType": 5126,
      "count": 702,
      "max": [
        20.5
      ],
      "min": [
        0.0
      ],
      "type": "SCALAR"
    },
    {
      "bufferView": 7,
      "byteOffset": 40500,
      "componentType": 5126,
      "count": 702,
      "max": [
        2.682209014892578e-07,
        0.5748874545097351,
        -1.043081283569336e-07
      ],
      "min": [
        6.705522537231445e-08,
        0.5748873353004456,
        -2.1047890186309814e-07
      ],
      "type": "VEC3"
    },
    {
      "bufferView": 6,
      "byteOffset": 39344,
      "componentType": 5126,
      "count": 4,
      "max": [
        20.5
      ],
      "min": [
        0.0
      ],
      "type": "SCALAR"
    },
    {
      "bufferView": 7,
      "byteOffset": 48924,
      "componentType": 5126,
      "count": 4,
      "max": [
        1.0,
        0.9999998807907104,
        0.9999999403953552
      ],
      "min": [
        0.9999999403953552,
        0.9999998211860657,
        0.9999998807907104
      ],
      "type": "VEC3"
    },
    {
      "bufferView": 6,
      "byteOffset": 39360,
      "componentType": 5126,
      "count": 702,
      "max": [
        20.5
      ],
      "min": [
        0.0
      ],
      "type": "SCALAR"
    },
    {
      "bufferView": 8,
      "byteOffset": 92144,
      "componentType": 5126,
      "count": 702,
      "max": [
        3.749921262397038e-08,
        0.39400792121887207,
        0.02680124342441559,
        0.9996914267539978
      ],
      "min": [
        -0.08220851421356201,
        2.701806067761936e-07,
        -0.1386878788471222,
        0.9048564434051514
      ],
      "type": "VEC4"
    },
    {
      "bufferView": 6,
      "byteOffset": 42168,
      "componentType": 5126,
      "count": 930,
      "max": [
        20.5
      ],
      "min": [
        0.0
      ],
      "type": "SCALAR"
    },
    {
      "bufferView": 7,
      "byteOffset": 48972,
      "componentType": 5126,
      "count": 930,
      "max": [
        1.4901164746561335e-08,
        0.6255534887313843,
        4.61568916421129e-09
      ],
      "min": [
        1.4901157641133977e-08,
        0.6255534887313843,
        4.615682058783932e-09
      ],
      "type": "VEC3"
    },
    {
      "bufferView": 6,
      "byteOffset": 45888,
      "componentType": 5126,
      "count": 4,
      "max": [
        20.5
      ],
      "min": [
        0.0
      ],
      "type": "SCALAR"
    },
    {
      "bufferView": 7,
      "byteOffset": 60132,
      "componentType": 5126,
      "count": 4,
      "max": [
        1.0,
        1.000000238418579,
        1.0000001192092896
      ],
      "min": [
        1.0,
        1.0000001192092896,
        1.0000001192092896
      ],
      "type": "VEC3"
    },
    {
      "bufferView": 6,
      "byteOffset": 45904,
      "componentType": 5126,
      "count": 943,
      "max": [
        20.5
      ],
      "min": [
        0.0
      ],
      "type": "SCALAR"
    },
    {
      "bufferView": 8,
      "byteOffset": 103376,
      "componentType": 5126,
      "count": 943,
      "max": [
        0.7594009637832642,
        0.0022794893011450768,
        0.002677580341696739,
        0.8918951153755188
      ],
      "min": [
        0.45223236083984375,
        0.00135727075394243,
        0.001953321509063244,
        0.6506159901618958
      ],
      "type": "VEC4"
    },
    {
      "bufferView": 6,
      "byteOffset": 49676,
      "componentType": 5126,
      "count": 932,
      "max": [
        20.5
      ],
      "min": [
        0.0
      ],
      "type": "SCALAR"
    },
    {
      "bufferView": 8,
      "byteOffset": 118464,
      "componentType": 5126,
      "count": 932,
      "max": [
        6.850224387733306e-09,
        0.25726184248924255,
        0.9592864513397217,
        0.37999165058135986
      ],
      "min": [
        -0.3172476887702942,
        -4.7474532038904727e-07,
        0.8299256563186646,
        0.28243499994277954
      ],
      "type": "VEC4"
    },
    {
      "bufferView": 6,
      "byteOffset": 53404,
      "componentType": 5126,
      "count": 44,
      "max": [
        20.5
      ],
      "min": [
        0.0
      ],
      "type": "SCALAR"
    },
    {
      "bufferView": 7,
      "byteOffset": 60180,
      "componentType": 5126,
      "count": 44,
      "max": [
        -1.0430812125150624e-07,
        0.5797516107559204,
        -2.7008354663848877e-07
      ],
      "min": [
        -1.0430813546236095e-07,
        0.5797516107559204,
        -2.7008354663848877e-07
      ],
      "type": "VEC3"
    },
    {
      "bufferView": 6,
      "byteOffset": 53580,
      "componentType": 5126,
      "count": 616,
      "max": [
        20.5
      ],
      "min": [
        0.0
      ],
      "type": "SCALAR"
    },
    {
      "bufferView": 8,
      "byteOffset": 133376,
      "componentType": 5126,
      "count": 616,
      "max": [
        0.051184769719839096,
        0.33872002363204956,
        0.031970612704753876,
        0.9389498233795166
      ],
      "min": [
        0.051184769719839096,
        0.33872002363204956,
        0.031970612704753876,
        0.9389498233795166
      ],
      "type": "VEC4"
    },
    {
      "bufferView": 6,
      "byteOffset": 56044,
      "componentType": 5126,
      "count": 5,
      "max": [
        20.5
      ],
      "min": [
        0.0
      ],
      "type": "SCALAR"
    },
    {
      "bufferView": 7,
      "byteOffset": 60708,
      "componentType": 5126,
      "count": 5,
      "max": [
        2.7939677238464355e-07,
        0.621471643447876,
        5.96292011323385e-08
      ],
      "min": [
        2.7939677238464355e-07,
        0.621471643447876,
        5.962919402691114e-08
      ],
      "type": "VEC3"
    },
    {
      "bufferView": 6,
      "byteOffset": 56064,
      "componentType": 5126,
      "count": 721,
      "max": [
        20.5
      ],
      "min": [
        0.0
      ],
      "type": "SCALAR"
    },
    {
      "bufferView": 8,
      "byteOffset": 143232,
      "componentType": 5126,
      "count": 721,
      "max": [
        0.6348448395729065,
        -0.001858358271420002,
        -0.0030565562192350626,
        0.8828058838844299
      ],
      "min": [
        0.46972134709358215,
        -0.00251159630715847,
        -0.0034924428910017014,
        0.7726295590400696
      ],
      "type": "VEC4"
    },
    {
      "bufferView": 6,
      "byteOffset": 58948,
      "componentType": 5126,
      "count": 718,
      "max": [
        20.5
      ],
      "min": [
        0.0
      ],
      "type": "SCALAR"
    },
    {
      "bufferView": 8,
      "byteOffset": 154768,
      "componentType": 5126,
      "count": 718,
      "max": [
        -6.440448032662971e-07,
        0.23850895464420319,
        0.9554827213287354,
        -0.2857067883014679
      ],
      "min": [
        -0.07365071773529053,
        -5.2748898582422044e-08,
        0.9252354502677917,
        -0.2950471043586731
      ],
      "type": "VEC4"
    },
    {
      "bufferView": 6,
      "byteOffset": 61820,
      "componentType": 5126,
      "count": 707,
      "max": [
        20.5
      ],
      "min": [
        0.0
      ],
      "type": "SCALAR"
    },
    {
      "bufferView": 7,
      "byteOffset": 60768,
      "componentType": 5126,
      "count": 707,
      "max": [
        1.0803341865539551e-07,
        0.15858094394207,
        0.020921830087900162
      ],
      "min": [
        7.450580596923828e-08,
        0.15522031486034393,
        0.013695497065782547
      ],
      "type": "VEC3"
    },
    {
      "bufferView": 6,
      "byteOffset": 64648,
      "componentType": 5126,
      "count": 4,
      "max": [
        20.5
      ],
      "min": [
        0.0
      ],
      "type": "SCALAR"
    },
    {
      "bufferView": 7,
      "byteOffset": 69252,
      "componentType": 5126,
      "count": 4,
      "max": [
        0.9999999403953552,
        0.9999999403953552,
        0.9999998807907104
      ],
      "min": [
        0.9999999403953552,
        0.9999998807907104,
        0.9999998807907104
      ],
      "type": "VEC3"
    },
    {
      "bufferView": 6,
      "byteOffset": 64664,
      "componentType": 5126,
      "count": 707,
      "max": [
        20.5
      ],
      "min": [
        0.0
      ],
      "type": "SCALAR"
    },
    {
      "bufferView": 8,
      "byteOffset": 166256,
      "componentType": 5126,
      "count": 707,
      "max": [
        0.8444623351097107,
        6.73863610245462e-07,
        9.465478001402516e-07,
        0.6867542862892151
      ],
      "min": [
        0.7268896102905273,
        5.051798552813125e-07,
        8.356310559065605e-07,
        0.5356149673461914
      ],
      "type": "VEC4"
    },
    {
      "bufferView": 6,
      "byteOffset": 67492,
      "componentType": 5126,
      "count": 707,
      "max": [
        20.5
      ],
      "min": [
        0.0
      ],
      "type": "SCALAR"
    },
    {
      "bufferView": 7,
      "byteOffset": 69300,
      "componentType": 5126,
      "count": 707,
      "max": [
        1.3783574104309082e-07,
        0.12136261910200119,
        0.0036190636456012726
      ],
      "min": [
        9.685754776000977e-08,
        0.11800333112478256,
        -0.0036074500530958176
      ],
      "type": "VEC3"
    },
    {
      "bufferView": 6,
      "byteOffset": 70320,
      "componentType": 5126,
      "count": 707,
      "max": [
        20.5
      ],
      "min": [
        0.0
      ],
      "type": "SCALAR"
    },
    {
      "bufferView": 8,
      "byteOffset": 177568,
      "componentType": 5126,
      "count": 707,
      "max": [
        0.8590663075447083,
        6.273692179092905e-07,
        8.655571832605347e-07,
        0.6662227511405945
      ],
      "min": [
        0.7457528114318848,
        4.42087781493683e-07,
        7.644060247002926e-07,
        0.5118643641471863
      ],
      "type": "VEC4"
    },
    {
      "bufferView": 6,
      "byteOffset": 73148,
      "componentType": 5126,
      "count": 692,
      "max": [
        20.5
      ],
      "min": [
        0.0
      ],
      "type": "SCALAR"
    },
    {
      "bufferView": 8,
      "byteOffset": 188880,
      "componentType": 5126,
      "count": 692,
      "max": [
        0.8175851106643677,
        0.19080989062786102,
        0.18083059787750244,
        0.7068259716033936
      ],
      "min": [
        0.6811670660972595,
        -0.1809842735528946,
        -0.22891028225421906,
        0.5087195634841919
      ],
      "type": "VEC4"
    },
    {
      "bufferView": 6,
      "byteOffset": 75916,
      "componentType": 5126,
      "count": 720,
      "max": [
        20.5
      ],
      "min": [
        0.0
      ],
      "type": "SCALAR"
    },
    {
      "bufferView": 7,
      "byteOffset": 77784,
      "componentType": 5126,
      "count": 720,
      "max": [
        0.16496141254901886,
        0.532463550567627,
        0.242911234498024
      ],
      "min": [
        0.16496139764785767,
        0.5313106179237366,
        0.24050532281398773
      ],
      "type": "VEC3"
    },
    {
      "bufferView": 6,
      "byteOffset": 78796,
      "componentType": 5126,
      "count": 8,
      "max": [
        20.5
      ],
      "min": [
        0.0
      ],
      "type": "SCALAR"
    },
    {
      "bufferView": 7,
      "byteOffset": 86424,
      "componentType": 5126,
      "count": 8,
      "max": [
        1.0,
        1.0000001192092896,
        1.0
      ],
      "min": [
        1.0,
        0.9999999403953552,
        0.9999999403953552
      ],
      "type": "VEC3"
    },
    {
      "bufferView": 6,
      "byteOffset": 78828,
      "componentType": 5126,
      "count": 720,
      "max": [
        20.5
      ],
      "min": [
        0.0
      ],
      "type": "SCALAR"
    },
    {
      "bufferView": 8,
      "byteOffset": 199952,
      "componentType": 5126,
      "count": 720,
      "max": [
        0.7061012983322144,
        -7.665007295543091e-09,
        8.8684322108179e-09,
        0.9999974966049194
      ],
      "min": [
        -0.25705060362815857,
        -1.6686113823993765e-08,
        -9.313248838793697e-09,
        0.7081108093261719
      ],
      "type": "VEC4"
    },
    {
      "bufferView": 6,
      "byteOffset": 81708,
      "componentType": 5126,
      "count": 692,
      "max": [
        20.5
      ],
      "min": [
        0.0
      ],
      "type": "SCALAR"
    },
    {
      "bufferView": 8,
      "byteOffset": 211472,
      "componentType": 5126,
      "count": 692,
      "max": [
        0.8175860643386841,
        0.1908103972673416,
        0.1808302402496338,
        0.7068246006965637
      ],
      "min": [
        0.6811684966087341,
        -0.18098458647727966,
        -0.22891005873680115,
        0.508717954158783
      ],
      "type": "VEC4"
    },
    {
      "bufferView": 6,
      "byteOffset": 84476,
      "componentType": 5126,
      "count": 720,
      "max": [
        20.5
      ],
      "min": [
        0.0
      ],
      "type": "SCALAR"
    },
    {
      "bufferView": 7,
      "byteOffset": 86520,
      "componentType": 5126,
      "count": 720,
      "max": [
        -0.15724876523017883,
        0.5303943753242493,
        0.24209409952163696
      ],
      "min": [
        -0.15724880993366241,
        0.5292400121688843,
        0.23968809843063354
      ],
      "type": "VEC3"
    },
    {
      "bufferView": 6,
      "byteOffset": 87356,
      "componentType": 5126,
      "count": 8,
      "max": [
        20.5
      ],
      "min": [
        0.0
      ],
      "type": "SCALAR"
    },
    {
      "bufferView": 7,
      "byteOffset": 95160,
      "componentType": 5126,
      "count": 8,
      "max": [
        1.0,
        1.0000001192092896,
        1.0
      ],
      "min": [
        1.0,
        0.9999999403953552,
        0.9999999403953552
      ],
      "type": "VEC3"
    },
    {
      "bufferView": 6,
      "byteOffset": 87388,
      "componentType": 5126,
      "count": 720,
      "max": [
        20.5
      ],
      "min": [
        0.0
      ],
      "type": "SCALAR"
    },
    {
      "bufferView": 8,
      "byteOffset": 222544,
      "componentType": 5126,
      "count": 720,
      "max": [
        0.7061012983322144,
        -7.665007295543091e-09,
        8.8684322108179e-09,
        0.9999974966049194
      ],
      "min": [
        -0.25705060362815857,
        -1.6686113823993765e-08,
        -9.313248838793697e-09,
        0.7081108093261719
      ],
      "type": "VEC4"
    },
    {
      "bufferView": 6,
      "byteOffset": 90268,
      "componentType": 5126,
      "count": 955,
      "max": [
        20.5
      ],
      "min": [
        0.0
      ],
      "type": "SCALAR"
    },
    {
      "bufferView": 8,
      "byteOffset": 234064,
      "componentType": 5126,
      "count": 955,
      "max": [
        0.10775919258594513,
        0.00029060200904496014,
        0.10543752461671829,
        0.9999997615814209
      ],
      "min": [
        -0.12757180631160736,
        -0.0004902522196061909,
        -0.1307046115398407,
        0.9864760637283325
      ],
      "type": "VEC4"
    },
    {
      "bufferView": 6,
      "byteOffset": 94088,
      "componentType": 5126,
      "count": 947,
      "max": [
        20.5
      ],
      "min": [
        0.0
      ],
      "type": "SCALAR"
    },
    {
      "bufferView": 8,
      "byteOffset": 249344,
      "componentType": 5126,
      "count": 947,
      "max": [
        -0.003710139775648713,
        0.300224632024765,
        0.0009821202838793397,
        0.9999914765357971
      ],
      "min": [
        -0.0038914429023861885,
        -0.25204214453697205,
        -0.0011677804868668318,
        0.9538605809211731
      ],
      "type": "VEC4"
    },
    {
      "bufferView": 6,
      "byteOffset": 97876,
      "componentType": 5126,
      "count": 903,
      "max": [
        20.5
      ],
      "min": [
        0.0
      ],
      "type": "SCALAR"
    },
    {
      "bufferView": 7,
      "byteOffset": 95256,
      "componentType": 5126,
      "count": 903,
      "max": [
        1.2878508925950882e-08,
        0.1767130047082901,
        8.381905836074566e-09
      ],
      "min": [
        1.2878494715096167e-08,
        0.1767130047082901,
        8.381899618825628e-09
      ],
      "type": "VEC3"
    },
    {
      "bufferView": 6,
      "byteOffset": 101488,
      "componentType": 5126,
      "count": 947,
      "max": [
        20.5
      ],
      "min": [
        0.0
      ],
      "type": "SCALAR"
    },
    {
      "bufferView": 8,
      "byteOffset": 264496,
      "componentType": 5126,
      "count": 947,
      "max": [
        0.0020255083218216896,
        0.00020136967941652983,
        0.09262581169605255,
        0.9999977946281433
      ],
      "min": [
        0.002015469828620553,
        -0.00018763098341878504,
        -0.09941695630550385,
        0.9950438141822815
      ],
      "type": "VEC4"
    },
    {
      "bufferView": 6,
      "byteOffset": 105276,
      "componentType": 5126,
      "count": 328,
      "max": [
        20.5
      ],
      "min": [
        0.0
      ],
      "type": "SCALAR"
    },
    {
      "bufferView": 7,
      "byteOffset": 106092,
      "componentType": 5126,
      "count": 328,
      "max": [
        0.0008368198177777231,
        0.7996051907539368,
        -1.565134866154949e-08
      ],
      "min": [
        0.0008368198177777231,
        0.7996051907539368,
        -1.565135576697685e-08
      ],
      "type": "VEC3"
    },
    {
      "bufferView": 6,
      "byteOffset": 106588,
      "componentType": 5126,
      "count": 947,
      "max": [
        20.5
      ],
      "min": [
        0.0
      ],
      "type": "SCALAR"
    },
    {
      "bufferView": 8,
      "byteOffset": 279648,
      "componentType": 5126,
      "count": 947,
      "max": [
        0.0018641359638422728,
        7.408810009934541e-09,
        1.1272438538156848e-09,
        0.9999996423721313
      ],
      "min": [
        -0.08214832097291946,
        7.340060115268443e-09,
        5.066501662653877e-10,
        0.9966201186180115
      ],
      "type": "VEC4"
    },
    {
      "bufferView": 6,
      "byteOffset": 110376,
      "componentType": 5126,
      "count": 4,
      "max": [
        20.5
      ],
      "min": [
        0.0
      ],
      "type": "SCALAR"
    },
    {
      "bufferView": 7,
      "byteOffset": 110028,
      "componentType": 5126,
      "count": 4,
      "max": [
        1.0000001192092896,
        1.0,
        1.0
      ],
      "min": [
        1.0,
        1.0,
        1.0
      ],
      "type": "VEC3"
    },
    {
      "bufferView": 6,
      "byteOffset": 110392,
      "componentType": 5126,
      "count": 985,
      "max": [
        20.5
      ],
      "min": [
        0.0
      ],
      "type": "SCALAR"
    },
    {
      "bufferView": 8,
      "byteOffset": 294800,
      "componentType": 5126,
      "count": 985,
      "max": [
        0.9993764758110046,
        0.04982974752783775,
        0.011319227516651154,
        0.184347003698349
      ],
      "min": [
        0.9815961718559265,
        -0.06970387697219849,
        0.0007064189994707704,
        -0.006344938650727272
      ],
      "type": "VEC4"
    },
    {
      "bufferView": 6,
      "byteOffset": 114332,
      "componentType": 5126,
      "count": 955,
      "max": [
        20.5
      ],
      "min": [
        0.0
      ],
      "type": "SCALAR"
    },
    {
      "bufferView": 8,
      "byteOffset": 310560,
      "componentType": 5126,
      "count": 955,
      "max": [
        0.014358016662299633,
        0.17053751647472382,
        0.01415183860808611,
        0.9999948143959045
      ],
      "min": [
        -0.1256505250930786,
        -0.20289088785648346,
        -0.03730355203151703,
        0.9710805416107178
      ],
      "type": "VEC4"
    },
    {
      "bufferView": 6,
      "byteOffset": 118152,
      "componentType": 5126,
      "count": 724,
      "max": [
        20.5
      ],
      "min": [
        0.0
      ],
      "type": "SCALAR"
    },
    {
      "bufferView": 7,
      "byteOffset": 110076,
      "componentType": 5126,
      "count": 724,
      "max": [
        0.07411874830722809,
        0.33920302987098694,
        2.0871331691741943
      ],
      "min": [
        -0.10891591012477875,
        0.33920302987098694,
        2.05754017829895
      ],
      "type": "VEC3"
    },
    {
      "bufferView": 6,
      "byteOffset": 121048,
      "componentType": 5126,
      "count": 904,
      "max": [
        20.5
      ],
      "min": [
        0.0
      ],
      "type": "SCALAR"
    },
    {
      "bufferView": 8,
      "byteOffset": 325840,
      "componentType": 5126,
      "count": 904,
      "max": [
        0.7071068286895752,
        0.03589460253715515,
        0.02315988950431347,
        0.7071067094802856
      ],
      "min": [
        0.7061951756477356,
        -0.026455631479620934,
        -0.03197581693530083,
        0.7063834071159363
      ],
      "type": "VEC4"
    }
  ],
  "animations": [
    {
      "channels": [
        {
          "sampler": 0,
          "target": {
            "node": 30,
            "path": "translation"
          }
        },
        {
          "sampler": 1,
          "target": {
            "node": 30,
            "path": "rotation"
          }
        },
        {
          "sampler": 2,
          "target": {
            "node": 29,
            "path": "rotation"
          }
        },
        {
          "sampler": 3,
          "target": {
            "node": 33,
            "path": "translation"
          }
        },
        {
          "sampler": 4,
          "target": {
            "node": 33,
            "path": "rotation"
          }
        },
        {
          "sampler": 5,
          "target": {
            "node": 32,
            "path": "rotation"
          }
        },
        {
          "sampler": 6,
          "target": {
            "node": 35,
            "path": "translation"
          }
        },
        {
          "sampler": 7,
          "target": {
            "node": 35,
            "path": "rotation"
          }
        },
        {
          "sampler": 8,
          "target": {
            "node": 37,
            "path": "translation"
          }
        },
        {
          "sampler": 9,
          "target": {
            "node": 37,
            "path": "rotation"
          }
        },
        {
          "sampler": 10,
          "target": {
            "node": 39,
            "path": "translation"
          }
        },
        {
          "sampler": 11,
          "target": {
            "node": 39,
            "path": "rotation"
          }
        },
        {
          "sampler": 12,
          "target": {
            "node": 41,
            "path": "translation"
          }
        },
        {
          "sampler": 13,
          "target": {
            "node": 41,
            "path": "rotation"
          }
        },
        {
          "sampler": 14,
          "target": {
            "node": 46,
            "path": "translation"
          }
        },
        {
          "sampler": 15,
          "target": {
            "node": 46,
            "path": "scale"
          }
        },
        {
          "sampler": 16,
          "target": {
            "node": 46,
            "path": "rotation"
          }
        },
        {
          "sampler": 17,
          "target": {
            "node": 45,
            "path": "translation"
          }
        },
        {
          "sampler": 18,
          "target": {
            "node": 45,
            "path": "scale"
          }
        },
        {
          "sampler": 19,
          "target": {
            "node": 45,
            "path": "rotation"
          }
        },
        {
          "sampler": 20,
          "target": {
            "node": 44,
            "path": "rotation"
          }
        },
        {
          "sampler": 21,
          "target": {
            "node": 50,
            "path": "translation"
          }
        },
        {
          "sampler": 22,
          "target": {
            "node": 50,
            "path": "rotation"
          }
        },
        {
          "sampler": 23,
          "target": {
            "node": 49,
            "path": "translation"
          }
        },
        {
          "sampler": 24,
          "target": {
            "node": 49,
            "path": "rotation"
          }
        },
        {
          "sampler": 25,
          "target": {
            "node": 48,
            "path": "rotation"
          }
        },
        {
          "sampler": 26,
          "target": {
            "node": 55,
            "path": "translation"
          }
        },
        {
          "sampler": 27,
          "target": {
            "node": 55,
            "path": "scale"
          }
        },
        {
          "sampler": 28,
          "target": {
            "node": 55,
            "path": "rotation"
          }
        },
        {
          "sampler": 29,
          "target": {
            "node": 57,
            "path": "translation"
          }
        },
        {
          "sampler": 30,
          "target": {
            "node": 57,
            "path": "rotation"
          }
        },
        {
          "sampler": 31,
          "target": {
            "node": 59,
            "path": "rotation"
          }
        },
        {
          "sampler": 32,
          "target": {
            "node": 61,
            "path": "translation"
          }
        },
        {
          "sampler": 33,
          "target": {
            "node": 61,
            "path": "scale"
          }
        },
        {
          "sampler": 34,
          "target": {
            "node": 61,
            "path": "rotation"
          }
        },
        {
          "sampler": 35,
          "target": {
            "node": 63,
            "path": "rotation"
          }
        },
        {
          "sampler": 36,
          "target": {
            "node": 65,
            "path": "translation"
          }
        },
        {
          "sampler": 37,
          "target": {
            "node": 65,
            "path": "scale"
          }
        },
        {
          "sampler": 38,
          "target": {
            "node": 65,
            "path": "rotation"
          }
        },
        {
          "sampler": 39,
          "target": {
            "node": 67,
            "path": "rotation"
          }
        },
        {
          "sampler": 40,
          "target": {
            "node": 54,
            "path": "rotation"
          }
        },
        {
          "sampler": 41,
          "target": {
            "node": 53,
            "path": "translation"
          }
        },
        {
          "sampler": 42,
          "target": {
            "node": 53,
            "path": "rotation"
          }
        },
        {
          "sampler": 43,
          "target": {
            "node": 52,
            "path": "translation"
          }
        },
        {
          "sampler": 44,
          "target": {
            "node": 52,
            "path": "rotation"
          }
        },
        {
          "sampler": 45,
          "target": {
            "node": 69,
            "path": "scale"
          }
        },
        {
          "sampler": 46,
          "target": {
            "node": 69,
            "path": "rotation"
          }
        },
        {
          "sampler": 47,
          "target": {
            "node": 43,
            "path": "rotation"
          }
        },
        {
          "sampler": 48,
          "target": {
            "node": 28,
            "path": "translation"
          }
        },
        {
          "sampler": 49,
          "target": {
            "node": 28,
            "path": "rotation"
          }
        }
      ],
      "name": "Performance",
      "samplers": [
        {
          "input": 45,
          "interpolation": "LINEAR",
          "output": 46
        },
        {
          "input": 47,
          "interpolation": "LINEAR",
          "output": 48
        },
        {
          "input": 49,
          "interpolation": "LINEAR",
          "output": 50
        },
        {
          "input": 51,
          "interpolation": "LINEAR",
          "output": 52
        },
        {
          "input": 53,
          "interpolation": "LINEAR",
          "output": 54
        },
        {
          "input": 55,
          "interpolation": "LINEAR",
          "output": 56
        },
        {
          "input": 57,
          "interpolation": "LINEAR",
          "output": 58
        },
        {
          "input": 59,
          "interpolation": "LINEAR",
          "output": 60
        },
        {
          "input": 61,
          "interpolation": "LINEAR",
          "output": 62
        },
        {
          "input": 63,
          "interpolation": "LINEAR",
          "output": 64
        },
        {
          "input": 65,
          "interpolation": "LINEAR",
          "output": 66
        },
        {
          "input": 67,
          "interpolation": "LINEAR",
          "output": 68
        },
        {
          "input": 69,
          "interpolation": "LINEAR",
          "output": 70
        },
        {
          "input": 71,
          "interpolation": "LINEAR",
          "output": 72
        },
        {
          "input": 73,
          "interpolation": "LINEAR",
          "output": 74
        },
        {
          "input": 75,
          "interpolation": "LINEAR",
          "output": 76
        },
        {
          "input": 77,
          "interpolation": "LINEAR",
          "output": 78
        },
        {
          "input": 79,
          "interpolation": "LINEAR",
          "output": 80
        },
        {
          "input": 81,
          "interpolation": "LINEAR",
          "output": 82
        },
        {
          "input": 83,
          "interpolation": "LINEAR",
          "output": 84
        },
        {
          "input": 85,
          "interpolation": "LINEAR",
          "output": 86
        },
        {
          "input": 87,
          "interpolation": "LINEAR",
          "output": 88
        },
        {
          "input": 89,
          "interpolation": "LINEAR",
          "output": 90
        },
        {
          "input": 91,
          "interpolation": "LINEAR",
          "output": 92
        },
        {
          "input": 93,
          "interpolation": "LINEAR",
          "output": 94
        },
        {
          "input": 95,
          "interpolation": "LINEAR",
          "output": 96
        },
        {
          "input": 97,
          "interpolation": "LINEAR",
          "output": 98
        },
        {
          "input": 99,
          "interpolation": "LINEAR",
          "output": 100
        },
        {
          "input": 101,
          "interpolation": "LINEAR",
          "output": 102
        },
        {
          "input": 103,
          "interpolation": "LINEAR",
          "output": 104
        },
        {
          "input": 105,
          "interpolation": "LINEAR",
          "output": 106
        },
        {
          "input": 107,
          "interpolation": "LINEAR",
          "output": 108
        },
        {
          "input": 109,
          "interpolation": "LINEAR",
          "output": 110
        },
        {
          "input": 111,
          "interpolation": "LINEAR",
          "output": 112
        },
        {
          "input": 113,
          "interpolation": "LINEAR",
          "output": 114
        },
        {
          "input": 115,
          "interpolation": "LINEAR",
          "output": 116
        },
        {
          "input": 117,
          "interpolation": "LINEAR",
          "output": 118
        },
        {
          "input": 119,
          "interpolation": "LINEAR",
          "output": 120
        },
        {
          "input": 121,
          "interpolation": "LINEAR",
          "output": 122
        },
        {
          "input": 123,
          "interpolation": "LINEAR",
          "output": 124
        },
        {
          "input": 125,
          "interpolation": "LINEAR",
          "output": 126
        },
        {
          "input": 127,
          "interpolation": "LINEAR",
          "output": 128
        },
        {
          "input": 129,
          "interpolation": "LINEAR",
          "output": 130
        },
        {
          "input": 131,
          "interpolation": "LINEAR",
          "output": 132
        },
        {
          "input": 133,
          "interpolation": "LINEAR",
          "output": 134
        },
        {
          "input": 135,
          "interpolation": "LINEAR",
          "output": 136
        },
        {
          "input": 137,
          "interpolation": "LINEAR",
          "output": 138
        },
        {
          "input": 139,
          "interpolation": "LINEAR",
          "output": 140
        },
        {
          "input": 141,
          "interpolation": "LINEAR",
          "output": 142
        },
        {
          "input": 143,
          "interpolation": "LINEAR",
          "output": 144
        }
      ]
    }
  ],
  "asset": {
    "extras": {
      "author": "Dot-e (https://sketchfab.com/rockin.e26)",
      "license": "CC-BY-4.0 (http://creativecommons.org/licenses/by/4.0/)",
      "source": "https://sketchfab.com/3d-models/chica-the-chicken-1983-fnaf-rewritten-87-9fecb56cde1d4fc1a70dfcc331e730af",
      "title": "Chica the Chicken, 1983 - (FNAF Rewritten 87)"
    },
    "generator": "Sketchfab-16.68.0",
    "version": "2.0"
  },
  "bufferViews": [
    {
      "buffer": 0,
      "byteLength": 257056,
      "byteStride": 8,
      "name": "shortBufferViews",
      "target": 34962
    },
    {
      "buffer": 0,
      "byteLength": 474888,
      "byteOffset": 257056,
      "name": "floatBufferViews",
      "target": 34963
    },
    {
      "buffer": 0,
      "byteLength": 257056,
      "byteOffset": 731944,
      "byteStride": 8,
      "name": "floatBufferViews",
      "target": 34962
    },
    {
      "buffer": 0,
      "byteLength": 771168,
      "byteOffset": 989000,
      "byteStride": 12,
      "name": "floatBufferViews",
      "target": 34962
    },
    {
      "buffer": 0,
      "byteLength": 729328,
      "byteOffset": 1760168,
      "byteStride": 16,
      "name": "floatBufferViews",
      "target": 34962
    },
    {
      "buffer": 0,
      "byteLength": 3456,
      "byteOffset": 2489496,
      "name": "floatBufferViews"
    },
    {
      "buffer": 0,
      "byteLength": 124664,
      "byteOffset": 2492952,
      "name": "floatBufferViews"
    },
    {
      "buffer": 0,
      "byteLength": 118764,
      "byteOffset": 2617616,
      "byteStride": 12,
      "name": "floatBufferViews"
    },
    {
      "buffer": 0,
      "byteLength": 340304,
      "byteOffset": 2736380,
      "byteStride": 16,
      "name": "floatBufferViews"
    }
  ],
  "buffers": [
    {
      "byteLength": 3076684,
      "uri": "scene.bin"
    }
  ],
  "images": [
    {
      "uri": "textures/Eye.001_baseColor.png"
    },
    {
      "uri": "textures/normchica.002_baseColor.png"
    },
    {
      "uri": "textures/normchica.002_metallicRoughness.png"
    },
    {
      "uri": "textures/normchica.002_normal.png"
    },
    {
      "uri": "textures/Endo.006_baseColor.png"
    },
    {
      "uri": "textures/normchica.003_baseColor.png"
    },
    {
      "uri": "textures/normchica.003_normal.png"
    }
  ],
  "materials": [
    {
      "doubleSided": true,
      "name": "Wire.001",
      "pbrMetallicRoughness": {
        "baseColorFactor": [
          0.801009,
          0.504898,
          0.141003,
          1.0
        ],
        "metallicFactor": 0.0,
        "roughnessFactor": 0.8788994822497406
      }
    },
    {
      "doubleSided": true,
      "name": "Eye.001",
      "pbrMetallicRoughness": {
        "baseColorTexture": {
          "index": 0
        },
        "metallicFactor": 0.0,
        "roughnessFactor": 0.8211145618000169
      }
    },
    {
      "doubleSided": true,
      "name": "wire.004",
      "pbrMetallicRoughness": {
        "baseColorFactor": [
          0.8,
          0.8,
          0.8,
          1.0
        ],
        "metallicFactor": 0.0,
        "roughnessFactor": 0.8211145618000169
      }
    },
    {
      "doubleSided": true,
      "name": "Endo.004",
      "pbrMetallicRoughness": {
        "baseColorFactor": [
          0.8,
          0.8,
          0.8,
          1.0
        ],
        "metallicFactor": 0.0,
        "roughnessFactor": 0.8211145618000169
      }
    },
    {
      "doubleSided": true,
      "name": "normchica.002",
      "normalTexture": {
        "index": 3
      },
      "pbrMetallicRoughness": {
        "baseColorTexture": {
          "index": 1
        },
        "metallicRoughnessTexture": {
          "index": 2
        },
        "roughnessFactor": 0.8211145618000169
      }
    },
    {
      "doubleSided": true,
      "name": "Endo.006",
      "pbrMetallicRoughness": {
        "baseColorTexture": {
          "index": 4
        },
        "metallicFactor": 0.5413359599851139,
        "roughnessFactor": 0.3371292993092555
      }
    },
    {
      "alphaCutoff": 0.030890049021464933,
      "alphaMode": "MASK",
      "doubleSided": true,
      "name": "normchica.003",
      "normalTexture": {
        "index": 6
      },
      "pbrMetallicRoughness": {
        "baseColorTexture": {
          "index": 5
        },
        "metallicFactor": 0.0,
        "roughnessFactor": 0.8211145618000169
      }
    }
  ],
  "meshes": [
    {
      "name": "Wires.002_Wire.001_0",
      "primitives": [
        {
          "attributes": {
            "JOINTS_0": 31,
            "NORMAL": 1,
            "POSITION": 0,
            "TEXCOORD_0": 2,
            "WEIGHTS_0": 32
          },
          "indices": 3,
          "material": 0,
          "mode": 4
        }
      ]
    },
    {
      "name": "Sphere.001_Eye.001_0",
      "primitives": [
        {
          "attributes": {
            "JOINTS_0": 33,
            "NORMAL": 5,
            "POSITION": 4,
            "TEXCOORD_0": 6,
            "WEIGHTS_0": 34
          },
          "indices": 7,
          "material": 1,
          "mode": 4
        }
      ]
    },
    {
      "name": "Mirror.007_wire.004_0",
      "primitives": [
        {
          "attributes": {
            "JOINTS_0": 35,
            "NORMAL": 9,
            "POSITION": 8,
            "TEXCOORD_0": 10,
            "WEIGHTS_0": 36
          },
          "indices": 11,
          "material": 2,
          "mode": 4
        }
      ]
    },
    {
      "name": "Endo.002_Endo.004_0",
      "primitives": [
        {
          "attributes": {
            "JOINTS_0": 37,
            "NORMAL": 13,
            "POSITION": 12,
            "TEXCOORD_0": 14,
            "WEIGHTS_0": 38
          },
          "indices": 15,
          "material": 3,
          "mode": 4
        }
      ]
    },
    {
      "name": "Cube.005_normchica.002_0",
      "primitives": [
        {
          "attributes": {
            "JOINTS_0": 39,
            "NORMAL": 17,
            "POSITION": 16,
            "TANGENT": 18,
            "TEXCOORD_0": 19,
            "WEIGHTS_0": 40
          },
          "indices": 20,
          "material": 4,
          "mode": 4
        }
      ]
    },
    {
      "name": "Cube.011_Endo.006_0",
      "primitives": [
        {
          "attributes": {
            "JOINTS_0": 41,
            "NORMAL": 22,
            "POSITION": 21,
            "TEXCOORD_0": 23,
            "WEIGHTS_0": 42
          },
          "indices": 24,
          "material": 5,
          "mode": 4
        }
      ]
    },
    {
      "name": "Cube.016_normchica.003_0",
      "primitives": [
        {
          "attributes": {
            "JOINTS_0": 43,
            "NORMAL": 26,
            "POSITION": 25,
            "TANGENT": 27,
            "TEXCOORD_0": 28,
            "WEIGHTS_0": 44
          },
          "indices": 29,
          "material": 6,
          "mode": 4
        }
      ]
    }
  ],
  "nodes": [
    {
      "children": [
        1
      ],
      "matrix": [
        0.34581074118614197,
        0.0,
        0.0,
        0.0,
        0.0,
        7.678540940550915e-17,
        -0.34581074118614197,
        0.0,
        0.0,
        0.34581074118614197,
        7.678540940550915e-17,
        0.0,
        0.0,
        0.0,
        0.0,
        1.0
      ],
      "name": "Sketchfab_model"
    },
    {
      "children": [
        2
      ],
      "matrix": [
        0.009999999776482582,
        0.0,
        0.0,
        0.0,
        0.0,
        0.0,
        0.009999999776482582,
        0.0,
        0.0,
        -0.009999999776482582,
        0.0,
        0.0,
        0.0,
        0.0,
        0.0,
        1.0
      ],
      "name": "62bc8a06ee734fb48a41466ef6ccff16.fbx"
    },
    {
      "children": [
        3
      ],
      "name": "Object_2"
    },
    {
      "children": [
        4,
        5,
        6,
        7,
        8,
        9,
        10,
        11
      ],
      "name": "RootNode"
    },
    {
      "name": "Wires.002",
      "rotation": [
        -0.70710688829422,
        0.0,
        0.0,
        0.7071067094802856
      ],
      "scale": [
        150.00003051757813,
        150.00003051757813,
        150.00003051757813
      ],
      "translation": [
        3998.268798828125,
        548.9916381835938,
        945.2173461914063
      ]
    },
    {
      "name": "Sphere.001",
      "rotation": [
        -3.7748939973880624e-08,
        -0.0,
        0.0,
        1.0
      ],
      "scale": [
        19.137392044067383,
        19.137392044067383,
        19.137392044067383
      ],
      "translation": [
        3998.92724609375,
        770.469482421875,
        978.805419921875
      ]
    },
    {
      "name": "Mirror.007",
      "rotation": [
        -0.70710688829422,
        0.0,
        0.0,
        0.7071067094802856
      ],
      "scale": [
        150.00003051757813,
        150.00003051757813,
        150.00003051757813
      ],
      "translation": [
        3998.268798828125,
        548.9916381835938,
        945.2173461914063
      ]
    },
    {
      "name": "Endo.002",
      "rotation": [
        -0.70710688829422,
        0.0,
        0.0,
        0.7071067094802856
      ],
      "scale": [
        150.00006103515625,
        150.00006103515625,
        150.00006103515625
      ],
      "translation": [
        3998.374267578125,
        611.1860961914063,
        934.302490234375
      ]
    },
    {
      "name": "Cube.005",
      "rotation": [
        -0.70710688829422,
        0.0,
        0.0,
        0.7071067094802856
      ],
      "scale": [
        146.89173889160156,
        146.89173889160156,
        146.89173889160156
      ],
      "translation": [
        3998.394775390625,
        545.427490234375,
        968.0399169921875
      ]
    },
    {
      "name": "Cube.011",
      "rotation": [
        -0.70710688829422,
        0.0,
        0.0,
        0.7071067094802856
      ],
      "scale": [
        150.00003051757813,
        150.00003051757813,
        150.00003051757813
      ],
      "translation": [
        3998.373046875,
        611.1859741210938,
        934.3024291992188
      ]
    },
    {
      "name": "Cube.016",
      "rotation": [
        -0.70710688829422,
        0.0,
        0.0,
        0.7071067094802856
      ],
      "scale": [
        146.89173889160156,
        146.89173889160156,
        146.89173889160156
      ],
      "translation": [
        3998.394775390625,
        545.427490234375,
        968.0399169921875
      ]
    },
    {
      "children": [
        12
      ],
      "name": "Armature.003",
      "rotation": [
        -0.7071069478988647,
        0.0,
        0.0,
        0.7071065902709961
      ],
      "scale": [
        186.8994903564453,
        186.8994903564453,
        186.8994903564453
      ],
      "translation": [
        4000.0,
        0.0,
        1000.0
      ]
    },
    {
      "children": [
        13,
        15,
        17,
        19,
        21,
        23,
        25,
        27,
        14,
        16,
        18,
        20,
        22,
        24,
        26
      ],
      "name": "Object_12"
    },
    {
      "children": [
        28,
        71,
        74,
        77,
        79
      ],
      "name": "_rootJoint"
    },
    {
      "matrix": [
        150.00003264549377,
        0.0,
        0.0,
        0.0,
        0.0,
        -2.4438105552882023e-05,
        -150.00003264549883,
        0.0,
        0.0,
        150.00003264549883,
        -2.4438105552882023e-05,
        0.0,
        3998.2685645586753,
        548.9916280370303,
        945.2173862321052,
        1.0
      ],
      "name": "Object_14"
    },
    {
      "mesh": 0,
      "name": "Object_15",
      "skin": 0
    },
    {
      "matrix": [
        19.137393321247487,
        0.0,
        0.0,
        0.0,
        0.0,
        19.137393321248602,
        -1.4448328414025005e-06,
        0.0,
        0.0,
        1.4448328414025005e-06,
        19.137393321248602,
        0.0,
        3998.926987712912,
        770.4694835448361,
        978.8054337346452,
        1.0
      ],
      "name": "Object_16"
    },
    {
      "mesh": 1,
      "name": "Object_17",
      "skin": 0
    },
    {
      "matrix": [
        150.00003264549377,
        0.0,
        0.0,
        0.0,
        0.0,
        -2.4438105552882023e-05,
        -150.00003264549883,
        0.0,
        0.0,
        150.00003264549883,
        -2.4438105552882023e-05,
        0.0,
        3998.2685645586753,
        548.9916280370303,
        945.2173862321052,
        1.0
      ],
      "name": "Object_18"
    },
    {
      "mesh": 2,
      "name": "Object_19",
      "skin": 0
    },
    {
      "matrix": [
        150.00006606572697,
        0.0,
        0.0,
        0.0,
        0.0,
        -2.4438112329996964e-05,
        -150.00006606573203,
        0.0,
        0.0,
        150.00006606573203,
        -2.4438112329996964e-05,
        0.0,
        3998.374083374947,
        611.1860550876627,
        934.3025166937763,
        1.0
      ],
      "name": "Object_20"
    },
    {
      "mesh": 3,
      "name": "Object_21",
      "skin": 0
    },
    {
      "matrix": [
        146.89175043703472,
        0.0,
        0.0,
        0.0,
        0.0,
        -2.3931702138437498e-05,
        -146.89175043703963,
        0.0,
        0.0,
        146.89175043703963,
        -2.3931702138437498e-05,
        0.0,
        3998.394402876729,
        545.4274668664921,
        968.0399294125351,
        1.0
      ],
      "name": "Object_22"
    },
    {
      "mesh": 4,
      "name": "Object_23",
      "skin": 0
    },
    {
      "matrix": [
        150.00003264549377,
        0.0,
        0.0,
        0.0,
        0.0,
        -2.4438105552882023e-05,
        -150.00003264549883,
        0.0,
        0.0,
        150.00003264549883,
        -2.4438105552882023e-05,
        0.0,
        3998.3726574449975,
        611.1859659670157,
        934.3024275731796,
        1.0
      ],
      "name": "Object_24"
    },
    {
      "mesh": 5,
      "name": "Object_25",
      "skin": 0
    },
    {
      "matrix": [
        146.89175043703472,
        0.0,
        0.0,
        0.0,
        0.0,
        -2.3931702138437498e-05,
        -146.89175043703963,
        0.0,
        0.0,
        146.89175043703963,
        -2.3931702138437498e-05,
        0.0,
        3998.394402876729,
        545.4274668664921,
        968.0399294125351,
        1.0
      ],
      "name": "Object_26"
    },
    {
      "mesh": 6,
      "name": "Object_27",
      "skin": 0
    },
    {
      "children": [
        29,
        32,
        35,
        37,
        39,
        41,
        43
      ],
      "name": "Hips_00",
      "rotation": [
        0.7071068286895752,
        0.0,
        0.0,
        0.7071067094802856
      ],
      "translation": [
        0.0,
        0.33920302987098694,
        2.0871331691741943
      ]
    },
    {
      "children": [
        30
      ],
      "name": "UpperLeftLeg_01",
      "rotation": [
        -0.15514394640922546,
        0.014181850478053093,
        0.9877817630767822,
        -0.004046392627060413
      ],
      "scale": [
        1.0,
        1.0000005960464478,
        1.000000238418579
      ],
      "translation": [
        0.327695369720459,
        0.05400347709655762,
        0.0668620765209198
      ]
    },
    {
      "children": [
        31
      ],
      "name": "LowerLeftLeg_02",
      "rotation": [
        -0.02468278631567955,
        -0.3168625831604004,
        0.0009851065697148442,
        0.9481497406959534
      ],
      "scale": [
        1.0000004768371582,
        0.9999995231628418,
        1.0000001192092896
      ],
      "translation": [
        9.313225746154785e-10,
        0.9007333517074585,
        -7.82310962677002e-08
      ]
    },
    {
      "name": "LowerLeftLeg_end_033",
      "rotation": [
        -1.734723475976807e-18,
        -7.52316384526264e-37,
        4.336808689942018e-19,
        1.0
      ],
      "translation": [
        0.0,
        1.1096011400222778,
        1.7763568394002505e-15
      ]
    },
    {
      "children": [
        33
      ],
      "name": "UpperRightLeg_03",
      "rotation": [
        0.04755252227187157,
        0.010002484545111656,
        0.9988172054290771,
        -0.0017168984049931169
      ],
      "scale": [
        1.0,
        1.000000238418579,
        1.0000003576278687
      ],
      "translation": [
        -0.3270358443260193,
        0.047692060470581055,
        0.0668620765209198
      ]
    },
    {
      "children": [
        34
      ],
      "name": "LowerRightLeg_04",
      "rotation": [
        -0.0160965695977211,
        0.0007226699963212013,
        0.0014326601522043347,
        0.999869167804718
      ],
      "scale": [
        0.9999998807907104,
        1.0000003576278687,
        1.0000003576278687
      ],
      "translation": [
        2.025626244517298e-08,
        0.9007324576377869,
        1.862645149230957e-08
      ]
    },
    {
      "name": "LowerRightLeg_end_034",
      "rotation": [
        2.6020852139652106e-18,
        6.938893903907228e-18,
        1.3010426069826053e-18,
        1.0
      ],
      "translation": [
        0.0,
        1.1037797927856445,
        -8.881784197001252e-16
      ]
    },
    {
      "children": [
        36
      ],
      "name": "Hips.001_05",
      "rotation": [
        0.1361302137374878,
        -0.361430823802948,
        -0.768265962600708,
        0.5104936361312866
      ],
      "scale": [
        1.0000001192092896,
        1.0,
        1.0000001192092896
      ],
      "translation": [
        0.0,
        0.25884246826171875,
        5.960464477539063e-08
      ]
    },
    {
      "name": "Hips.001_end_035",
      "rotation": [
        -2.7755575615628914e-17,
        4.163336342344337e-17,
        4.163336342344337e-17,
        1.0
      ],
      "translation": [
        0.0,
        0.5326806902885437,
        -8.881784197001252e-16
      ]
    },
    {
      "children": [
        38
      ],
      "name": "Hips.002_06",
      "rotation": [
        0.14373300969600677,
        0.3771536946296692,
        0.7542160749435425,
        0.5179327130317688
      ],
      "scale": [
        0.9999999403953552,
        0.9999999403953552,
        0.9999998807907104
      ],
      "translation": [
        0.0,
        0.25884246826171875,
        5.960464477539063e-08
      ]
    },
    {
      "name": "Hips.002_end_036",
      "rotation": [
        5.551115123125783e-17,
        -6.938893903907228e-18,
        -2.7755575615628914e-17,
        1.0
      ],
      "translation": [
        0.0,
        0.515269935131073,
        0.0
      ]
    },
    {
      "children": [
        40
      ],
      "name": "Hips.003_07",
      "rotation": [
        -0.09390830993652344,
        -0.26445069909095764,
        0.7871026396751404,
        0.5492872595787048
      ],
      "scale": [
        0.9999998807907104,
        1.0,
        1.0
      ],
      "translation": [
        0.0,
        0.25884246826171875,
        5.960464477539063e-08
      ]
    },
    {
      "name": "Hips.003_end_037",
      "rotation": [
        2.7755575615628914e-17,
        6.938893903907228e-18,
        2.0816681711721685e-17,
        1.0
      ],
      "translation": [
        0.0,
        0.4398861527442932,
        8.881784197001252e-16
      ]
    },
    {
      "children": [
        42
      ],
      "name": "Hips.004_08",
      "rotation": [
        -0.09611513465642929,
        0.2701718211174011,
        -0.7817776203155518,
        0.5537083148956299
      ],
      "scale": [
        1.0000001192092896,
        1.0000001192092896,
        1.0000001192092896
      ],
      "translation": [
        0.0,
        0.25884246826171875,
        5.960464477539063e-08
      ]
    },
    {
      "name": "Hips.004_end_038",
      "rotation": [
        2.407412430484045e-34,
        6.938893903907228e-18,
        -3.469446951953614e-17,
        1.0
      ],
      "translation": [
        -1.7763568394002505e-15,
        0.4320652484893799,
        1.7763568394002505e-15
      ]
    },
    {
      "children": [
        44,
        48,
        52,
        69
      ],
      "name": "Torso_09",
      "rotation": [
        -5.533330593721075e-08,
        -0.2025432139635086,
        1.1444592828979694e-08,
        0.9792734384536743
      ],
      "translation": [
        -0.011295391246676445,
        0.4457519054412842,
        -0.0051843225955963135
      ]
    },
    {
      "children": [
        45
      ],
      "name": "UpperRightArm_010",
      "rotation": [
        -1.6417740056340335e-08,
        -4.6957575250416994e-07,
        0.9592864513397217,
        0.28243497014045715
      ],
      "scale": [
        1.0,
        1.0,
        1.0000001192092896
      ],
      "translation": [
        -0.4390512704849243,
        0.817211925983429,
        -1.144077259596088e-07
      ]
    },
    {
      "children": [
        46
      ],
      "name": "LowerRightArm_011",
      "rotation": [
        0.7594009637832642,
        0.0022794536780565977,
        0.0019533878657966852,
        0.6506159901618958
      ],
      "scale": [
        1.0,
        1.0000001192092896,
        1.0000001192092896
      ],
      "translation": [
        1.4901161193847656e-08,
        0.6255534887313843,
        4.615685611497611e-09
      ]
    },
    {
      "children": [
        47
      ],
      "name": "RightHand_012",
      "rotation": [
        3.540298365578565e-08,
        3.032544668712944e-07,
        0.02680123783648014,
        0.9996408820152283
      ],
      "scale": [
        0.9999999403953552,
        0.9999998211860657,
        0.9999999403953552
      ],
      "translation": [
        6.705522537231445e-08,
        0.5748873353004456,
        -2.1047890186309814e-07
      ]
    },
    {
      "name": "RightHand_end_039",
      "rotation": [
        -6.938893903907228e-18,
        -6.938893903907228e-18,
        -4.81482486096809e-35,
        1.0
      ],
      "translation": [
        -3.552713678800501e-15,
        0.7553910613059998,
        1.7763568394002505e-15
      ]
    },
    {
      "children": [
        49
      ],
      "name": "UpperLeftArm_013",
      "rotation": [
        -6.469183517765487e-07,
        -4.3443058928005485e-08,
        0.9554827213287354,
        -0.2950471043586731
      ],
      "scale": [
        1.0000001192092896,
        1.0,
        1.0
      ],
      "translation": [
        0.44425296783447266,
        0.8168599605560303,
        -3.5286279853607994e-07
      ]
    },
    {
      "children": [
        50
      ],
      "name": "LowerLeftArm_014",
      "rotation": [
        0.6348446607589722,
        -0.002511595841497183,
        -0.0030565569177269936,
        0.7726296782493591
      ],
      "translation": [
        2.7939677238464355e-07,
        0.621471643447876,
        5.96292011323385e-08
      ]
    },
    {
      "children": [
        51
      ],
      "name": "LeftHand_015",
      "rotation": [
        0.0511847659945488,
        0.3387199938297272,
        0.031970616430044174,
        0.9389498233795166
      ],
      "scale": [
        0.9999999403953552,
        0.9999999403953552,
        1.0
      ],
      "translation": [
        -1.043081283569336e-07,
        0.5797516107559204,
        -2.7008354663848877e-07
      ]
    },
    {
      "name": "LeftHand_end_040",
      "rotation": [
        -2.7755575615628914e-17,
        2.7755575615628914e-17,
        2.7755575615628914e-17,
        1.0
      ],
      "translation": [
        0.0,
        0.5382336974143982,
        0.0
      ]
    },
    {
      "children": [
        53
      ],
      "name": "Neck_016",
      "rotation": [
        0.001864127698354423,
        7.408810009934541e-09,
        5.06650221776539e-10,
        0.9999982714653015
      ],
      "translation": [
        0.0008368198177777231,
        0.7996051907539368,
        -1.565135221426317e-08
      ]
    },
    {
      "children": [
        54
      ],
      "name": "Neck2_017",
      "rotation": [
        0.0020167995244264603,
        -0.00018763099797070026,
        0.09262580424547195,
        0.9956989288330078
      ],
      "scale": [
        0.9999999403953552,
        0.9999999403953552,
        0.9999999403953552
      ],
      "translation": [
        1.2878505373237203e-08,
        0.1767130047082901,
        8.381902283360887e-09
      ]
    },
    {
      "children": [
        55,
        57,
        59,
        61,
        63,
        65,
        67
      ],
      "name": "Head_018",
      "rotation": [
        -0.003764030523598194,
        -0.25204214453697205,
        0.0009803185239434242,
        0.9677084684371948
      ],
      "scale": [
        0.9999998807907104,
        0.9999998807907104,
        0.9999999403953552
      ],
      "translation": [
        2.0675361156463623e-07,
        0.09434204548597336,
        -0.013180549256503582
      ]
    },
    {
      "children": [
        56
      ],
      "name": "EndoJaw_019",
      "rotation": [
        0.7773770093917847,
        5.666692004524521e-07,
        9.137989991359063e-07,
        0.6290349960327148
      ],
      "scale": [
        0.9999999403953552,
        0.9999999403953552,
        0.9999998807907104
      ],
      "translation": [
        7.450580596923828e-08,
        0.15757179260253906,
        0.016736488789319992
      ]
    },
    {
      "name": "EndoJaw_end_041",
      "rotation": [
        1.0408340855860843e-17,
        -3.469446951953614e-18,
        -2.7755575615628914e-17,
        1.0
      ],
      "translation": [
        0.0,
        0.38272640109062195,
        0.0
      ]
    },
    {
      "children": [
        58
      ],
      "name": "Jaw_020",
      "rotation": [
        0.7946116328239441,
        5.403140335147327e-07,
        8.336189694091445e-07,
        0.6071182489395142
      ],
      "scale": [
        1.0,
        1.0,
        1.0000001192092896
      ],
      "translation": [
        1.3783574104309082e-07,
        0.11901095509529114,
        0.0005778670310974121
      ]
    },
    {
      "name": "Jaw_end_042",
      "rotation": [
        4.163336342344337e-17,
        3.469446951953614e-17,
        2.7755575615628914e-17,
        1.0
      ],
      "translation": [
        0.0,
        0.5788396596908569,
        0.0
      ]
    },
    {
      "children": [
        60
      ],
      "name": "LeftEye_021",
      "rotation": [
        0.7073874473571777,
        -3.2255893955834836e-08,
        1.718119193583334e-07,
        0.7068260312080383
      ],
      "scale": [
        1.0,
        0.9999998807907104,
        0.9999998807907104
      ],
      "translation": [
        0.16496145725250244,
        0.5300883650779724,
        0.24148988723754883
      ]
    },
    {
      "name": "LeftEye_end_043",
      "rotation": [
        6.938893903907228e-18,
        -1.3877787807814457e-17,
        -5.551115123125783e-17,
        1.0
      ],
      "translation": [
        0.0,
        0.11770843714475632,
        2.220446049250313e-16
      ]
    },
    {
      "children": [
        62
      ],
      "name": "LeftEyeLid_022",
      "rotation": [
        -0.2570505738258362,
        -1.1564462276680842e-08,
        -9.637053377531402e-10,
        0.9663979411125183
      ],
      "scale": [
        1.0,
        1.0000001192092896,
        1.0
      ],
      "translation": [
        0.16496139764785767,
        0.5322539806365967,
        0.24050532281398773
      ]
    },
    {
      "name": "LeftEyeLid_end_044",
      "rotation": [
        1.3877787807814457e-17,
        -5.551115123125783e-17,
        -2.7755575615628914e-17,
        1.0
      ],
      "translation": [
        0.0,
        0.11549635231494904,
        5.3290705182007514e-15
      ]
    },
    {
      "children": [
        64
      ],
      "name": "RightEye_023",
      "rotation": [
        0.7073888778686523,
        -2.6660430307856586e-08,
        1.718115498761108e-07,
        0.7068246006965637
      ],
      "scale": [
        1.0,
        0.9999998807907104,
        0.9999998807907104
      ],
      "translation": [
        -0.15724879503250122,
        0.5299193859100342,
        0.24148981273174286
      ]
    },
    {
      "name": "RightEye_end_045",
      "rotation": [
        -3.469446951953614e-18,
        -3.469446951953614e-17,
        5.551115123125783e-17,
        1.0
      ],
      "translation": [
        0.0,
        0.11770843714475632,
        2.7755575615628914e-16
      ]
    },
    {
      "children": [
        66
      ],
      "name": "RightEyeLid_024",
      "rotation": [
        -0.2570505738258362,
        -1.1564462276680842e-08,
        -9.637053377531402e-10,
        0.9663979411125183
      ],
      "scale": [
        1.0,
        1.0000001192092896,
        1.0
      ],
      "translation": [
        -0.15724876523017883,
        0.5294495820999146,
        0.24209408462047577
      ]
    },
    {
      "name": "RightEyeLid_end_046",
      "rotation": [
        1.3877787807814457e-17,
        -5.551115123125783e-17,
        -2.7755575615628914e-17,
        1.0
      ],
      "translation": [
        0.0,
        0.11549635231494904,
        1.7763568394002505e-15
      ]
    },
    {
      "children": [
        68
      ],
      "name": "hair_025",
      "rotation": [
        3.9115622030294617e-07,
        2.8172561172823407e-08,
        -0.0019476282177492976,
        0.9999980926513672
      ],
      "translation": [
        0.0034918561577796936,
        0.9265443086624146,
        -0.010510355234146118
      ]
    },
    {
      "name": "hair_end_047",
      "rotation": [
        -2.0816681711721685e-17,
        -5.551115123125783e-17,
        3.469446951953614e-18,
        1.0
      ],
      "translation": [
        -3.552713678800501e-15,
        0.20080384612083435,
        3.552713678800501e-15
      ]
    },
    {
      "children": [
        70
      ],
      "name": "apron_026",
      "rotation": [
        0.9980655908584595,
        0.049797993153333664,
        0.002614700235426426,
        0.0371268056333065
      ],
      "scale": [
        1.0000001192092896,
        1.0,
        1.0
      ],
      "translation": [
        -1.5255309904205205e-07,
        -0.0358138233423233,
        0.5205705165863037
      ]
    },
    {
      "name": "apron_end_048",
      "rotation": [
        -1.3877787807814457e-17,
        2.7755575615628914e-17,
        -1.0408340855860843e-17,
        1.0
      ],
      "translation": [
        3.552713678800501e-15,
        0.49387937784194946,
        0.0
      ]
    },
    {
      "children": [
        72
      ],
      "name": "LeftheelIK_027",
      "rotation": [
        -0.0010989930015057325,
        0.9943196773529053,
        0.10561944544315338,
        0.013103797100484371
      ],
      "scale": [
        1.0,
        0.9999999403953552,
        0.9999999403953552
      ],
      "translation": [
        0.3365026116371155,
        0.2682889699935913,
        0.1314316987991333
      ]
    },
    {
      "children": [
        73
      ],
      "name": "LeftFoot_028",
      "rotation": [
        0.9957032799720764,
        -0.004968550521880388,
        0.06526161730289459,
        -0.06550747901201248
      ],
      "scale": [
        0.9999999403953552,
        0.9999998211860657,
        0.9999998211860657
      ],
      "translation": [
        -0.00652582012116909,
        -3.23964050039649e-05,
        0.00016858521848917007
      ]
    },
    {
      "name": "LeftFoot_end_049",
      "rotation": [
        -9.497994354644083e-36,
        1.0950441942103595e-17,
        8.673617379884035e-19,
        1.0
      ],
      "translation": [
        0.0,
        0.44833311438560486,
        4.440892098500626e-16
      ]
    },
    {
      "children": [
        75
      ],
      "name": "RightheelIK_029",
      "rotation": [
        -0.0012009385973215103,
        0.9943447113037109,
        0.10558993369340897,
        -0.011309288442134857
      ],
      "scale": [
        1.0,
        1.0000001192092896,
        0.9999999403953552
      ],
      "translation": [
        -0.31845781207084656,
        0.2682890295982361,
        0.13059377670288086
      ]
    },
    {
      "children": [
        76
      ],
      "name": "RightFoot_030",
      "rotation": [
        0.9956769943237305,
        0.005379498470574617,
        -0.06566837430000305,
        -0.06546776741743088
      ],
      "scale": [
        1.0,
        0.9999999403953552,
        1.0000251531600952
      ],
      "translation": [
        0.0074905576184391975,
        5.227699875831604e-05,
        -7.321685552597046e-05
      ]
    },
    {
      "name": "RightFoot_end_050",
      "rotation": [
        6.938893903907228e-18,
        7.48099499014998e-18,
        8.673617379884035e-19,
        1.0
      ],
      "translation": [
        0.0,
        0.4483313262462616,
        0.0
      ]
    },
    {
      "children": [
        78
      ],
      "name": "LeftlegIK_031",
      "rotation": [
        -0.013521047309041023,
        0.002687696600332856,
        0.999904990196228,
        -3.631036088336259e-05
      ],
      "scale": [
        1.0,
        1.0000001192092896,
        1.0
      ],
      "translation": [
        -0.12399837374687195,
        -1.1442593336105347,
        1.240583062171936
      ]
    },
    {
      "name": "LeftlegIK_end_051",
      "rotation": [
        -8.673617379884035e-19,
        -3.2414892100238006e-19,
        -2.811543714876901e-37,
        1.0
      ],
      "translation": [
        3.552713678800501e-15,
        0.4414581060409546,
        -1.1102230246251565e-16
      ]
    },
    {
      "children": [
        80
      ],
      "name": "RightkneeIK_032",
      "rotation": [
        0.019282223656773567,
        0.002687443047761917,
        0.9998104572296143,
        5.1781222282443196e-05
      ],
      "translation": [
        -0.7733074426651001,
        -1.1442592144012451,
        1.2342709302902222
      ]
    },
    {
      "name": "RightkneeIK_end_052",
      "rotation": [
        1.734723475976807e-18,
        4.21875347291845e-18,
        2.710505431213761e-20,
        1.0
      ],
      "translation": [
        3.552713678800501e-15,
        0.4414581060409546,
        0.0
      ]
    }
  ],
  "samplers": [
    {
      "magFilter": 9729,
      "minFilter": 9987,
      "wrapS": 10497,
      "wrapT": 10497
    }
  ],
  "scene": 0,
  "scenes": [
    {
      "name": "Sketchfab_Scene",
      "nodes": [
        0
      ]
    }
  ],
  "skins": [
    {
      "inverseBindMatrices": 30,
      "joints": [
        13,
        28,
        29,
        30,
        31,
        32,
        33,
        34,
        35,
        36,
        37,
        38,
        39,
        40,
        41,
        42,
        43,
        44,
        45,
        46,
        47,
        48,
        49,
        50,
        51,
        52,
        53,
        54,
        55,
        56,
        57,
        58,
        59,
        60,
        61,
        62,
        63,
        64,
        65,
        66,
        67,
        68,
        69,
        70,
        71,
        72,
        73,
        74,
        75,
        76,
        77,
        78,
        79,
        80
      ],
      "skeleton": 13
    }
  ],
  "textures": [
    {
      "sampler": 0,
      "source": 0
    },
    {
      "sampler": 0,
      "source": 1
    },
    {
      "sampler": 0,
      "source": 2
    },
    {
      "sampler": 0,
      "source": 3
    },
    {
      "sampler": 0,
      "source": 4
    },
    {
      "sampler": 0,
      "source": 5
    },
    {
      "sampler": 0,
      "source": 6
    }
  ]
}
